<mxfile host="app.diagrams.net" modified="2023-09-08T11:22:08.522Z" agent="Mozilla/5.0 (Windows NT 10.0; Win64; x64; rv:109.0) Gecko/20100101 Firefox/117.0" etag="XSfWANocgzbGIk4TSPO6" version="21.7.2" type="github" pages="6">
  <diagram id="vy3jLn9Uud9MdypbOoXN" name="coordinate">
    <mxGraphModel dx="1434" dy="774" grid="1" gridSize="10" guides="1" tooltips="1" connect="1" arrows="1" fold="1" page="1" pageScale="1" pageWidth="827" pageHeight="1169" math="0" shadow="0">
      <root>
        <mxCell id="0" />
        <mxCell id="1" parent="0" />
        <mxCell id="fpPshk9HtvbqdYG1xlXU-1" value="" style="group" parent="1" vertex="1" connectable="0">
          <mxGeometry x="180" y="170" width="360" height="280" as="geometry" />
        </mxCell>
        <mxCell id="fpPshk9HtvbqdYG1xlXU-2" value="" style="rounded=0;whiteSpace=wrap;html=1;container=0;" parent="fpPshk9HtvbqdYG1xlXU-1" vertex="1">
          <mxGeometry x="240" y="40" width="40" height="40" as="geometry" />
        </mxCell>
        <mxCell id="fpPshk9HtvbqdYG1xlXU-3" value="" style="rounded=0;whiteSpace=wrap;html=1;container=0;fillColor=#d5e8d4;strokeColor=#82b366;" parent="fpPshk9HtvbqdYG1xlXU-1" vertex="1">
          <mxGeometry x="240" y="80" width="40" height="40" as="geometry" />
        </mxCell>
        <mxCell id="fpPshk9HtvbqdYG1xlXU-4" value="" style="rounded=0;whiteSpace=wrap;html=1;container=0;fillColor=#d5e8d4;strokeColor=#82b366;" parent="fpPshk9HtvbqdYG1xlXU-1" vertex="1">
          <mxGeometry x="240" y="120" width="40" height="40" as="geometry" />
        </mxCell>
        <mxCell id="fpPshk9HtvbqdYG1xlXU-5" value="" style="rounded=0;whiteSpace=wrap;html=1;container=0;" parent="fpPshk9HtvbqdYG1xlXU-1" vertex="1">
          <mxGeometry x="240" y="160" width="40" height="40" as="geometry" />
        </mxCell>
        <mxCell id="fpPshk9HtvbqdYG1xlXU-6" value="" style="rounded=0;whiteSpace=wrap;html=1;container=0;" parent="fpPshk9HtvbqdYG1xlXU-1" vertex="1">
          <mxGeometry x="240" y="200" width="40" height="40" as="geometry" />
        </mxCell>
        <mxCell id="fpPshk9HtvbqdYG1xlXU-7" value="" style="rounded=0;whiteSpace=wrap;html=1;container=0;" parent="fpPshk9HtvbqdYG1xlXU-1" vertex="1">
          <mxGeometry x="280" y="40" width="40" height="40" as="geometry" />
        </mxCell>
        <mxCell id="fpPshk9HtvbqdYG1xlXU-8" value="" style="rounded=0;whiteSpace=wrap;html=1;container=0;" parent="fpPshk9HtvbqdYG1xlXU-1" vertex="1">
          <mxGeometry x="280" y="80" width="40" height="40" as="geometry" />
        </mxCell>
        <mxCell id="fpPshk9HtvbqdYG1xlXU-9" value="" style="rounded=0;whiteSpace=wrap;html=1;container=0;" parent="fpPshk9HtvbqdYG1xlXU-1" vertex="1">
          <mxGeometry x="280" y="120" width="40" height="40" as="geometry" />
        </mxCell>
        <mxCell id="fpPshk9HtvbqdYG1xlXU-10" value="" style="rounded=0;whiteSpace=wrap;html=1;container=0;" parent="fpPshk9HtvbqdYG1xlXU-1" vertex="1">
          <mxGeometry x="280" y="160" width="40" height="40" as="geometry" />
        </mxCell>
        <mxCell id="fpPshk9HtvbqdYG1xlXU-11" value="" style="rounded=0;whiteSpace=wrap;html=1;container=0;" parent="fpPshk9HtvbqdYG1xlXU-1" vertex="1">
          <mxGeometry x="280" y="200" width="40" height="40" as="geometry" />
        </mxCell>
        <mxCell id="fpPshk9HtvbqdYG1xlXU-12" value="" style="rounded=0;whiteSpace=wrap;html=1;container=0;" parent="fpPshk9HtvbqdYG1xlXU-1" vertex="1">
          <mxGeometry x="160" y="40" width="40" height="40" as="geometry" />
        </mxCell>
        <mxCell id="fpPshk9HtvbqdYG1xlXU-13" value="" style="rounded=0;whiteSpace=wrap;html=1;container=0;" parent="fpPshk9HtvbqdYG1xlXU-1" vertex="1">
          <mxGeometry x="160" y="80" width="40" height="40" as="geometry" />
        </mxCell>
        <mxCell id="fpPshk9HtvbqdYG1xlXU-14" value="" style="rounded=0;whiteSpace=wrap;html=1;container=0;" parent="fpPshk9HtvbqdYG1xlXU-1" vertex="1">
          <mxGeometry x="160" y="120" width="40" height="40" as="geometry" />
        </mxCell>
        <mxCell id="fpPshk9HtvbqdYG1xlXU-15" value="" style="rounded=0;whiteSpace=wrap;html=1;container=0;" parent="fpPshk9HtvbqdYG1xlXU-1" vertex="1">
          <mxGeometry x="160" y="160" width="40" height="40" as="geometry" />
        </mxCell>
        <mxCell id="fpPshk9HtvbqdYG1xlXU-16" value="" style="rounded=0;whiteSpace=wrap;html=1;container=0;" parent="fpPshk9HtvbqdYG1xlXU-1" vertex="1">
          <mxGeometry x="160" y="200" width="40" height="40" as="geometry" />
        </mxCell>
        <mxCell id="fpPshk9HtvbqdYG1xlXU-17" value="" style="rounded=0;whiteSpace=wrap;html=1;container=0;" parent="fpPshk9HtvbqdYG1xlXU-1" vertex="1">
          <mxGeometry x="200" y="40" width="40" height="40" as="geometry" />
        </mxCell>
        <mxCell id="fpPshk9HtvbqdYG1xlXU-18" value="" style="rounded=0;whiteSpace=wrap;html=1;container=0;fillColor=#d5e8d4;strokeColor=#82b366;" parent="fpPshk9HtvbqdYG1xlXU-1" vertex="1">
          <mxGeometry x="200" y="80" width="40" height="40" as="geometry" />
        </mxCell>
        <mxCell id="fpPshk9HtvbqdYG1xlXU-19" value="" style="rounded=0;whiteSpace=wrap;html=1;container=0;fillColor=#d5e8d4;strokeColor=#82b366;" parent="fpPshk9HtvbqdYG1xlXU-1" vertex="1">
          <mxGeometry x="200" y="120" width="40" height="40" as="geometry" />
        </mxCell>
        <mxCell id="fpPshk9HtvbqdYG1xlXU-20" value="" style="rounded=0;whiteSpace=wrap;html=1;container=0;" parent="fpPshk9HtvbqdYG1xlXU-1" vertex="1">
          <mxGeometry x="200" y="160" width="40" height="40" as="geometry" />
        </mxCell>
        <mxCell id="fpPshk9HtvbqdYG1xlXU-21" value="" style="rounded=0;whiteSpace=wrap;html=1;container=0;" parent="fpPshk9HtvbqdYG1xlXU-1" vertex="1">
          <mxGeometry x="200" y="200" width="40" height="40" as="geometry" />
        </mxCell>
        <mxCell id="fpPshk9HtvbqdYG1xlXU-22" value="" style="rounded=0;whiteSpace=wrap;html=1;container=0;" parent="fpPshk9HtvbqdYG1xlXU-1" vertex="1">
          <mxGeometry x="80" y="40" width="40" height="40" as="geometry" />
        </mxCell>
        <mxCell id="fpPshk9HtvbqdYG1xlXU-23" value="" style="rounded=0;whiteSpace=wrap;html=1;container=0;" parent="fpPshk9HtvbqdYG1xlXU-1" vertex="1">
          <mxGeometry x="80" y="80" width="40" height="40" as="geometry" />
        </mxCell>
        <mxCell id="fpPshk9HtvbqdYG1xlXU-24" value="" style="rounded=0;whiteSpace=wrap;html=1;container=0;" parent="fpPshk9HtvbqdYG1xlXU-1" vertex="1">
          <mxGeometry x="80" y="120" width="40" height="40" as="geometry" />
        </mxCell>
        <mxCell id="fpPshk9HtvbqdYG1xlXU-25" value="" style="rounded=0;whiteSpace=wrap;html=1;container=0;" parent="fpPshk9HtvbqdYG1xlXU-1" vertex="1">
          <mxGeometry x="80" y="160" width="40" height="40" as="geometry" />
        </mxCell>
        <mxCell id="fpPshk9HtvbqdYG1xlXU-26" value="" style="rounded=0;whiteSpace=wrap;html=1;container=0;" parent="fpPshk9HtvbqdYG1xlXU-1" vertex="1">
          <mxGeometry x="80" y="200" width="40" height="40" as="geometry" />
        </mxCell>
        <mxCell id="fpPshk9HtvbqdYG1xlXU-27" value="" style="rounded=0;whiteSpace=wrap;html=1;container=0;" parent="fpPshk9HtvbqdYG1xlXU-1" vertex="1">
          <mxGeometry x="120" y="40" width="40" height="40" as="geometry" />
        </mxCell>
        <mxCell id="fpPshk9HtvbqdYG1xlXU-28" value="" style="rounded=0;whiteSpace=wrap;html=1;container=0;" parent="fpPshk9HtvbqdYG1xlXU-1" vertex="1">
          <mxGeometry x="120" y="80" width="40" height="40" as="geometry" />
        </mxCell>
        <mxCell id="fpPshk9HtvbqdYG1xlXU-29" value="" style="rounded=0;whiteSpace=wrap;html=1;container=0;" parent="fpPshk9HtvbqdYG1xlXU-1" vertex="1">
          <mxGeometry x="120" y="120" width="40" height="40" as="geometry" />
        </mxCell>
        <mxCell id="fpPshk9HtvbqdYG1xlXU-30" value="" style="rounded=0;whiteSpace=wrap;html=1;container=0;" parent="fpPshk9HtvbqdYG1xlXU-1" vertex="1">
          <mxGeometry x="120" y="160" width="40" height="40" as="geometry" />
        </mxCell>
        <mxCell id="fpPshk9HtvbqdYG1xlXU-31" value="" style="rounded=0;whiteSpace=wrap;html=1;container=0;" parent="fpPshk9HtvbqdYG1xlXU-1" vertex="1">
          <mxGeometry x="120" y="200" width="40" height="40" as="geometry" />
        </mxCell>
        <mxCell id="fpPshk9HtvbqdYG1xlXU-32" value="" style="rounded=0;whiteSpace=wrap;html=1;container=0;fillColor=#f8cecc;strokeColor=#b85450;" parent="fpPshk9HtvbqdYG1xlXU-1" vertex="1">
          <mxGeometry x="40" y="40" width="40" height="40" as="geometry" />
        </mxCell>
        <mxCell id="fpPshk9HtvbqdYG1xlXU-33" value="" style="rounded=0;whiteSpace=wrap;html=1;container=0;" parent="fpPshk9HtvbqdYG1xlXU-1" vertex="1">
          <mxGeometry x="40" y="80" width="40" height="40" as="geometry" />
        </mxCell>
        <mxCell id="fpPshk9HtvbqdYG1xlXU-34" value="" style="rounded=0;whiteSpace=wrap;html=1;container=0;" parent="fpPshk9HtvbqdYG1xlXU-1" vertex="1">
          <mxGeometry x="40" y="120" width="40" height="40" as="geometry" />
        </mxCell>
        <mxCell id="fpPshk9HtvbqdYG1xlXU-35" value="" style="rounded=0;whiteSpace=wrap;html=1;container=0;" parent="fpPshk9HtvbqdYG1xlXU-1" vertex="1">
          <mxGeometry x="40" y="160" width="40" height="40" as="geometry" />
        </mxCell>
        <mxCell id="fpPshk9HtvbqdYG1xlXU-36" value="" style="rounded=0;whiteSpace=wrap;html=1;container=0;" parent="fpPshk9HtvbqdYG1xlXU-1" vertex="1">
          <mxGeometry x="40" y="200" width="40" height="40" as="geometry" />
        </mxCell>
        <mxCell id="fpPshk9HtvbqdYG1xlXU-37" value="&lt;pre&gt;&lt;b&gt;&lt;font style=&quot;font-size: 15px;&quot;&gt;1&lt;/font&gt;&lt;/b&gt;&lt;/pre&gt;" style="text;html=1;strokeColor=none;fillColor=none;align=center;verticalAlign=middle;whiteSpace=wrap;rounded=0;container=0;" parent="fpPshk9HtvbqdYG1xlXU-1" vertex="1">
          <mxGeometry x="80" width="40" height="40" as="geometry" />
        </mxCell>
        <mxCell id="fpPshk9HtvbqdYG1xlXU-38" value="&lt;b&gt;&lt;font style=&quot;font-size: 15px;&quot;&gt;2&lt;/font&gt;&lt;/b&gt;" style="text;html=1;strokeColor=none;fillColor=none;align=center;verticalAlign=middle;whiteSpace=wrap;rounded=0;container=0;" parent="fpPshk9HtvbqdYG1xlXU-1" vertex="1">
          <mxGeometry x="120" width="40" height="40" as="geometry" />
        </mxCell>
        <mxCell id="fpPshk9HtvbqdYG1xlXU-39" value="&lt;font size=&quot;1&quot;&gt;&lt;b style=&quot;font-size: 15px;&quot;&gt;3&lt;/b&gt;&lt;/font&gt;" style="text;html=1;strokeColor=none;fillColor=none;align=center;verticalAlign=middle;whiteSpace=wrap;rounded=0;container=0;" parent="fpPshk9HtvbqdYG1xlXU-1" vertex="1">
          <mxGeometry x="160" width="40" height="40" as="geometry" />
        </mxCell>
        <mxCell id="fpPshk9HtvbqdYG1xlXU-40" value="&lt;b style=&quot;font-size: 15px;&quot;&gt;4&lt;/b&gt;" style="text;html=1;strokeColor=none;fillColor=none;align=center;verticalAlign=middle;whiteSpace=wrap;rounded=0;container=0;" parent="fpPshk9HtvbqdYG1xlXU-1" vertex="1">
          <mxGeometry x="200" width="40" height="40" as="geometry" />
        </mxCell>
        <mxCell id="fpPshk9HtvbqdYG1xlXU-41" value="&lt;font size=&quot;1&quot;&gt;&lt;b style=&quot;font-size: 15px;&quot;&gt;5&lt;/b&gt;&lt;/font&gt;" style="text;html=1;strokeColor=none;fillColor=none;align=center;verticalAlign=middle;whiteSpace=wrap;rounded=0;container=0;" parent="fpPshk9HtvbqdYG1xlXU-1" vertex="1">
          <mxGeometry x="240" width="40" height="40" as="geometry" />
        </mxCell>
        <mxCell id="fpPshk9HtvbqdYG1xlXU-42" value="&lt;font size=&quot;1&quot;&gt;&lt;b style=&quot;font-size: 15px;&quot;&gt;6&lt;/b&gt;&lt;/font&gt;" style="text;html=1;strokeColor=none;fillColor=none;align=center;verticalAlign=middle;whiteSpace=wrap;rounded=0;container=0;" parent="fpPshk9HtvbqdYG1xlXU-1" vertex="1">
          <mxGeometry x="280" width="40" height="40" as="geometry" />
        </mxCell>
        <mxCell id="fpPshk9HtvbqdYG1xlXU-43" value="&lt;font size=&quot;1&quot;&gt;&lt;b style=&quot;font-size: 15px;&quot;&gt;7&lt;/b&gt;&lt;/font&gt;" style="text;html=1;strokeColor=none;fillColor=none;align=center;verticalAlign=middle;whiteSpace=wrap;rounded=0;container=0;" parent="fpPshk9HtvbqdYG1xlXU-1" vertex="1">
          <mxGeometry x="320" width="40" height="40" as="geometry" />
        </mxCell>
        <mxCell id="fpPshk9HtvbqdYG1xlXU-44" value="&lt;pre&gt;&lt;b&gt;&lt;font style=&quot;font-size: 15px;&quot;&gt;1&lt;/font&gt;&lt;/b&gt;&lt;/pre&gt;" style="text;html=1;strokeColor=none;fillColor=none;align=center;verticalAlign=middle;whiteSpace=wrap;rounded=0;container=0;" parent="fpPshk9HtvbqdYG1xlXU-1" vertex="1">
          <mxGeometry y="80" width="40" height="40" as="geometry" />
        </mxCell>
        <mxCell id="fpPshk9HtvbqdYG1xlXU-45" value="&lt;b&gt;&lt;font style=&quot;font-size: 15px;&quot;&gt;2&lt;/font&gt;&lt;/b&gt;" style="text;html=1;strokeColor=none;fillColor=none;align=center;verticalAlign=middle;whiteSpace=wrap;rounded=0;container=0;" parent="fpPshk9HtvbqdYG1xlXU-1" vertex="1">
          <mxGeometry y="120" width="40" height="40" as="geometry" />
        </mxCell>
        <mxCell id="fpPshk9HtvbqdYG1xlXU-46" value="&lt;font size=&quot;1&quot;&gt;&lt;b style=&quot;font-size: 15px;&quot;&gt;3&lt;/b&gt;&lt;/font&gt;" style="text;html=1;strokeColor=none;fillColor=none;align=center;verticalAlign=middle;whiteSpace=wrap;rounded=0;container=0;" parent="fpPshk9HtvbqdYG1xlXU-1" vertex="1">
          <mxGeometry y="160" width="40" height="40" as="geometry" />
        </mxCell>
        <mxCell id="fpPshk9HtvbqdYG1xlXU-47" value="&lt;b style=&quot;font-size: 15px;&quot;&gt;4&lt;/b&gt;" style="text;html=1;strokeColor=none;fillColor=none;align=center;verticalAlign=middle;whiteSpace=wrap;rounded=0;container=0;" parent="fpPshk9HtvbqdYG1xlXU-1" vertex="1">
          <mxGeometry y="200" width="40" height="40" as="geometry" />
        </mxCell>
        <mxCell id="fpPshk9HtvbqdYG1xlXU-48" value="&lt;font size=&quot;1&quot;&gt;&lt;b style=&quot;font-size: 15px;&quot;&gt;5&lt;/b&gt;&lt;/font&gt;" style="text;html=1;strokeColor=none;fillColor=none;align=center;verticalAlign=middle;whiteSpace=wrap;rounded=0;container=0;" parent="fpPshk9HtvbqdYG1xlXU-1" vertex="1">
          <mxGeometry y="240" width="40" height="40" as="geometry" />
        </mxCell>
        <mxCell id="fpPshk9HtvbqdYG1xlXU-49" value="" style="rounded=0;whiteSpace=wrap;html=1;container=0;" parent="fpPshk9HtvbqdYG1xlXU-1" vertex="1">
          <mxGeometry x="320" y="40" width="40" height="40" as="geometry" />
        </mxCell>
        <mxCell id="fpPshk9HtvbqdYG1xlXU-50" value="" style="rounded=0;whiteSpace=wrap;html=1;container=0;" parent="fpPshk9HtvbqdYG1xlXU-1" vertex="1">
          <mxGeometry x="320" y="80" width="40" height="40" as="geometry" />
        </mxCell>
        <mxCell id="fpPshk9HtvbqdYG1xlXU-51" value="" style="rounded=0;whiteSpace=wrap;html=1;container=0;" parent="fpPshk9HtvbqdYG1xlXU-1" vertex="1">
          <mxGeometry x="320" y="120" width="40" height="40" as="geometry" />
        </mxCell>
        <mxCell id="fpPshk9HtvbqdYG1xlXU-52" value="" style="rounded=0;whiteSpace=wrap;html=1;container=0;" parent="fpPshk9HtvbqdYG1xlXU-1" vertex="1">
          <mxGeometry x="320" y="160" width="40" height="40" as="geometry" />
        </mxCell>
        <mxCell id="fpPshk9HtvbqdYG1xlXU-53" value="" style="rounded=0;whiteSpace=wrap;html=1;container=0;" parent="fpPshk9HtvbqdYG1xlXU-1" vertex="1">
          <mxGeometry x="320" y="200" width="40" height="40" as="geometry" />
        </mxCell>
        <mxCell id="fpPshk9HtvbqdYG1xlXU-54" value="" style="rounded=0;whiteSpace=wrap;html=1;container=0;" parent="fpPshk9HtvbqdYG1xlXU-1" vertex="1">
          <mxGeometry x="240" y="240" width="40" height="40" as="geometry" />
        </mxCell>
        <mxCell id="fpPshk9HtvbqdYG1xlXU-55" value="" style="rounded=0;whiteSpace=wrap;html=1;container=0;" parent="fpPshk9HtvbqdYG1xlXU-1" vertex="1">
          <mxGeometry x="280" y="240" width="40" height="40" as="geometry" />
        </mxCell>
        <mxCell id="fpPshk9HtvbqdYG1xlXU-56" value="" style="rounded=0;whiteSpace=wrap;html=1;container=0;" parent="fpPshk9HtvbqdYG1xlXU-1" vertex="1">
          <mxGeometry x="160" y="240" width="40" height="40" as="geometry" />
        </mxCell>
        <mxCell id="fpPshk9HtvbqdYG1xlXU-57" value="" style="rounded=0;whiteSpace=wrap;html=1;container=0;" parent="fpPshk9HtvbqdYG1xlXU-1" vertex="1">
          <mxGeometry x="200" y="240" width="40" height="40" as="geometry" />
        </mxCell>
        <mxCell id="fpPshk9HtvbqdYG1xlXU-58" value="" style="rounded=0;whiteSpace=wrap;html=1;container=0;fillColor=#dae8fc;strokeColor=#6c8ebf;" parent="fpPshk9HtvbqdYG1xlXU-1" vertex="1">
          <mxGeometry x="80" y="240" width="40" height="40" as="geometry" />
        </mxCell>
        <mxCell id="fpPshk9HtvbqdYG1xlXU-59" value="" style="rounded=0;whiteSpace=wrap;html=1;container=0;fillColor=#dae8fc;strokeColor=#6c8ebf;" parent="fpPshk9HtvbqdYG1xlXU-1" vertex="1">
          <mxGeometry x="120" y="240" width="40" height="40" as="geometry" />
        </mxCell>
        <mxCell id="fpPshk9HtvbqdYG1xlXU-60" value="" style="rounded=0;whiteSpace=wrap;html=1;container=0;fillColor=#dae8fc;strokeColor=#6c8ebf;" parent="fpPshk9HtvbqdYG1xlXU-1" vertex="1">
          <mxGeometry x="40" y="240" width="40" height="40" as="geometry" />
        </mxCell>
        <mxCell id="fpPshk9HtvbqdYG1xlXU-61" value="" style="rounded=0;whiteSpace=wrap;html=1;container=0;" parent="fpPshk9HtvbqdYG1xlXU-1" vertex="1">
          <mxGeometry x="320" y="240" width="40" height="40" as="geometry" />
        </mxCell>
        <mxCell id="fpPshk9HtvbqdYG1xlXU-62" value="&lt;pre&gt;&lt;b&gt;&lt;font style=&quot;font-size: 15px;&quot;&gt;0&lt;/font&gt;&lt;/b&gt;&lt;/pre&gt;" style="text;html=1;strokeColor=none;fillColor=none;align=center;verticalAlign=middle;whiteSpace=wrap;rounded=0;container=0;" parent="fpPshk9HtvbqdYG1xlXU-1" vertex="1">
          <mxGeometry x="40" width="40" height="40" as="geometry" />
        </mxCell>
        <mxCell id="fpPshk9HtvbqdYG1xlXU-63" value="&lt;pre&gt;&lt;b&gt;&lt;font style=&quot;font-size: 15px;&quot;&gt;0&lt;/font&gt;&lt;/b&gt;&lt;/pre&gt;" style="text;html=1;strokeColor=none;fillColor=none;align=center;verticalAlign=middle;whiteSpace=wrap;rounded=0;container=0;" parent="fpPshk9HtvbqdYG1xlXU-1" vertex="1">
          <mxGeometry y="40" width="40" height="40" as="geometry" />
        </mxCell>
        <mxCell id="fpPshk9HtvbqdYG1xlXU-64" value="&lt;pre&gt;&lt;b&gt;ColdRoom&lt;/b&gt;&lt;/pre&gt;" style="text;html=1;strokeColor=none;fillColor=none;align=center;verticalAlign=middle;whiteSpace=wrap;rounded=0;" parent="fpPshk9HtvbqdYG1xlXU-1" vertex="1">
          <mxGeometry x="210" y="110" width="60" height="30" as="geometry" />
        </mxCell>
        <mxCell id="fpPshk9HtvbqdYG1xlXU-65" value="&lt;pre&gt;&lt;b&gt;Indoor&lt;/b&gt;&lt;/pre&gt;" style="text;html=1;strokeColor=none;fillColor=none;align=center;verticalAlign=middle;whiteSpace=wrap;rounded=0;" parent="fpPshk9HtvbqdYG1xlXU-1" vertex="1">
          <mxGeometry x="70" y="245" width="60" height="30" as="geometry" />
        </mxCell>
        <mxCell id="fpPshk9HtvbqdYG1xlXU-72" value="&lt;b&gt;Home&lt;/b&gt;" style="text;html=1;strokeColor=none;fillColor=none;align=center;verticalAlign=middle;whiteSpace=wrap;rounded=0;" parent="fpPshk9HtvbqdYG1xlXU-1" vertex="1">
          <mxGeometry x="30" y="45" width="60" height="30" as="geometry" />
        </mxCell>
        <mxCell id="fpPshk9HtvbqdYG1xlXU-79" value="" style="endArrow=classic;html=1;rounded=0;" parent="fpPshk9HtvbqdYG1xlXU-1" edge="1">
          <mxGeometry width="50" height="50" relative="1" as="geometry">
            <mxPoint y="-0.5699999999999932" as="sourcePoint" />
            <mxPoint x="80" y="-0.5699999999999932" as="targetPoint" />
          </mxGeometry>
        </mxCell>
        <mxCell id="fpPshk9HtvbqdYG1xlXU-82" value="&lt;b&gt;y&lt;/b&gt;" style="text;html=1;strokeColor=none;fillColor=none;align=center;verticalAlign=middle;whiteSpace=wrap;rounded=0;" parent="fpPshk9HtvbqdYG1xlXU-1" vertex="1">
          <mxGeometry x="16" y="-30.569999999999993" width="25" height="22.5" as="geometry" />
        </mxCell>
        <mxCell id="fpPshk9HtvbqdYG1xlXU-66" value="" style="shape=image;html=1;verticalAlign=top;verticalLabelPosition=bottom;labelBackgroundColor=#ffffff;imageAspect=0;aspect=fixed;image=https://cdn1.iconfinder.com/data/icons/unicons-line-vol-5/24/robot-128.png" parent="1" vertex="1">
          <mxGeometry x="220" y="480" width="45" height="45" as="geometry" />
        </mxCell>
        <mxCell id="fpPshk9HtvbqdYG1xlXU-73" value="" style="endArrow=classic;startArrow=classic;html=1;rounded=0;" parent="1" edge="1">
          <mxGeometry width="50" height="50" relative="1" as="geometry">
            <mxPoint x="560" y="450" as="sourcePoint" />
            <mxPoint x="560" y="410" as="targetPoint" />
          </mxGeometry>
        </mxCell>
        <mxCell id="fpPshk9HtvbqdYG1xlXU-74" value="" style="endArrow=classic;startArrow=classic;html=1;rounded=0;" parent="1" edge="1">
          <mxGeometry width="50" height="50" relative="1" as="geometry">
            <mxPoint x="540" y="470" as="sourcePoint" />
            <mxPoint x="500" y="470" as="targetPoint" />
            <Array as="points">
              <mxPoint x="520" y="470" />
            </Array>
          </mxGeometry>
        </mxCell>
        <mxCell id="fpPshk9HtvbqdYG1xlXU-75" value="" style="endArrow=classic;startArrow=classic;html=1;rounded=0;" parent="1" edge="1">
          <mxGeometry width="50" height="50" relative="1" as="geometry">
            <mxPoint x="270" y="525" as="sourcePoint" />
            <mxPoint x="270" y="485" as="targetPoint" />
          </mxGeometry>
        </mxCell>
        <mxCell id="fpPshk9HtvbqdYG1xlXU-76" value="&lt;b&gt;RD&lt;/b&gt;" style="text;html=1;strokeColor=none;fillColor=none;align=center;verticalAlign=middle;whiteSpace=wrap;rounded=0;" parent="1" vertex="1">
          <mxGeometry x="280" y="491.25" width="25" height="22.5" as="geometry" />
        </mxCell>
        <mxCell id="fpPshk9HtvbqdYG1xlXU-77" value="&lt;b&gt;RD&lt;/b&gt;" style="text;html=1;strokeColor=none;fillColor=none;align=center;verticalAlign=middle;whiteSpace=wrap;rounded=0;" parent="1" vertex="1">
          <mxGeometry x="570" y="420" width="25" height="22.5" as="geometry" />
        </mxCell>
        <mxCell id="fpPshk9HtvbqdYG1xlXU-78" value="&lt;b&gt;RD&lt;/b&gt;" style="text;html=1;strokeColor=none;fillColor=none;align=center;verticalAlign=middle;whiteSpace=wrap;rounded=0;" parent="1" vertex="1">
          <mxGeometry x="510" y="468.75" width="25" height="22.5" as="geometry" />
        </mxCell>
        <mxCell id="fpPshk9HtvbqdYG1xlXU-80" value="" style="endArrow=classic;html=1;rounded=0;" parent="1" edge="1">
          <mxGeometry width="50" height="50" relative="1" as="geometry">
            <mxPoint x="179.43" y="170" as="sourcePoint" />
            <mxPoint x="179.43" y="250" as="targetPoint" />
          </mxGeometry>
        </mxCell>
        <mxCell id="fpPshk9HtvbqdYG1xlXU-83" value="&lt;b&gt;x&lt;/b&gt;" style="text;html=1;strokeColor=none;fillColor=none;align=center;verticalAlign=middle;whiteSpace=wrap;rounded=0;" parent="1" vertex="1">
          <mxGeometry x="150.43" y="190" width="25" height="22.5" as="geometry" />
        </mxCell>
        <mxCell id="fpPshk9HtvbqdYG1xlXU-84" value="&lt;div&gt;&lt;b&gt;DDR&lt;/b&gt;&lt;/div&gt;&lt;div&gt;&lt;b&gt;Robot&lt;br&gt;&lt;/b&gt;&lt;/div&gt;" style="text;html=1;strokeColor=none;fillColor=none;align=center;verticalAlign=middle;whiteSpace=wrap;rounded=0;" parent="1" vertex="1">
          <mxGeometry x="230" y="540" width="25" height="22.5" as="geometry" />
        </mxCell>
        <mxCell id="fpPshk9HtvbqdYG1xlXU-187" value="" style="group" parent="1" vertex="1" connectable="0">
          <mxGeometry x="210" y="660" width="360" height="280" as="geometry" />
        </mxCell>
        <mxCell id="fpPshk9HtvbqdYG1xlXU-188" value="" style="rounded=0;whiteSpace=wrap;html=1;container=0;" parent="fpPshk9HtvbqdYG1xlXU-187" vertex="1">
          <mxGeometry x="240" y="40" width="40" height="40" as="geometry" />
        </mxCell>
        <mxCell id="fpPshk9HtvbqdYG1xlXU-189" value="" style="rounded=0;whiteSpace=wrap;html=1;container=0;fillColor=#d5e8d4;strokeColor=#82b366;" parent="fpPshk9HtvbqdYG1xlXU-187" vertex="1">
          <mxGeometry x="240" y="80" width="40" height="40" as="geometry" />
        </mxCell>
        <mxCell id="fpPshk9HtvbqdYG1xlXU-190" value="" style="rounded=0;whiteSpace=wrap;html=1;container=0;fillColor=#d5e8d4;strokeColor=#82b366;" parent="fpPshk9HtvbqdYG1xlXU-187" vertex="1">
          <mxGeometry x="240" y="120" width="40" height="40" as="geometry" />
        </mxCell>
        <mxCell id="fpPshk9HtvbqdYG1xlXU-191" value="" style="rounded=0;whiteSpace=wrap;html=1;container=0;" parent="fpPshk9HtvbqdYG1xlXU-187" vertex="1">
          <mxGeometry x="240" y="160" width="40" height="40" as="geometry" />
        </mxCell>
        <mxCell id="fpPshk9HtvbqdYG1xlXU-192" value="" style="rounded=0;whiteSpace=wrap;html=1;container=0;" parent="fpPshk9HtvbqdYG1xlXU-187" vertex="1">
          <mxGeometry x="240" y="200" width="40" height="40" as="geometry" />
        </mxCell>
        <mxCell id="fpPshk9HtvbqdYG1xlXU-193" value="" style="rounded=0;whiteSpace=wrap;html=1;container=0;" parent="fpPshk9HtvbqdYG1xlXU-187" vertex="1">
          <mxGeometry x="280" y="40" width="40" height="40" as="geometry" />
        </mxCell>
        <mxCell id="fpPshk9HtvbqdYG1xlXU-194" value="" style="rounded=0;whiteSpace=wrap;html=1;container=0;" parent="fpPshk9HtvbqdYG1xlXU-187" vertex="1">
          <mxGeometry x="280" y="80" width="40" height="40" as="geometry" />
        </mxCell>
        <mxCell id="fpPshk9HtvbqdYG1xlXU-195" value="" style="rounded=0;whiteSpace=wrap;html=1;container=0;" parent="fpPshk9HtvbqdYG1xlXU-187" vertex="1">
          <mxGeometry x="280" y="120" width="40" height="40" as="geometry" />
        </mxCell>
        <mxCell id="fpPshk9HtvbqdYG1xlXU-196" value="" style="rounded=0;whiteSpace=wrap;html=1;container=0;" parent="fpPshk9HtvbqdYG1xlXU-187" vertex="1">
          <mxGeometry x="280" y="160" width="40" height="40" as="geometry" />
        </mxCell>
        <mxCell id="fpPshk9HtvbqdYG1xlXU-197" value="" style="rounded=0;whiteSpace=wrap;html=1;container=0;" parent="fpPshk9HtvbqdYG1xlXU-187" vertex="1">
          <mxGeometry x="280" y="200" width="40" height="40" as="geometry" />
        </mxCell>
        <mxCell id="fpPshk9HtvbqdYG1xlXU-198" value="" style="rounded=0;whiteSpace=wrap;html=1;container=0;" parent="fpPshk9HtvbqdYG1xlXU-187" vertex="1">
          <mxGeometry x="160" y="40" width="40" height="40" as="geometry" />
        </mxCell>
        <mxCell id="fpPshk9HtvbqdYG1xlXU-199" value="" style="rounded=0;whiteSpace=wrap;html=1;container=0;" parent="fpPshk9HtvbqdYG1xlXU-187" vertex="1">
          <mxGeometry x="160" y="80" width="40" height="40" as="geometry" />
        </mxCell>
        <mxCell id="fpPshk9HtvbqdYG1xlXU-200" value="" style="rounded=0;whiteSpace=wrap;html=1;container=0;" parent="fpPshk9HtvbqdYG1xlXU-187" vertex="1">
          <mxGeometry x="160" y="120" width="40" height="40" as="geometry" />
        </mxCell>
        <mxCell id="fpPshk9HtvbqdYG1xlXU-201" value="" style="rounded=0;whiteSpace=wrap;html=1;container=0;" parent="fpPshk9HtvbqdYG1xlXU-187" vertex="1">
          <mxGeometry x="160" y="160" width="40" height="40" as="geometry" />
        </mxCell>
        <mxCell id="fpPshk9HtvbqdYG1xlXU-202" value="" style="rounded=0;whiteSpace=wrap;html=1;container=0;" parent="fpPshk9HtvbqdYG1xlXU-187" vertex="1">
          <mxGeometry x="160" y="200" width="40" height="40" as="geometry" />
        </mxCell>
        <mxCell id="fpPshk9HtvbqdYG1xlXU-203" value="" style="rounded=0;whiteSpace=wrap;html=1;container=0;" parent="fpPshk9HtvbqdYG1xlXU-187" vertex="1">
          <mxGeometry x="200" y="40" width="40" height="40" as="geometry" />
        </mxCell>
        <mxCell id="fpPshk9HtvbqdYG1xlXU-204" value="" style="rounded=0;whiteSpace=wrap;html=1;container=0;fillColor=#d5e8d4;strokeColor=#82b366;" parent="fpPshk9HtvbqdYG1xlXU-187" vertex="1">
          <mxGeometry x="200" y="80" width="40" height="40" as="geometry" />
        </mxCell>
        <mxCell id="fpPshk9HtvbqdYG1xlXU-205" value="" style="rounded=0;whiteSpace=wrap;html=1;container=0;fillColor=#d5e8d4;strokeColor=#82b366;" parent="fpPshk9HtvbqdYG1xlXU-187" vertex="1">
          <mxGeometry x="200" y="120" width="40" height="40" as="geometry" />
        </mxCell>
        <mxCell id="fpPshk9HtvbqdYG1xlXU-206" value="" style="rounded=0;whiteSpace=wrap;html=1;container=0;" parent="fpPshk9HtvbqdYG1xlXU-187" vertex="1">
          <mxGeometry x="200" y="160" width="40" height="40" as="geometry" />
        </mxCell>
        <mxCell id="fpPshk9HtvbqdYG1xlXU-207" value="" style="rounded=0;whiteSpace=wrap;html=1;container=0;" parent="fpPshk9HtvbqdYG1xlXU-187" vertex="1">
          <mxGeometry x="200" y="200" width="40" height="40" as="geometry" />
        </mxCell>
        <mxCell id="fpPshk9HtvbqdYG1xlXU-208" value="" style="rounded=0;whiteSpace=wrap;html=1;container=0;" parent="fpPshk9HtvbqdYG1xlXU-187" vertex="1">
          <mxGeometry x="80" y="40" width="40" height="40" as="geometry" />
        </mxCell>
        <mxCell id="fpPshk9HtvbqdYG1xlXU-209" value="" style="rounded=0;whiteSpace=wrap;html=1;container=0;" parent="fpPshk9HtvbqdYG1xlXU-187" vertex="1">
          <mxGeometry x="80" y="80" width="40" height="40" as="geometry" />
        </mxCell>
        <mxCell id="fpPshk9HtvbqdYG1xlXU-210" value="" style="rounded=0;whiteSpace=wrap;html=1;container=0;" parent="fpPshk9HtvbqdYG1xlXU-187" vertex="1">
          <mxGeometry x="80" y="120" width="40" height="40" as="geometry" />
        </mxCell>
        <mxCell id="fpPshk9HtvbqdYG1xlXU-211" value="" style="rounded=0;whiteSpace=wrap;html=1;container=0;" parent="fpPshk9HtvbqdYG1xlXU-187" vertex="1">
          <mxGeometry x="80" y="160" width="40" height="40" as="geometry" />
        </mxCell>
        <mxCell id="fpPshk9HtvbqdYG1xlXU-212" value="" style="rounded=0;whiteSpace=wrap;html=1;container=0;" parent="fpPshk9HtvbqdYG1xlXU-187" vertex="1">
          <mxGeometry x="80" y="200" width="40" height="40" as="geometry" />
        </mxCell>
        <mxCell id="fpPshk9HtvbqdYG1xlXU-213" value="" style="rounded=0;whiteSpace=wrap;html=1;container=0;" parent="fpPshk9HtvbqdYG1xlXU-187" vertex="1">
          <mxGeometry x="120" y="40" width="40" height="40" as="geometry" />
        </mxCell>
        <mxCell id="fpPshk9HtvbqdYG1xlXU-214" value="" style="rounded=0;whiteSpace=wrap;html=1;container=0;" parent="fpPshk9HtvbqdYG1xlXU-187" vertex="1">
          <mxGeometry x="120" y="80" width="40" height="40" as="geometry" />
        </mxCell>
        <mxCell id="fpPshk9HtvbqdYG1xlXU-215" value="" style="rounded=0;whiteSpace=wrap;html=1;container=0;" parent="fpPshk9HtvbqdYG1xlXU-187" vertex="1">
          <mxGeometry x="120" y="120" width="40" height="40" as="geometry" />
        </mxCell>
        <mxCell id="fpPshk9HtvbqdYG1xlXU-216" value="" style="rounded=0;whiteSpace=wrap;html=1;container=0;" parent="fpPshk9HtvbqdYG1xlXU-187" vertex="1">
          <mxGeometry x="120" y="160" width="40" height="40" as="geometry" />
        </mxCell>
        <mxCell id="fpPshk9HtvbqdYG1xlXU-217" value="" style="rounded=0;whiteSpace=wrap;html=1;container=0;" parent="fpPshk9HtvbqdYG1xlXU-187" vertex="1">
          <mxGeometry x="120" y="200" width="40" height="40" as="geometry" />
        </mxCell>
        <mxCell id="fpPshk9HtvbqdYG1xlXU-218" value="" style="rounded=0;whiteSpace=wrap;html=1;container=0;fillColor=#f8cecc;strokeColor=#b85450;" parent="fpPshk9HtvbqdYG1xlXU-187" vertex="1">
          <mxGeometry x="40" y="40" width="40" height="40" as="geometry" />
        </mxCell>
        <mxCell id="fpPshk9HtvbqdYG1xlXU-219" value="" style="rounded=0;whiteSpace=wrap;html=1;container=0;" parent="fpPshk9HtvbqdYG1xlXU-187" vertex="1">
          <mxGeometry x="40" y="80" width="40" height="40" as="geometry" />
        </mxCell>
        <mxCell id="fpPshk9HtvbqdYG1xlXU-220" value="" style="rounded=0;whiteSpace=wrap;html=1;container=0;" parent="fpPshk9HtvbqdYG1xlXU-187" vertex="1">
          <mxGeometry x="40" y="120" width="40" height="40" as="geometry" />
        </mxCell>
        <mxCell id="fpPshk9HtvbqdYG1xlXU-221" value="" style="rounded=0;whiteSpace=wrap;html=1;container=0;" parent="fpPshk9HtvbqdYG1xlXU-187" vertex="1">
          <mxGeometry x="40" y="160" width="40" height="40" as="geometry" />
        </mxCell>
        <mxCell id="fpPshk9HtvbqdYG1xlXU-222" value="" style="rounded=0;whiteSpace=wrap;html=1;container=0;" parent="fpPshk9HtvbqdYG1xlXU-187" vertex="1">
          <mxGeometry x="40" y="200" width="40" height="40" as="geometry" />
        </mxCell>
        <mxCell id="fpPshk9HtvbqdYG1xlXU-223" value="&lt;pre&gt;&lt;b&gt;&lt;font style=&quot;font-size: 15px;&quot;&gt;1&lt;/font&gt;&lt;/b&gt;&lt;/pre&gt;" style="text;html=1;strokeColor=none;fillColor=none;align=center;verticalAlign=middle;whiteSpace=wrap;rounded=0;container=0;" parent="fpPshk9HtvbqdYG1xlXU-187" vertex="1">
          <mxGeometry x="80" width="40" height="40" as="geometry" />
        </mxCell>
        <mxCell id="fpPshk9HtvbqdYG1xlXU-224" value="&lt;b&gt;&lt;font style=&quot;font-size: 15px;&quot;&gt;2&lt;/font&gt;&lt;/b&gt;" style="text;html=1;strokeColor=none;fillColor=none;align=center;verticalAlign=middle;whiteSpace=wrap;rounded=0;container=0;" parent="fpPshk9HtvbqdYG1xlXU-187" vertex="1">
          <mxGeometry x="120" width="40" height="40" as="geometry" />
        </mxCell>
        <mxCell id="fpPshk9HtvbqdYG1xlXU-225" value="&lt;font size=&quot;1&quot;&gt;&lt;b style=&quot;font-size: 15px;&quot;&gt;3&lt;/b&gt;&lt;/font&gt;" style="text;html=1;strokeColor=none;fillColor=none;align=center;verticalAlign=middle;whiteSpace=wrap;rounded=0;container=0;" parent="fpPshk9HtvbqdYG1xlXU-187" vertex="1">
          <mxGeometry x="160" width="40" height="40" as="geometry" />
        </mxCell>
        <mxCell id="fpPshk9HtvbqdYG1xlXU-226" value="&lt;b style=&quot;font-size: 15px;&quot;&gt;4&lt;/b&gt;" style="text;html=1;strokeColor=none;fillColor=none;align=center;verticalAlign=middle;whiteSpace=wrap;rounded=0;container=0;" parent="fpPshk9HtvbqdYG1xlXU-187" vertex="1">
          <mxGeometry x="200" width="40" height="40" as="geometry" />
        </mxCell>
        <mxCell id="fpPshk9HtvbqdYG1xlXU-227" value="&lt;font size=&quot;1&quot;&gt;&lt;b style=&quot;font-size: 15px;&quot;&gt;5&lt;/b&gt;&lt;/font&gt;" style="text;html=1;strokeColor=none;fillColor=none;align=center;verticalAlign=middle;whiteSpace=wrap;rounded=0;container=0;" parent="fpPshk9HtvbqdYG1xlXU-187" vertex="1">
          <mxGeometry x="240" width="40" height="40" as="geometry" />
        </mxCell>
        <mxCell id="fpPshk9HtvbqdYG1xlXU-228" value="&lt;font size=&quot;1&quot;&gt;&lt;b style=&quot;font-size: 15px;&quot;&gt;6&lt;/b&gt;&lt;/font&gt;" style="text;html=1;strokeColor=none;fillColor=none;align=center;verticalAlign=middle;whiteSpace=wrap;rounded=0;container=0;" parent="fpPshk9HtvbqdYG1xlXU-187" vertex="1">
          <mxGeometry x="280" width="40" height="40" as="geometry" />
        </mxCell>
        <mxCell id="fpPshk9HtvbqdYG1xlXU-229" value="&lt;font size=&quot;1&quot;&gt;&lt;b style=&quot;font-size: 15px;&quot;&gt;7&lt;/b&gt;&lt;/font&gt;" style="text;html=1;strokeColor=none;fillColor=none;align=center;verticalAlign=middle;whiteSpace=wrap;rounded=0;container=0;" parent="fpPshk9HtvbqdYG1xlXU-187" vertex="1">
          <mxGeometry x="320" width="40" height="40" as="geometry" />
        </mxCell>
        <mxCell id="fpPshk9HtvbqdYG1xlXU-230" value="&lt;pre&gt;&lt;b&gt;&lt;font style=&quot;font-size: 15px;&quot;&gt;1&lt;/font&gt;&lt;/b&gt;&lt;/pre&gt;" style="text;html=1;strokeColor=none;fillColor=none;align=center;verticalAlign=middle;whiteSpace=wrap;rounded=0;container=0;" parent="fpPshk9HtvbqdYG1xlXU-187" vertex="1">
          <mxGeometry y="80" width="40" height="40" as="geometry" />
        </mxCell>
        <mxCell id="fpPshk9HtvbqdYG1xlXU-231" value="&lt;b&gt;&lt;font style=&quot;font-size: 15px;&quot;&gt;2&lt;/font&gt;&lt;/b&gt;" style="text;html=1;strokeColor=none;fillColor=none;align=center;verticalAlign=middle;whiteSpace=wrap;rounded=0;container=0;" parent="fpPshk9HtvbqdYG1xlXU-187" vertex="1">
          <mxGeometry y="120" width="40" height="40" as="geometry" />
        </mxCell>
        <mxCell id="fpPshk9HtvbqdYG1xlXU-232" value="&lt;font size=&quot;1&quot;&gt;&lt;b style=&quot;font-size: 15px;&quot;&gt;3&lt;/b&gt;&lt;/font&gt;" style="text;html=1;strokeColor=none;fillColor=none;align=center;verticalAlign=middle;whiteSpace=wrap;rounded=0;container=0;" parent="fpPshk9HtvbqdYG1xlXU-187" vertex="1">
          <mxGeometry y="160" width="40" height="40" as="geometry" />
        </mxCell>
        <mxCell id="fpPshk9HtvbqdYG1xlXU-233" value="&lt;b style=&quot;font-size: 15px;&quot;&gt;4&lt;/b&gt;" style="text;html=1;strokeColor=none;fillColor=none;align=center;verticalAlign=middle;whiteSpace=wrap;rounded=0;container=0;" parent="fpPshk9HtvbqdYG1xlXU-187" vertex="1">
          <mxGeometry y="200" width="40" height="40" as="geometry" />
        </mxCell>
        <mxCell id="fpPshk9HtvbqdYG1xlXU-234" value="&lt;font size=&quot;1&quot;&gt;&lt;b style=&quot;font-size: 15px;&quot;&gt;5&lt;/b&gt;&lt;/font&gt;" style="text;html=1;strokeColor=none;fillColor=none;align=center;verticalAlign=middle;whiteSpace=wrap;rounded=0;container=0;" parent="fpPshk9HtvbqdYG1xlXU-187" vertex="1">
          <mxGeometry y="240" width="40" height="40" as="geometry" />
        </mxCell>
        <mxCell id="fpPshk9HtvbqdYG1xlXU-235" value="" style="rounded=0;whiteSpace=wrap;html=1;container=0;" parent="fpPshk9HtvbqdYG1xlXU-187" vertex="1">
          <mxGeometry x="320" y="40" width="40" height="40" as="geometry" />
        </mxCell>
        <mxCell id="fpPshk9HtvbqdYG1xlXU-236" value="" style="rounded=0;whiteSpace=wrap;html=1;container=0;" parent="fpPshk9HtvbqdYG1xlXU-187" vertex="1">
          <mxGeometry x="320" y="80" width="40" height="40" as="geometry" />
        </mxCell>
        <mxCell id="fpPshk9HtvbqdYG1xlXU-237" value="" style="rounded=0;whiteSpace=wrap;html=1;container=0;" parent="fpPshk9HtvbqdYG1xlXU-187" vertex="1">
          <mxGeometry x="320" y="120" width="40" height="40" as="geometry" />
        </mxCell>
        <mxCell id="fpPshk9HtvbqdYG1xlXU-238" value="" style="rounded=0;whiteSpace=wrap;html=1;container=0;" parent="fpPshk9HtvbqdYG1xlXU-187" vertex="1">
          <mxGeometry x="320" y="160" width="40" height="40" as="geometry" />
        </mxCell>
        <mxCell id="fpPshk9HtvbqdYG1xlXU-239" value="" style="rounded=0;whiteSpace=wrap;html=1;container=0;" parent="fpPshk9HtvbqdYG1xlXU-187" vertex="1">
          <mxGeometry x="320" y="200" width="40" height="40" as="geometry" />
        </mxCell>
        <mxCell id="fpPshk9HtvbqdYG1xlXU-240" value="" style="rounded=0;whiteSpace=wrap;html=1;container=0;" parent="fpPshk9HtvbqdYG1xlXU-187" vertex="1">
          <mxGeometry x="240" y="240" width="40" height="40" as="geometry" />
        </mxCell>
        <mxCell id="fpPshk9HtvbqdYG1xlXU-241" value="" style="rounded=0;whiteSpace=wrap;html=1;container=0;" parent="fpPshk9HtvbqdYG1xlXU-187" vertex="1">
          <mxGeometry x="280" y="240" width="40" height="40" as="geometry" />
        </mxCell>
        <mxCell id="fpPshk9HtvbqdYG1xlXU-242" value="" style="rounded=0;whiteSpace=wrap;html=1;container=0;" parent="fpPshk9HtvbqdYG1xlXU-187" vertex="1">
          <mxGeometry x="160" y="240" width="40" height="40" as="geometry" />
        </mxCell>
        <mxCell id="fpPshk9HtvbqdYG1xlXU-243" value="" style="rounded=0;whiteSpace=wrap;html=1;container=0;" parent="fpPshk9HtvbqdYG1xlXU-187" vertex="1">
          <mxGeometry x="200" y="240" width="40" height="40" as="geometry" />
        </mxCell>
        <mxCell id="fpPshk9HtvbqdYG1xlXU-244" value="" style="rounded=0;whiteSpace=wrap;html=1;container=0;fillColor=#dae8fc;strokeColor=#6c8ebf;" parent="fpPshk9HtvbqdYG1xlXU-187" vertex="1">
          <mxGeometry x="80" y="240" width="40" height="40" as="geometry" />
        </mxCell>
        <mxCell id="fpPshk9HtvbqdYG1xlXU-245" value="" style="rounded=0;whiteSpace=wrap;html=1;container=0;fillColor=#dae8fc;strokeColor=#6c8ebf;" parent="fpPshk9HtvbqdYG1xlXU-187" vertex="1">
          <mxGeometry x="120" y="240" width="40" height="40" as="geometry" />
        </mxCell>
        <mxCell id="fpPshk9HtvbqdYG1xlXU-246" value="" style="rounded=0;whiteSpace=wrap;html=1;container=0;fillColor=#dae8fc;strokeColor=#6c8ebf;" parent="fpPshk9HtvbqdYG1xlXU-187" vertex="1">
          <mxGeometry x="40" y="240" width="40" height="40" as="geometry" />
        </mxCell>
        <mxCell id="fpPshk9HtvbqdYG1xlXU-247" value="" style="rounded=0;whiteSpace=wrap;html=1;container=0;" parent="fpPshk9HtvbqdYG1xlXU-187" vertex="1">
          <mxGeometry x="320" y="240" width="40" height="40" as="geometry" />
        </mxCell>
        <mxCell id="fpPshk9HtvbqdYG1xlXU-248" value="&lt;pre&gt;&lt;b&gt;&lt;font style=&quot;font-size: 15px;&quot;&gt;0&lt;/font&gt;&lt;/b&gt;&lt;/pre&gt;" style="text;html=1;strokeColor=none;fillColor=none;align=center;verticalAlign=middle;whiteSpace=wrap;rounded=0;container=0;" parent="fpPshk9HtvbqdYG1xlXU-187" vertex="1">
          <mxGeometry x="40" width="40" height="40" as="geometry" />
        </mxCell>
        <mxCell id="fpPshk9HtvbqdYG1xlXU-249" value="&lt;pre&gt;&lt;b&gt;&lt;font style=&quot;font-size: 15px;&quot;&gt;0&lt;/font&gt;&lt;/b&gt;&lt;/pre&gt;" style="text;html=1;strokeColor=none;fillColor=none;align=center;verticalAlign=middle;whiteSpace=wrap;rounded=0;container=0;" parent="fpPshk9HtvbqdYG1xlXU-187" vertex="1">
          <mxGeometry y="40" width="40" height="40" as="geometry" />
        </mxCell>
        <mxCell id="fpPshk9HtvbqdYG1xlXU-250" value="&lt;pre&gt;&lt;b&gt;ColdRoom&lt;/b&gt;&lt;/pre&gt;" style="text;html=1;strokeColor=none;fillColor=none;align=center;verticalAlign=middle;whiteSpace=wrap;rounded=0;" parent="fpPshk9HtvbqdYG1xlXU-187" vertex="1">
          <mxGeometry x="210" y="110" width="60" height="30" as="geometry" />
        </mxCell>
        <mxCell id="fpPshk9HtvbqdYG1xlXU-251" value="&lt;pre&gt;&lt;b&gt;Indoor&lt;/b&gt;&lt;/pre&gt;" style="text;html=1;strokeColor=none;fillColor=none;align=center;verticalAlign=middle;whiteSpace=wrap;rounded=0;" parent="fpPshk9HtvbqdYG1xlXU-187" vertex="1">
          <mxGeometry x="90" y="245" width="60" height="30" as="geometry" />
        </mxCell>
        <mxCell id="fpPshk9HtvbqdYG1xlXU-252" value="&lt;b&gt;Home&lt;/b&gt;" style="text;html=1;strokeColor=none;fillColor=none;align=center;verticalAlign=middle;whiteSpace=wrap;rounded=0;" parent="fpPshk9HtvbqdYG1xlXU-187" vertex="1">
          <mxGeometry x="30" y="45" width="60" height="30" as="geometry" />
        </mxCell>
        <mxCell id="fpPshk9HtvbqdYG1xlXU-253" value="" style="shape=image;html=1;verticalAlign=top;verticalLabelPosition=bottom;labelBackgroundColor=#ffffff;imageAspect=0;aspect=fixed;image=https://cdn1.iconfinder.com/data/icons/unicons-line-vol-5/24/robot-128.png" parent="fpPshk9HtvbqdYG1xlXU-187" vertex="1">
          <mxGeometry x="40" y="235" width="45" height="45" as="geometry" />
        </mxCell>
        <mxCell id="fpPshk9HtvbqdYG1xlXU-254" value="" style="endArrow=classic;html=1;rounded=0;entryX=1;entryY=0;entryDx=0;entryDy=0;fillColor=#e1d5e7;strokeColor=#9673a6;strokeWidth=4;" parent="fpPshk9HtvbqdYG1xlXU-187" target="fpPshk9HtvbqdYG1xlXU-201" edge="1">
          <mxGeometry width="50" height="50" relative="1" as="geometry">
            <mxPoint x="80" y="240" as="sourcePoint" />
            <mxPoint x="130" y="190" as="targetPoint" />
          </mxGeometry>
        </mxCell>
        <mxCell id="fpPshk9HtvbqdYG1xlXU-255" value="" style="group" parent="1" vertex="1" connectable="0">
          <mxGeometry x="220" y="1000" width="360" height="280" as="geometry" />
        </mxCell>
        <mxCell id="fpPshk9HtvbqdYG1xlXU-256" value="" style="rounded=0;whiteSpace=wrap;html=1;container=0;" parent="fpPshk9HtvbqdYG1xlXU-255" vertex="1">
          <mxGeometry x="240" y="40" width="40" height="40" as="geometry" />
        </mxCell>
        <mxCell id="fpPshk9HtvbqdYG1xlXU-257" value="" style="rounded=0;whiteSpace=wrap;html=1;container=0;fillColor=#d5e8d4;strokeColor=#82b366;" parent="fpPshk9HtvbqdYG1xlXU-255" vertex="1">
          <mxGeometry x="240" y="80" width="40" height="40" as="geometry" />
        </mxCell>
        <mxCell id="fpPshk9HtvbqdYG1xlXU-258" value="" style="rounded=0;whiteSpace=wrap;html=1;container=0;fillColor=#d5e8d4;strokeColor=#82b366;" parent="fpPshk9HtvbqdYG1xlXU-255" vertex="1">
          <mxGeometry x="240" y="120" width="40" height="40" as="geometry" />
        </mxCell>
        <mxCell id="fpPshk9HtvbqdYG1xlXU-259" value="" style="rounded=0;whiteSpace=wrap;html=1;container=0;" parent="fpPshk9HtvbqdYG1xlXU-255" vertex="1">
          <mxGeometry x="240" y="160" width="40" height="40" as="geometry" />
        </mxCell>
        <mxCell id="fpPshk9HtvbqdYG1xlXU-260" value="" style="rounded=0;whiteSpace=wrap;html=1;container=0;" parent="fpPshk9HtvbqdYG1xlXU-255" vertex="1">
          <mxGeometry x="240" y="200" width="40" height="40" as="geometry" />
        </mxCell>
        <mxCell id="fpPshk9HtvbqdYG1xlXU-261" value="" style="rounded=0;whiteSpace=wrap;html=1;container=0;" parent="fpPshk9HtvbqdYG1xlXU-255" vertex="1">
          <mxGeometry x="280" y="40" width="40" height="40" as="geometry" />
        </mxCell>
        <mxCell id="fpPshk9HtvbqdYG1xlXU-262" value="" style="rounded=0;whiteSpace=wrap;html=1;container=0;" parent="fpPshk9HtvbqdYG1xlXU-255" vertex="1">
          <mxGeometry x="280" y="80" width="40" height="40" as="geometry" />
        </mxCell>
        <mxCell id="fpPshk9HtvbqdYG1xlXU-263" value="" style="rounded=0;whiteSpace=wrap;html=1;container=0;" parent="fpPshk9HtvbqdYG1xlXU-255" vertex="1">
          <mxGeometry x="280" y="120" width="40" height="40" as="geometry" />
        </mxCell>
        <mxCell id="fpPshk9HtvbqdYG1xlXU-264" value="" style="rounded=0;whiteSpace=wrap;html=1;container=0;" parent="fpPshk9HtvbqdYG1xlXU-255" vertex="1">
          <mxGeometry x="280" y="160" width="40" height="40" as="geometry" />
        </mxCell>
        <mxCell id="fpPshk9HtvbqdYG1xlXU-265" value="" style="rounded=0;whiteSpace=wrap;html=1;container=0;" parent="fpPshk9HtvbqdYG1xlXU-255" vertex="1">
          <mxGeometry x="280" y="200" width="40" height="40" as="geometry" />
        </mxCell>
        <mxCell id="fpPshk9HtvbqdYG1xlXU-266" value="" style="rounded=0;whiteSpace=wrap;html=1;container=0;" parent="fpPshk9HtvbqdYG1xlXU-255" vertex="1">
          <mxGeometry x="160" y="40" width="40" height="40" as="geometry" />
        </mxCell>
        <mxCell id="fpPshk9HtvbqdYG1xlXU-267" value="" style="rounded=0;whiteSpace=wrap;html=1;container=0;" parent="fpPshk9HtvbqdYG1xlXU-255" vertex="1">
          <mxGeometry x="160" y="80" width="40" height="40" as="geometry" />
        </mxCell>
        <mxCell id="fpPshk9HtvbqdYG1xlXU-268" value="" style="rounded=0;whiteSpace=wrap;html=1;container=0;" parent="fpPshk9HtvbqdYG1xlXU-255" vertex="1">
          <mxGeometry x="160" y="120" width="40" height="40" as="geometry" />
        </mxCell>
        <mxCell id="fpPshk9HtvbqdYG1xlXU-269" value="" style="rounded=0;whiteSpace=wrap;html=1;container=0;" parent="fpPshk9HtvbqdYG1xlXU-255" vertex="1">
          <mxGeometry x="160" y="160" width="40" height="40" as="geometry" />
        </mxCell>
        <mxCell id="fpPshk9HtvbqdYG1xlXU-270" value="" style="rounded=0;whiteSpace=wrap;html=1;container=0;" parent="fpPshk9HtvbqdYG1xlXU-255" vertex="1">
          <mxGeometry x="160" y="200" width="40" height="40" as="geometry" />
        </mxCell>
        <mxCell id="fpPshk9HtvbqdYG1xlXU-271" value="" style="rounded=0;whiteSpace=wrap;html=1;container=0;" parent="fpPshk9HtvbqdYG1xlXU-255" vertex="1">
          <mxGeometry x="200" y="40" width="40" height="40" as="geometry" />
        </mxCell>
        <mxCell id="fpPshk9HtvbqdYG1xlXU-272" value="" style="rounded=0;whiteSpace=wrap;html=1;container=0;fillColor=#d5e8d4;strokeColor=#82b366;" parent="fpPshk9HtvbqdYG1xlXU-255" vertex="1">
          <mxGeometry x="200" y="80" width="40" height="40" as="geometry" />
        </mxCell>
        <mxCell id="fpPshk9HtvbqdYG1xlXU-273" value="" style="rounded=0;whiteSpace=wrap;html=1;container=0;fillColor=#d5e8d4;strokeColor=#82b366;" parent="fpPshk9HtvbqdYG1xlXU-255" vertex="1">
          <mxGeometry x="200" y="120" width="40" height="40" as="geometry" />
        </mxCell>
        <mxCell id="fpPshk9HtvbqdYG1xlXU-274" value="" style="rounded=0;whiteSpace=wrap;html=1;container=0;" parent="fpPshk9HtvbqdYG1xlXU-255" vertex="1">
          <mxGeometry x="200" y="160" width="40" height="40" as="geometry" />
        </mxCell>
        <mxCell id="fpPshk9HtvbqdYG1xlXU-275" value="" style="rounded=0;whiteSpace=wrap;html=1;container=0;" parent="fpPshk9HtvbqdYG1xlXU-255" vertex="1">
          <mxGeometry x="200" y="200" width="40" height="40" as="geometry" />
        </mxCell>
        <mxCell id="fpPshk9HtvbqdYG1xlXU-276" value="" style="rounded=0;whiteSpace=wrap;html=1;container=0;" parent="fpPshk9HtvbqdYG1xlXU-255" vertex="1">
          <mxGeometry x="80" y="40" width="40" height="40" as="geometry" />
        </mxCell>
        <mxCell id="fpPshk9HtvbqdYG1xlXU-277" value="" style="rounded=0;whiteSpace=wrap;html=1;container=0;" parent="fpPshk9HtvbqdYG1xlXU-255" vertex="1">
          <mxGeometry x="80" y="80" width="40" height="40" as="geometry" />
        </mxCell>
        <mxCell id="fpPshk9HtvbqdYG1xlXU-278" value="" style="rounded=0;whiteSpace=wrap;html=1;container=0;" parent="fpPshk9HtvbqdYG1xlXU-255" vertex="1">
          <mxGeometry x="80" y="120" width="40" height="40" as="geometry" />
        </mxCell>
        <mxCell id="fpPshk9HtvbqdYG1xlXU-279" value="" style="rounded=0;whiteSpace=wrap;html=1;container=0;" parent="fpPshk9HtvbqdYG1xlXU-255" vertex="1">
          <mxGeometry x="80" y="160" width="40" height="40" as="geometry" />
        </mxCell>
        <mxCell id="fpPshk9HtvbqdYG1xlXU-280" value="" style="rounded=0;whiteSpace=wrap;html=1;container=0;" parent="fpPshk9HtvbqdYG1xlXU-255" vertex="1">
          <mxGeometry x="80" y="200" width="40" height="40" as="geometry" />
        </mxCell>
        <mxCell id="fpPshk9HtvbqdYG1xlXU-281" value="" style="rounded=0;whiteSpace=wrap;html=1;container=0;" parent="fpPshk9HtvbqdYG1xlXU-255" vertex="1">
          <mxGeometry x="120" y="40" width="40" height="40" as="geometry" />
        </mxCell>
        <mxCell id="fpPshk9HtvbqdYG1xlXU-282" value="" style="rounded=0;whiteSpace=wrap;html=1;container=0;" parent="fpPshk9HtvbqdYG1xlXU-255" vertex="1">
          <mxGeometry x="120" y="80" width="40" height="40" as="geometry" />
        </mxCell>
        <mxCell id="fpPshk9HtvbqdYG1xlXU-283" value="" style="rounded=0;whiteSpace=wrap;html=1;container=0;" parent="fpPshk9HtvbqdYG1xlXU-255" vertex="1">
          <mxGeometry x="120" y="120" width="40" height="40" as="geometry" />
        </mxCell>
        <mxCell id="fpPshk9HtvbqdYG1xlXU-284" value="" style="rounded=0;whiteSpace=wrap;html=1;container=0;" parent="fpPshk9HtvbqdYG1xlXU-255" vertex="1">
          <mxGeometry x="120" y="160" width="40" height="40" as="geometry" />
        </mxCell>
        <mxCell id="fpPshk9HtvbqdYG1xlXU-285" value="" style="rounded=0;whiteSpace=wrap;html=1;container=0;" parent="fpPshk9HtvbqdYG1xlXU-255" vertex="1">
          <mxGeometry x="120" y="200" width="40" height="40" as="geometry" />
        </mxCell>
        <mxCell id="fpPshk9HtvbqdYG1xlXU-286" value="" style="rounded=0;whiteSpace=wrap;html=1;container=0;fillColor=#f8cecc;strokeColor=#b85450;" parent="fpPshk9HtvbqdYG1xlXU-255" vertex="1">
          <mxGeometry x="40" y="40" width="40" height="40" as="geometry" />
        </mxCell>
        <mxCell id="fpPshk9HtvbqdYG1xlXU-287" value="" style="rounded=0;whiteSpace=wrap;html=1;container=0;" parent="fpPshk9HtvbqdYG1xlXU-255" vertex="1">
          <mxGeometry x="40" y="80" width="40" height="40" as="geometry" />
        </mxCell>
        <mxCell id="fpPshk9HtvbqdYG1xlXU-288" value="" style="rounded=0;whiteSpace=wrap;html=1;container=0;" parent="fpPshk9HtvbqdYG1xlXU-255" vertex="1">
          <mxGeometry x="40" y="120" width="40" height="40" as="geometry" />
        </mxCell>
        <mxCell id="fpPshk9HtvbqdYG1xlXU-289" value="" style="rounded=0;whiteSpace=wrap;html=1;container=0;" parent="fpPshk9HtvbqdYG1xlXU-255" vertex="1">
          <mxGeometry x="40" y="160" width="40" height="40" as="geometry" />
        </mxCell>
        <mxCell id="fpPshk9HtvbqdYG1xlXU-290" value="" style="rounded=0;whiteSpace=wrap;html=1;container=0;" parent="fpPshk9HtvbqdYG1xlXU-255" vertex="1">
          <mxGeometry x="40" y="200" width="40" height="40" as="geometry" />
        </mxCell>
        <mxCell id="fpPshk9HtvbqdYG1xlXU-291" value="&lt;pre&gt;&lt;b&gt;&lt;font style=&quot;font-size: 15px;&quot;&gt;1&lt;/font&gt;&lt;/b&gt;&lt;/pre&gt;" style="text;html=1;strokeColor=none;fillColor=none;align=center;verticalAlign=middle;whiteSpace=wrap;rounded=0;container=0;" parent="fpPshk9HtvbqdYG1xlXU-255" vertex="1">
          <mxGeometry x="80" width="40" height="40" as="geometry" />
        </mxCell>
        <mxCell id="fpPshk9HtvbqdYG1xlXU-292" value="&lt;b&gt;&lt;font style=&quot;font-size: 15px;&quot;&gt;2&lt;/font&gt;&lt;/b&gt;" style="text;html=1;strokeColor=none;fillColor=none;align=center;verticalAlign=middle;whiteSpace=wrap;rounded=0;container=0;" parent="fpPshk9HtvbqdYG1xlXU-255" vertex="1">
          <mxGeometry x="120" width="40" height="40" as="geometry" />
        </mxCell>
        <mxCell id="fpPshk9HtvbqdYG1xlXU-293" value="&lt;font size=&quot;1&quot;&gt;&lt;b style=&quot;font-size: 15px;&quot;&gt;3&lt;/b&gt;&lt;/font&gt;" style="text;html=1;strokeColor=none;fillColor=none;align=center;verticalAlign=middle;whiteSpace=wrap;rounded=0;container=0;" parent="fpPshk9HtvbqdYG1xlXU-255" vertex="1">
          <mxGeometry x="160" width="40" height="40" as="geometry" />
        </mxCell>
        <mxCell id="fpPshk9HtvbqdYG1xlXU-294" value="&lt;b style=&quot;font-size: 15px;&quot;&gt;4&lt;/b&gt;" style="text;html=1;strokeColor=none;fillColor=none;align=center;verticalAlign=middle;whiteSpace=wrap;rounded=0;container=0;" parent="fpPshk9HtvbqdYG1xlXU-255" vertex="1">
          <mxGeometry x="200" width="40" height="40" as="geometry" />
        </mxCell>
        <mxCell id="fpPshk9HtvbqdYG1xlXU-295" value="&lt;font size=&quot;1&quot;&gt;&lt;b style=&quot;font-size: 15px;&quot;&gt;5&lt;/b&gt;&lt;/font&gt;" style="text;html=1;strokeColor=none;fillColor=none;align=center;verticalAlign=middle;whiteSpace=wrap;rounded=0;container=0;" parent="fpPshk9HtvbqdYG1xlXU-255" vertex="1">
          <mxGeometry x="240" width="40" height="40" as="geometry" />
        </mxCell>
        <mxCell id="fpPshk9HtvbqdYG1xlXU-296" value="&lt;font size=&quot;1&quot;&gt;&lt;b style=&quot;font-size: 15px;&quot;&gt;6&lt;/b&gt;&lt;/font&gt;" style="text;html=1;strokeColor=none;fillColor=none;align=center;verticalAlign=middle;whiteSpace=wrap;rounded=0;container=0;" parent="fpPshk9HtvbqdYG1xlXU-255" vertex="1">
          <mxGeometry x="280" width="40" height="40" as="geometry" />
        </mxCell>
        <mxCell id="fpPshk9HtvbqdYG1xlXU-297" value="&lt;font size=&quot;1&quot;&gt;&lt;b style=&quot;font-size: 15px;&quot;&gt;7&lt;/b&gt;&lt;/font&gt;" style="text;html=1;strokeColor=none;fillColor=none;align=center;verticalAlign=middle;whiteSpace=wrap;rounded=0;container=0;" parent="fpPshk9HtvbqdYG1xlXU-255" vertex="1">
          <mxGeometry x="320" width="40" height="40" as="geometry" />
        </mxCell>
        <mxCell id="fpPshk9HtvbqdYG1xlXU-298" value="&lt;pre&gt;&lt;b&gt;&lt;font style=&quot;font-size: 15px;&quot;&gt;1&lt;/font&gt;&lt;/b&gt;&lt;/pre&gt;" style="text;html=1;strokeColor=none;fillColor=none;align=center;verticalAlign=middle;whiteSpace=wrap;rounded=0;container=0;" parent="fpPshk9HtvbqdYG1xlXU-255" vertex="1">
          <mxGeometry y="80" width="40" height="40" as="geometry" />
        </mxCell>
        <mxCell id="fpPshk9HtvbqdYG1xlXU-299" value="&lt;b&gt;&lt;font style=&quot;font-size: 15px;&quot;&gt;2&lt;/font&gt;&lt;/b&gt;" style="text;html=1;strokeColor=none;fillColor=none;align=center;verticalAlign=middle;whiteSpace=wrap;rounded=0;container=0;" parent="fpPshk9HtvbqdYG1xlXU-255" vertex="1">
          <mxGeometry y="120" width="40" height="40" as="geometry" />
        </mxCell>
        <mxCell id="fpPshk9HtvbqdYG1xlXU-300" value="&lt;font size=&quot;1&quot;&gt;&lt;b style=&quot;font-size: 15px;&quot;&gt;3&lt;/b&gt;&lt;/font&gt;" style="text;html=1;strokeColor=none;fillColor=none;align=center;verticalAlign=middle;whiteSpace=wrap;rounded=0;container=0;" parent="fpPshk9HtvbqdYG1xlXU-255" vertex="1">
          <mxGeometry y="160" width="40" height="40" as="geometry" />
        </mxCell>
        <mxCell id="fpPshk9HtvbqdYG1xlXU-301" value="&lt;b style=&quot;font-size: 15px;&quot;&gt;4&lt;/b&gt;" style="text;html=1;strokeColor=none;fillColor=none;align=center;verticalAlign=middle;whiteSpace=wrap;rounded=0;container=0;" parent="fpPshk9HtvbqdYG1xlXU-255" vertex="1">
          <mxGeometry y="200" width="40" height="40" as="geometry" />
        </mxCell>
        <mxCell id="fpPshk9HtvbqdYG1xlXU-302" value="&lt;font size=&quot;1&quot;&gt;&lt;b style=&quot;font-size: 15px;&quot;&gt;5&lt;/b&gt;&lt;/font&gt;" style="text;html=1;strokeColor=none;fillColor=none;align=center;verticalAlign=middle;whiteSpace=wrap;rounded=0;container=0;" parent="fpPshk9HtvbqdYG1xlXU-255" vertex="1">
          <mxGeometry y="240" width="40" height="40" as="geometry" />
        </mxCell>
        <mxCell id="fpPshk9HtvbqdYG1xlXU-303" value="" style="rounded=0;whiteSpace=wrap;html=1;container=0;" parent="fpPshk9HtvbqdYG1xlXU-255" vertex="1">
          <mxGeometry x="320" y="40" width="40" height="40" as="geometry" />
        </mxCell>
        <mxCell id="fpPshk9HtvbqdYG1xlXU-304" value="" style="rounded=0;whiteSpace=wrap;html=1;container=0;" parent="fpPshk9HtvbqdYG1xlXU-255" vertex="1">
          <mxGeometry x="320" y="80" width="40" height="40" as="geometry" />
        </mxCell>
        <mxCell id="fpPshk9HtvbqdYG1xlXU-305" value="" style="rounded=0;whiteSpace=wrap;html=1;container=0;" parent="fpPshk9HtvbqdYG1xlXU-255" vertex="1">
          <mxGeometry x="320" y="120" width="40" height="40" as="geometry" />
        </mxCell>
        <mxCell id="fpPshk9HtvbqdYG1xlXU-306" value="" style="rounded=0;whiteSpace=wrap;html=1;container=0;" parent="fpPshk9HtvbqdYG1xlXU-255" vertex="1">
          <mxGeometry x="320" y="160" width="40" height="40" as="geometry" />
        </mxCell>
        <mxCell id="fpPshk9HtvbqdYG1xlXU-307" value="" style="rounded=0;whiteSpace=wrap;html=1;container=0;" parent="fpPshk9HtvbqdYG1xlXU-255" vertex="1">
          <mxGeometry x="320" y="200" width="40" height="40" as="geometry" />
        </mxCell>
        <mxCell id="fpPshk9HtvbqdYG1xlXU-308" value="" style="rounded=0;whiteSpace=wrap;html=1;container=0;" parent="fpPshk9HtvbqdYG1xlXU-255" vertex="1">
          <mxGeometry x="240" y="240" width="40" height="40" as="geometry" />
        </mxCell>
        <mxCell id="fpPshk9HtvbqdYG1xlXU-309" value="" style="rounded=0;whiteSpace=wrap;html=1;container=0;" parent="fpPshk9HtvbqdYG1xlXU-255" vertex="1">
          <mxGeometry x="280" y="240" width="40" height="40" as="geometry" />
        </mxCell>
        <mxCell id="fpPshk9HtvbqdYG1xlXU-310" value="" style="rounded=0;whiteSpace=wrap;html=1;container=0;" parent="fpPshk9HtvbqdYG1xlXU-255" vertex="1">
          <mxGeometry x="160" y="240" width="40" height="40" as="geometry" />
        </mxCell>
        <mxCell id="fpPshk9HtvbqdYG1xlXU-311" value="" style="rounded=0;whiteSpace=wrap;html=1;container=0;" parent="fpPshk9HtvbqdYG1xlXU-255" vertex="1">
          <mxGeometry x="200" y="240" width="40" height="40" as="geometry" />
        </mxCell>
        <mxCell id="fpPshk9HtvbqdYG1xlXU-312" value="" style="rounded=0;whiteSpace=wrap;html=1;container=0;fillColor=#dae8fc;strokeColor=#6c8ebf;" parent="fpPshk9HtvbqdYG1xlXU-255" vertex="1">
          <mxGeometry x="80" y="240" width="40" height="40" as="geometry" />
        </mxCell>
        <mxCell id="fpPshk9HtvbqdYG1xlXU-313" value="" style="rounded=0;whiteSpace=wrap;html=1;container=0;fillColor=#dae8fc;strokeColor=#6c8ebf;" parent="fpPshk9HtvbqdYG1xlXU-255" vertex="1">
          <mxGeometry x="120" y="240" width="40" height="40" as="geometry" />
        </mxCell>
        <mxCell id="fpPshk9HtvbqdYG1xlXU-314" value="" style="rounded=0;whiteSpace=wrap;html=1;container=0;fillColor=#dae8fc;strokeColor=#6c8ebf;" parent="fpPshk9HtvbqdYG1xlXU-255" vertex="1">
          <mxGeometry x="40" y="240" width="40" height="40" as="geometry" />
        </mxCell>
        <mxCell id="fpPshk9HtvbqdYG1xlXU-315" value="" style="rounded=0;whiteSpace=wrap;html=1;container=0;" parent="fpPshk9HtvbqdYG1xlXU-255" vertex="1">
          <mxGeometry x="320" y="240" width="40" height="40" as="geometry" />
        </mxCell>
        <mxCell id="fpPshk9HtvbqdYG1xlXU-316" value="&lt;pre&gt;&lt;b&gt;&lt;font style=&quot;font-size: 15px;&quot;&gt;0&lt;/font&gt;&lt;/b&gt;&lt;/pre&gt;" style="text;html=1;strokeColor=none;fillColor=none;align=center;verticalAlign=middle;whiteSpace=wrap;rounded=0;container=0;" parent="fpPshk9HtvbqdYG1xlXU-255" vertex="1">
          <mxGeometry x="40" width="40" height="40" as="geometry" />
        </mxCell>
        <mxCell id="fpPshk9HtvbqdYG1xlXU-317" value="&lt;pre&gt;&lt;b&gt;&lt;font style=&quot;font-size: 15px;&quot;&gt;0&lt;/font&gt;&lt;/b&gt;&lt;/pre&gt;" style="text;html=1;strokeColor=none;fillColor=none;align=center;verticalAlign=middle;whiteSpace=wrap;rounded=0;container=0;" parent="fpPshk9HtvbqdYG1xlXU-255" vertex="1">
          <mxGeometry y="40" width="40" height="40" as="geometry" />
        </mxCell>
        <mxCell id="fpPshk9HtvbqdYG1xlXU-318" value="&lt;pre&gt;&lt;b&gt;ColdRoom&lt;/b&gt;&lt;/pre&gt;" style="text;html=1;strokeColor=none;fillColor=none;align=center;verticalAlign=middle;whiteSpace=wrap;rounded=0;" parent="fpPshk9HtvbqdYG1xlXU-255" vertex="1">
          <mxGeometry x="210" y="110" width="60" height="30" as="geometry" />
        </mxCell>
        <mxCell id="fpPshk9HtvbqdYG1xlXU-319" value="&lt;pre&gt;&lt;b&gt;Indoor&lt;/b&gt;&lt;/pre&gt;" style="text;html=1;strokeColor=none;fillColor=none;align=center;verticalAlign=middle;whiteSpace=wrap;rounded=0;" parent="fpPshk9HtvbqdYG1xlXU-255" vertex="1">
          <mxGeometry x="90" y="245" width="60" height="30" as="geometry" />
        </mxCell>
        <mxCell id="fpPshk9HtvbqdYG1xlXU-320" value="&lt;b&gt;Home&lt;/b&gt;" style="text;html=1;strokeColor=none;fillColor=none;align=center;verticalAlign=middle;whiteSpace=wrap;rounded=0;" parent="fpPshk9HtvbqdYG1xlXU-255" vertex="1">
          <mxGeometry x="30" y="45" width="60" height="30" as="geometry" />
        </mxCell>
        <mxCell id="fpPshk9HtvbqdYG1xlXU-321" value="" style="shape=image;html=1;verticalAlign=top;verticalLabelPosition=bottom;labelBackgroundColor=#ffffff;imageAspect=0;aspect=fixed;image=https://cdn1.iconfinder.com/data/icons/unicons-line-vol-5/24/robot-128.png" parent="fpPshk9HtvbqdYG1xlXU-255" vertex="1">
          <mxGeometry x="40" y="235" width="45" height="45" as="geometry" />
        </mxCell>
        <mxCell id="fpPshk9HtvbqdYG1xlXU-322" value="" style="endArrow=classic;html=1;rounded=0;entryX=1;entryY=0.5;entryDx=0;entryDy=0;fillColor=#e1d5e7;strokeColor=#9673a6;strokeWidth=4;exitX=0.444;exitY=0.111;exitDx=0;exitDy=0;exitPerimeter=0;" parent="fpPshk9HtvbqdYG1xlXU-255" source="fpPshk9HtvbqdYG1xlXU-321" target="fpPshk9HtvbqdYG1xlXU-268" edge="1">
          <mxGeometry width="50" height="50" relative="1" as="geometry">
            <mxPoint x="80" y="240" as="sourcePoint" />
            <mxPoint x="130" y="190" as="targetPoint" />
            <Array as="points">
              <mxPoint x="60" y="220" />
              <mxPoint x="60" y="200" />
              <mxPoint x="80" y="200" />
              <mxPoint x="100" y="200" />
              <mxPoint x="100" y="180" />
              <mxPoint x="100" y="160" />
              <mxPoint x="110" y="160" />
              <mxPoint x="120" y="160" />
              <mxPoint x="140" y="160" />
              <mxPoint x="140" y="140" />
            </Array>
          </mxGeometry>
        </mxCell>
      </root>
    </mxGraphModel>
  </diagram>
  <diagram id="XpJlF8Oi980x1YEHppnr" name="core">
    <mxGraphModel dx="712" dy="773" grid="1" gridSize="10" guides="1" tooltips="1" connect="1" arrows="1" fold="1" page="1" pageScale="1" pageWidth="827" pageHeight="1169" math="0" shadow="0">
      <root>
        <mxCell id="0" />
        <mxCell id="1" parent="0" />
        <mxCell id="Zij0jtWlIRIiea6RquH1-1" value="ColdStorageServiceCore" style="rounded=0;whiteSpace=wrap;html=1;" parent="1" vertex="1">
          <mxGeometry x="40.87" y="71" width="143.13" height="40" as="geometry" />
        </mxCell>
        <mxCell id="Zij0jtWlIRIiea6RquH1-2" value="TransportTrolleyCore" style="rounded=0;whiteSpace=wrap;html=1;" parent="1" vertex="1">
          <mxGeometry x="236.87" y="71" width="130" height="40" as="geometry" />
        </mxCell>
        <mxCell id="Zij0jtWlIRIiea6RquH1-3" value="TransportTrolleyMover" style="rounded=0;whiteSpace=wrap;html=1;" parent="1" vertex="1">
          <mxGeometry x="413.87" y="71" width="123" height="40" as="geometry" />
        </mxCell>
        <mxCell id="Zij0jtWlIRIiea6RquH1-4" value="TransportTrolleyExecutor" style="rounded=0;whiteSpace=wrap;html=1;" parent="1" vertex="1">
          <mxGeometry x="572.87" y="71" width="153.13" height="40" as="geometry" />
        </mxCell>
        <mxCell id="Zij0jtWlIRIiea6RquH1-5" value="Attore" style="shape=parallelogram;perimeter=parallelogramPerimeter;whiteSpace=wrap;html=1;fixedSize=1;" parent="1" vertex="1">
          <mxGeometry x="56.870000000000005" y="31" width="120" height="20" as="geometry" />
        </mxCell>
        <mxCell id="Zij0jtWlIRIiea6RquH1-6" value="Attore" style="shape=parallelogram;perimeter=parallelogramPerimeter;whiteSpace=wrap;html=1;fixedSize=1;" parent="1" vertex="1">
          <mxGeometry x="246.87" y="30" width="120" height="20" as="geometry" />
        </mxCell>
        <mxCell id="Zij0jtWlIRIiea6RquH1-7" value="Attore" style="shape=parallelogram;perimeter=parallelogramPerimeter;whiteSpace=wrap;html=1;fixedSize=1;" parent="1" vertex="1">
          <mxGeometry x="416.87" y="30" width="120" height="20" as="geometry" />
        </mxCell>
        <mxCell id="Zij0jtWlIRIiea6RquH1-8" value="Attore" style="shape=parallelogram;perimeter=parallelogramPerimeter;whiteSpace=wrap;html=1;fixedSize=1;" parent="1" vertex="1">
          <mxGeometry x="596.87" y="30" width="120" height="20" as="geometry" />
        </mxCell>
        <mxCell id="Zij0jtWlIRIiea6RquH1-9" value="" style="endArrow=none;dashed=1;html=1;dashPattern=1 3;strokeWidth=2;rounded=0;" parent="1" source="Zij0jtWlIRIiea6RquH1-14" edge="1">
          <mxGeometry width="50" height="50" relative="1" as="geometry">
            <mxPoint x="116.37" y="391" as="sourcePoint" />
            <mxPoint x="116.37" y="111" as="targetPoint" />
          </mxGeometry>
        </mxCell>
        <mxCell id="Zij0jtWlIRIiea6RquH1-10" value="" style="endArrow=none;dashed=1;html=1;dashPattern=1 3;strokeWidth=2;rounded=0;" parent="1" source="Zij0jtWlIRIiea6RquH1-16" edge="1">
          <mxGeometry width="50" height="50" relative="1" as="geometry">
            <mxPoint x="301.37" y="391" as="sourcePoint" />
            <mxPoint x="301.37" y="111" as="targetPoint" />
          </mxGeometry>
        </mxCell>
        <mxCell id="Zij0jtWlIRIiea6RquH1-11" value="" style="endArrow=none;dashed=1;html=1;dashPattern=1 3;strokeWidth=2;rounded=0;" parent="1" source="Zij0jtWlIRIiea6RquH1-18" edge="1">
          <mxGeometry width="50" height="50" relative="1" as="geometry">
            <mxPoint x="476.87" y="391" as="sourcePoint" />
            <mxPoint x="476.87" y="111" as="targetPoint" />
          </mxGeometry>
        </mxCell>
        <mxCell id="Zij0jtWlIRIiea6RquH1-12" value="" style="endArrow=none;dashed=1;html=1;dashPattern=1 3;strokeWidth=2;rounded=0;" parent="1" source="Zij0jtWlIRIiea6RquH1-20" edge="1">
          <mxGeometry width="50" height="50" relative="1" as="geometry">
            <mxPoint x="656.37" y="391" as="sourcePoint" />
            <mxPoint x="656.37" y="111" as="targetPoint" />
          </mxGeometry>
        </mxCell>
        <mxCell id="Zij0jtWlIRIiea6RquH1-13" value="" style="endArrow=none;dashed=1;html=1;dashPattern=1 3;strokeWidth=2;rounded=0;" parent="1" target="Zij0jtWlIRIiea6RquH1-14" edge="1">
          <mxGeometry width="50" height="50" relative="1" as="geometry">
            <mxPoint x="117" y="640" as="sourcePoint" />
            <mxPoint x="116.37" y="111" as="targetPoint" />
          </mxGeometry>
        </mxCell>
        <mxCell id="Zij0jtWlIRIiea6RquH1-14" value="" style="rounded=0;whiteSpace=wrap;html=1;rotation=-90;" parent="1" vertex="1">
          <mxGeometry x="-125" y="366" width="483.75" height="10" as="geometry" />
        </mxCell>
        <mxCell id="Zij0jtWlIRIiea6RquH1-15" value="" style="endArrow=none;dashed=1;html=1;dashPattern=1 3;strokeWidth=2;rounded=0;" parent="1" target="Zij0jtWlIRIiea6RquH1-16" edge="1">
          <mxGeometry width="50" height="50" relative="1" as="geometry">
            <mxPoint x="300" y="640" as="sourcePoint" />
            <mxPoint x="301.37" y="111" as="targetPoint" />
          </mxGeometry>
        </mxCell>
        <mxCell id="Zij0jtWlIRIiea6RquH1-16" value="" style="rounded=0;whiteSpace=wrap;html=1;rotation=-90;" parent="1" vertex="1">
          <mxGeometry x="57.91" y="369.02" width="487.93" height="10" as="geometry" />
        </mxCell>
        <mxCell id="Zij0jtWlIRIiea6RquH1-17" value="" style="endArrow=none;dashed=1;html=1;dashPattern=1 3;strokeWidth=2;rounded=0;" parent="1" target="Zij0jtWlIRIiea6RquH1-18" edge="1">
          <mxGeometry width="50" height="50" relative="1" as="geometry">
            <mxPoint x="475.36046270417194" y="543.9099999999999" as="sourcePoint" />
            <mxPoint x="476.87" y="111" as="targetPoint" />
          </mxGeometry>
        </mxCell>
        <mxCell id="Zij0jtWlIRIiea6RquH1-18" value="" style="rounded=0;whiteSpace=wrap;html=1;rotation=-90;" parent="1" vertex="1">
          <mxGeometry x="425.31" y="185.01" width="100.11" height="10" as="geometry" />
        </mxCell>
        <mxCell id="Zij0jtWlIRIiea6RquH1-19" value="" style="endArrow=none;dashed=1;html=1;dashPattern=1 3;strokeWidth=2;rounded=0;" parent="1" source="Zij0jtWlIRIiea6RquH1-60" target="Zij0jtWlIRIiea6RquH1-20" edge="1">
          <mxGeometry width="50" height="50" relative="1" as="geometry">
            <mxPoint x="660" y="640" as="sourcePoint" />
            <mxPoint x="656.37" y="111" as="targetPoint" />
          </mxGeometry>
        </mxCell>
        <mxCell id="Zij0jtWlIRIiea6RquH1-20" value="" style="rounded=0;whiteSpace=wrap;html=1;rotation=-90;" parent="1" vertex="1">
          <mxGeometry x="555.08" y="225.92" width="203.58" height="10" as="geometry" />
        </mxCell>
        <mxCell id="Zij0jtWlIRIiea6RquH1-21" value="" style="endArrow=classic;html=1;rounded=0;fillColor=#e6d0de;gradientColor=#d5739d;strokeColor=#ff80ff;strokeWidth=3;" parent="1" edge="1">
          <mxGeometry width="50" height="50" relative="1" as="geometry">
            <mxPoint x="130" y="170" as="sourcePoint" />
            <mxPoint x="290" y="170" as="targetPoint" />
          </mxGeometry>
        </mxCell>
        <mxCell id="Zij0jtWlIRIiea6RquH1-22" value="" style="endArrow=classic;html=1;rounded=0;fillColor=#e6d0de;gradientColor=#d5739d;strokeColor=#ff80ff;strokeWidth=3;exitX=0.867;exitY=0.899;exitDx=0;exitDy=0;exitPerimeter=0;" parent="1" edge="1">
          <mxGeometry width="50" height="50" relative="1" as="geometry">
            <mxPoint x="306.87" y="187.76" as="sourcePoint" />
            <mxPoint x="466.87" y="188" as="targetPoint" />
          </mxGeometry>
        </mxCell>
        <mxCell id="Zij0jtWlIRIiea6RquH1-23" value="" style="endArrow=classic;html=1;rounded=0;entryX=0.555;entryY=-0.066;entryDx=0;entryDy=0;fillColor=#e6d0de;gradientColor=#d5739d;strokeColor=#ff80ff;strokeWidth=3;jumpSize=5;startSize=0;entryPerimeter=0;" parent="1" edge="1">
          <mxGeometry width="50" height="50" relative="1" as="geometry">
            <mxPoint x="310" y="260" as="sourcePoint" />
            <mxPoint x="642.3349999999999" y="260.00135000000006" as="targetPoint" />
          </mxGeometry>
        </mxCell>
        <mxCell id="Zij0jtWlIRIiea6RquH1-24" value="pickup" style="edgeLabel;html=1;align=center;verticalAlign=middle;resizable=0;points=[];" parent="1" vertex="1" connectable="0">
          <mxGeometry x="206.87" y="169" as="geometry">
            <mxPoint x="1" as="offset" />
          </mxGeometry>
        </mxCell>
        <mxCell id="Zij0jtWlIRIiea6RquH1-25" value="moveto" style="edgeLabel;html=1;align=center;verticalAlign=middle;resizable=0;points=[];" parent="1" vertex="1" connectable="0">
          <mxGeometry x="388.77" y="187" as="geometry" />
        </mxCell>
        <mxCell id="Zij0jtWlIRIiea6RquH1-26" value="execaction" style="edgeLabel;html=1;align=center;verticalAlign=middle;resizable=0;points=[];" parent="1" vertex="1" connectable="0">
          <mxGeometry x="440.78" y="260" as="geometry" />
        </mxCell>
        <mxCell id="Zij0jtWlIRIiea6RquH1-29" value="" style="endArrow=classic;html=1;rounded=0;fillColor=#e6d0de;gradientColor=#d5739d;strokeColor=#008000;strokeWidth=3;jumpSize=5;startSize=0;dashed=1;" parent="1" edge="1">
          <mxGeometry width="50" height="50" relative="1" as="geometry">
            <mxPoint x="645" y="298.98999999999995" as="sourcePoint" />
            <mxPoint x="310" y="300" as="targetPoint" />
          </mxGeometry>
        </mxCell>
        <mxCell id="Zij0jtWlIRIiea6RquH1-30" value="execok/ko" style="edgeLabel;html=1;align=center;verticalAlign=middle;resizable=0;points=[];" parent="1" vertex="1" connectable="0">
          <mxGeometry x="439.28" y="299.99999999999994" as="geometry" />
        </mxCell>
        <mxCell id="Zij0jtWlIRIiea6RquH1-31" value="" style="endArrow=classic;html=1;rounded=0;entryX=0.555;entryY=-0.066;entryDx=0;entryDy=0;fillColor=#e6d0de;gradientColor=#d5739d;strokeColor=#008000;strokeWidth=3;jumpSize=5;startSize=0;entryPerimeter=0;dashed=1;" parent="1" edge="1">
          <mxGeometry width="50" height="50" relative="1" as="geometry">
            <mxPoint x="468.87" y="224.29000000000002" as="sourcePoint" />
            <mxPoint x="306.87" y="224.29000000000002" as="targetPoint" />
          </mxGeometry>
        </mxCell>
        <mxCell id="Zij0jtWlIRIiea6RquH1-32" value="" style="endArrow=classic;html=1;rounded=0;entryX=0.555;entryY=-0.066;entryDx=0;entryDy=0;fillColor=#e6d0de;gradientColor=#d5739d;strokeColor=#008000;strokeWidth=3;jumpSize=5;startSize=0;entryPerimeter=0;dashed=1;" parent="1" edge="1">
          <mxGeometry width="50" height="50" relative="1" as="geometry">
            <mxPoint x="294.87" y="331" as="sourcePoint" />
            <mxPoint x="122.87" y="332" as="targetPoint" />
          </mxGeometry>
        </mxCell>
        <mxCell id="Zij0jtWlIRIiea6RquH1-33" value="moveok/ko" style="edgeLabel;html=1;align=center;verticalAlign=middle;resizable=0;points=[];" parent="1" vertex="1" connectable="0">
          <mxGeometry x="388.77" y="220.84" as="geometry" />
        </mxCell>
        <mxCell id="Zij0jtWlIRIiea6RquH1-34" value="pickupdone" style="edgeLabel;html=1;align=center;verticalAlign=middle;resizable=0;points=[];" parent="1" vertex="1" connectable="0">
          <mxGeometry x="206.87" y="331" as="geometry" />
        </mxCell>
        <mxCell id="Zij0jtWlIRIiea6RquH1-35" value="" style="endArrow=classic;html=1;rounded=0;fillColor=#e6d0de;gradientColor=#d5739d;strokeColor=#0080ff;strokeWidth=3;exitX=0.917;exitY=1.119;exitDx=0;exitDy=0;exitPerimeter=0;" parent="1" edge="1">
          <mxGeometry width="50" height="50" relative="1" as="geometry">
            <mxPoint x="123.37" y="355.69" as="sourcePoint" />
            <mxPoint x="290.37" y="355.69" as="targetPoint" />
          </mxGeometry>
        </mxCell>
        <mxCell id="Zij0jtWlIRIiea6RquH1-36" value="" style="endArrow=classic;html=1;rounded=0;fillColor=#e6d0de;gradientColor=#d5739d;strokeColor=#0080ff;strokeWidth=3;exitX=0.917;exitY=1.119;exitDx=0;exitDy=0;exitPerimeter=0;" parent="1" edge="1">
          <mxGeometry width="50" height="50" relative="1" as="geometry">
            <mxPoint x="123.37" y="550" as="sourcePoint" />
            <mxPoint x="290.37" y="550" as="targetPoint" />
          </mxGeometry>
        </mxCell>
        <mxCell id="Zij0jtWlIRIiea6RquH1-37" value="dropout" style="edgeLabel;html=1;align=center;verticalAlign=middle;resizable=0;points=[];" parent="1" vertex="1" connectable="0">
          <mxGeometry x="206.87" y="354.11" as="geometry">
            <mxPoint x="1" as="offset" />
          </mxGeometry>
        </mxCell>
        <mxCell id="Zij0jtWlIRIiea6RquH1-38" value="gotohome" style="edgeLabel;html=1;align=center;verticalAlign=middle;resizable=0;points=[];" parent="1" vertex="1" connectable="0">
          <mxGeometry x="206.87" y="550" as="geometry">
            <mxPoint x="1" as="offset" />
          </mxGeometry>
        </mxCell>
        <mxCell id="Zij0jtWlIRIiea6RquH1-40" value="" style="endArrow=classic;html=1;fillColor=#e6d0de;gradientColor=#d5739d;strokeColor=#ff0000;strokeWidth=3;jumpSize=5;startSize=0;dashed=1;curved=1;" parent="1" edge="1">
          <mxGeometry width="50" height="50" relative="1" as="geometry">
            <mxPoint x="286.24" y="500" as="sourcePoint" />
            <mxPoint x="123.37" y="480" as="targetPoint" />
            <Array as="points">
              <mxPoint x="253.37" y="470" />
              <mxPoint x="233.37" y="520" />
              <mxPoint x="193.37" y="480" />
              <mxPoint x="173.37" y="490" />
              <mxPoint x="153.37" y="530" />
            </Array>
          </mxGeometry>
        </mxCell>
        <mxCell id="Zij0jtWlIRIiea6RquH1-41" value="dropoutdone" style="edgeLabel;html=1;align=center;verticalAlign=middle;resizable=0;points=[];" parent="1" vertex="1" connectable="0">
          <mxGeometry x="206.87" y="470" as="geometry">
            <mxPoint x="1" as="offset" />
          </mxGeometry>
        </mxCell>
        <mxCell id="Zij0jtWlIRIiea6RquH1-42" value="" style="rounded=0;whiteSpace=wrap;html=1;rotation=-90;" parent="1" vertex="1">
          <mxGeometry x="440.78000000000003" y="380" width="72.18" height="10" as="geometry" />
        </mxCell>
        <mxCell id="Zij0jtWlIRIiea6RquH1-43" value="" style="endArrow=classic;html=1;rounded=0;fillColor=#e6d0de;gradientColor=#d5739d;strokeColor=#ff80ff;strokeWidth=3;exitX=0.867;exitY=0.899;exitDx=0;exitDy=0;exitPerimeter=0;" parent="1" edge="1">
          <mxGeometry width="50" height="50" relative="1" as="geometry">
            <mxPoint x="307.77" y="366.75" as="sourcePoint" />
            <mxPoint x="467.77" y="366.99" as="targetPoint" />
          </mxGeometry>
        </mxCell>
        <mxCell id="Zij0jtWlIRIiea6RquH1-44" value="" style="endArrow=classic;html=1;rounded=0;entryX=0.555;entryY=-0.066;entryDx=0;entryDy=0;fillColor=#e6d0de;gradientColor=#d5739d;strokeColor=#008000;strokeWidth=3;jumpSize=5;startSize=0;entryPerimeter=0;dashed=1;" parent="1" edge="1">
          <mxGeometry width="50" height="50" relative="1" as="geometry">
            <mxPoint x="469.77" y="403.28000000000003" as="sourcePoint" />
            <mxPoint x="307.77" y="403.28000000000003" as="targetPoint" />
          </mxGeometry>
        </mxCell>
        <mxCell id="Zij0jtWlIRIiea6RquH1-45" value="" style="endArrow=classic;html=1;rounded=0;fillColor=#e6d0de;gradientColor=#d5739d;strokeColor=#ff80ff;strokeWidth=3;exitX=0.867;exitY=0.899;exitDx=0;exitDy=0;exitPerimeter=0;" parent="1" edge="1">
          <mxGeometry width="50" height="50" relative="1" as="geometry">
            <mxPoint x="307.77" y="566" as="sourcePoint" />
            <mxPoint x="467.77" y="566.24" as="targetPoint" />
          </mxGeometry>
        </mxCell>
        <mxCell id="Zij0jtWlIRIiea6RquH1-46" value="" style="endArrow=classic;html=1;rounded=0;entryX=0.555;entryY=-0.066;entryDx=0;entryDy=0;fillColor=#e6d0de;gradientColor=#d5739d;strokeColor=#008000;strokeWidth=3;jumpSize=5;startSize=0;entryPerimeter=0;dashed=1;" parent="1" edge="1">
          <mxGeometry width="50" height="50" relative="1" as="geometry">
            <mxPoint x="469.77" y="602.53" as="sourcePoint" />
            <mxPoint x="307.77" y="602.53" as="targetPoint" />
          </mxGeometry>
        </mxCell>
        <mxCell id="Zij0jtWlIRIiea6RquH1-48" value="" style="endArrow=none;dashed=1;html=1;dashPattern=1 3;strokeWidth=2;rounded=0;" parent="1" edge="1">
          <mxGeometry width="50" height="50" relative="1" as="geometry">
            <mxPoint x="475" y="640" as="sourcePoint" />
            <mxPoint x="475.1434600000001" y="616.0900000000001" as="targetPoint" />
          </mxGeometry>
        </mxCell>
        <mxCell id="Zij0jtWlIRIiea6RquH1-51" value="moveto" style="edgeLabel;html=1;align=center;verticalAlign=middle;resizable=0;points=[];" parent="1" vertex="1" connectable="0">
          <mxGeometry x="388.77" y="366.15999999999997" as="geometry" />
        </mxCell>
        <mxCell id="Zij0jtWlIRIiea6RquH1-52" value="moveok/ko" style="edgeLabel;html=1;align=center;verticalAlign=middle;resizable=0;points=[];" parent="1" vertex="1" connectable="0">
          <mxGeometry x="388.77" y="400" as="geometry" />
        </mxCell>
        <mxCell id="Zij0jtWlIRIiea6RquH1-53" value="moveto" style="edgeLabel;html=1;align=center;verticalAlign=middle;resizable=0;points=[];" parent="1" vertex="1" connectable="0">
          <mxGeometry x="388.77" y="565" as="geometry" />
        </mxCell>
        <mxCell id="Zij0jtWlIRIiea6RquH1-54" value="moveok/ko" style="edgeLabel;html=1;align=center;verticalAlign=middle;resizable=0;points=[];" parent="1" vertex="1" connectable="0">
          <mxGeometry x="388.77" y="601.84" as="geometry" />
        </mxCell>
        <mxCell id="Zij0jtWlIRIiea6RquH1-55" value="" style="endArrow=classic;html=1;rounded=0;entryX=0.555;entryY=-0.066;entryDx=0;entryDy=0;fillColor=#e6d0de;gradientColor=#d5739d;strokeColor=#ff80ff;strokeWidth=3;jumpSize=5;startSize=0;entryPerimeter=0;" parent="1" edge="1">
          <mxGeometry width="50" height="50" relative="1" as="geometry">
            <mxPoint x="309.37" y="430" as="sourcePoint" />
            <mxPoint x="641.7049999999999" y="430.00135000000006" as="targetPoint" />
          </mxGeometry>
        </mxCell>
        <mxCell id="Zij0jtWlIRIiea6RquH1-56" value="" style="endArrow=classic;html=1;rounded=0;fillColor=#e6d0de;gradientColor=#d5739d;strokeColor=#008000;strokeWidth=3;jumpSize=5;startSize=0;dashed=1;" parent="1" edge="1">
          <mxGeometry width="50" height="50" relative="1" as="geometry">
            <mxPoint x="644.37" y="468.98999999999995" as="sourcePoint" />
            <mxPoint x="309.37" y="470" as="targetPoint" />
          </mxGeometry>
        </mxCell>
        <mxCell id="Zij0jtWlIRIiea6RquH1-59" value="" style="rounded=0;whiteSpace=wrap;html=1;rotation=-90;" parent="1" vertex="1">
          <mxGeometry x="439.27000000000004" y="575" width="72.18" height="10" as="geometry" />
        </mxCell>
        <mxCell id="Zij0jtWlIRIiea6RquH1-61" value="" style="endArrow=none;dashed=1;html=1;dashPattern=1 3;strokeWidth=2;rounded=0;" parent="1" target="Zij0jtWlIRIiea6RquH1-60" edge="1">
          <mxGeometry width="50" height="50" relative="1" as="geometry">
            <mxPoint x="660" y="640" as="sourcePoint" />
            <mxPoint x="658" y="333" as="targetPoint" />
          </mxGeometry>
        </mxCell>
        <mxCell id="Zij0jtWlIRIiea6RquH1-60" value="" style="rounded=0;whiteSpace=wrap;html=1;rotation=-90;" parent="1" vertex="1">
          <mxGeometry x="620.78" y="440" width="72.18" height="10" as="geometry" />
        </mxCell>
        <mxCell id="Zij0jtWlIRIiea6RquH1-62" value="execaction" style="edgeLabel;html=1;align=center;verticalAlign=middle;resizable=0;points=[];" parent="1" vertex="1" connectable="0">
          <mxGeometry x="439.27" y="430" as="geometry" />
        </mxCell>
        <mxCell id="Zij0jtWlIRIiea6RquH1-63" value="execok/ko" style="edgeLabel;html=1;align=center;verticalAlign=middle;resizable=0;points=[];" parent="1" vertex="1" connectable="0">
          <mxGeometry x="437.77" y="469.99999999999994" as="geometry" />
        </mxCell>
        <mxCell id="WK4bIE02k_Ar4dEU1LtV-1" style="edgeStyle=orthogonalEdgeStyle;rounded=0;orthogonalLoop=1;jettySize=auto;html=1;entryX=0;entryY=0.5;entryDx=0;entryDy=0;" parent="1" source="WK4bIE02k_Ar4dEU1LtV-2" target="WK4bIE02k_Ar4dEU1LtV-5" edge="1">
          <mxGeometry relative="1" as="geometry" />
        </mxCell>
        <mxCell id="WK4bIE02k_Ar4dEU1LtV-2" value="" style="ellipse;whiteSpace=wrap;html=1;aspect=fixed;fillColor=#000000;" parent="1" vertex="1">
          <mxGeometry x="20" y="857" width="20" height="20" as="geometry" />
        </mxCell>
        <mxCell id="WK4bIE02k_Ar4dEU1LtV-3" style="edgeStyle=orthogonalEdgeStyle;rounded=0;orthogonalLoop=1;jettySize=auto;html=1;" parent="1" source="WK4bIE02k_Ar4dEU1LtV-5" edge="1">
          <mxGeometry relative="1" as="geometry">
            <mxPoint x="220" y="867" as="targetPoint" />
          </mxGeometry>
        </mxCell>
        <mxCell id="WK4bIE02k_Ar4dEU1LtV-4" value="" style="edgeStyle=orthogonalEdgeStyle;rounded=0;orthogonalLoop=1;jettySize=auto;html=1;" parent="1" source="WK4bIE02k_Ar4dEU1LtV-5" target="WK4bIE02k_Ar4dEU1LtV-30" edge="1">
          <mxGeometry relative="1" as="geometry" />
        </mxCell>
        <mxCell id="WK4bIE02k_Ar4dEU1LtV-5" value="IDLE" style="rounded=1;whiteSpace=wrap;html=1;" parent="1" vertex="1">
          <mxGeometry x="120" y="852" width="80" height="30" as="geometry" />
        </mxCell>
        <mxCell id="Hrluw8l6EDPf82-yZunN-13" value="" style="edgeStyle=orthogonalEdgeStyle;rounded=0;orthogonalLoop=1;jettySize=auto;html=1;" parent="1" source="WK4bIE02k_Ar4dEU1LtV-8" target="WK4bIE02k_Ar4dEU1LtV-9" edge="1">
          <mxGeometry relative="1" as="geometry" />
        </mxCell>
        <mxCell id="Hrluw8l6EDPf82-yZunN-28" value="" style="edgeStyle=orthogonalEdgeStyle;rounded=0;orthogonalLoop=1;jettySize=auto;html=1;endArrow=none;endFill=0;" parent="1" source="WK4bIE02k_Ar4dEU1LtV-8" edge="1">
          <mxGeometry relative="1" as="geometry">
            <mxPoint x="380" y="902" as="targetPoint" />
            <Array as="points">
              <mxPoint x="340" y="902" />
              <mxPoint x="380" y="902" />
            </Array>
          </mxGeometry>
        </mxCell>
        <mxCell id="WK4bIE02k_Ar4dEU1LtV-8" value="&lt;div&gt;Pickup&lt;/div&gt;&lt;div&gt;Move&lt;br&gt;&lt;/div&gt;" style="rounded=1;whiteSpace=wrap;html=1;" parent="1" vertex="1">
          <mxGeometry x="300" y="852" width="80" height="30" as="geometry" />
        </mxCell>
        <mxCell id="Hrluw8l6EDPf82-yZunN-16" value="" style="edgeStyle=orthogonalEdgeStyle;rounded=0;orthogonalLoop=1;jettySize=auto;html=1;" parent="1" source="WK4bIE02k_Ar4dEU1LtV-9" target="Hrluw8l6EDPf82-yZunN-14" edge="1">
          <mxGeometry relative="1" as="geometry" />
        </mxCell>
        <mxCell id="Hrluw8l6EDPf82-yZunN-20" value="" style="edgeStyle=orthogonalEdgeStyle;rounded=0;orthogonalLoop=1;jettySize=auto;html=1;endArrow=none;endFill=0;" parent="1" source="WK4bIE02k_Ar4dEU1LtV-9" edge="1">
          <mxGeometry relative="1" as="geometry">
            <mxPoint x="496" y="810" as="targetPoint" />
          </mxGeometry>
        </mxCell>
        <mxCell id="WK4bIE02k_Ar4dEU1LtV-9" value="&lt;div&gt;Pickup&lt;/div&gt;&lt;div&gt;Exec&lt;br&gt;&lt;/div&gt;" style="rounded=1;whiteSpace=wrap;html=1;" parent="1" vertex="1">
          <mxGeometry x="455.96" y="852" width="80" height="30" as="geometry" />
        </mxCell>
        <mxCell id="WK4bIE02k_Ar4dEU1LtV-26" value="" style="endArrow=classic;html=1;rounded=0;entryX=0.5;entryY=1;entryDx=0;entryDy=0;" parent="1" target="WK4bIE02k_Ar4dEU1LtV-5" edge="1">
          <mxGeometry width="50" height="50" relative="1" as="geometry">
            <mxPoint x="720" y="760" as="sourcePoint" />
            <mxPoint x="160" y="967" as="targetPoint" />
            <Array as="points">
              <mxPoint x="720" y="1040" />
              <mxPoint x="720" y="1080" />
              <mxPoint x="630" y="1080" />
              <mxPoint x="480" y="1080" />
              <mxPoint x="160" y="1080" />
              <mxPoint x="160" y="957" />
              <mxPoint x="160" y="887" />
            </Array>
          </mxGeometry>
        </mxCell>
        <mxCell id="WK4bIE02k_Ar4dEU1LtV-30" value="END" style="rounded=1;whiteSpace=wrap;html=1;" parent="1" vertex="1">
          <mxGeometry x="120" y="767" width="80" height="30" as="geometry" />
        </mxCell>
        <mxCell id="WK4bIE02k_Ar4dEU1LtV-31" value="dropout" style="edgeLabel;html=1;align=center;verticalAlign=middle;resizable=0;points=[];" parent="1" vertex="1" connectable="0">
          <mxGeometry x="226.86714285714288" y="810" as="geometry" />
        </mxCell>
        <mxCell id="eYS9vtnUgHbwTBRa3EZK-5" value="" style="edgeStyle=orthogonalEdgeStyle;rounded=0;orthogonalLoop=1;jettySize=auto;html=1;exitX=0.5;exitY=0;exitDx=0;exitDy=0;" parent="1" source="eYS9vtnUgHbwTBRa3EZK-1" edge="1">
          <mxGeometry relative="1" as="geometry">
            <mxPoint x="270" y="760" as="targetPoint" />
            <Array as="points">
              <mxPoint x="227" y="760" />
            </Array>
          </mxGeometry>
        </mxCell>
        <mxCell id="eYS9vtnUgHbwTBRa3EZK-6" value="" style="edgeStyle=orthogonalEdgeStyle;rounded=0;orthogonalLoop=1;jettySize=auto;html=1;entryX=-0.059;entryY=0.333;entryDx=0;entryDy=0;entryPerimeter=0;exitX=0.5;exitY=1;exitDx=0;exitDy=0;" parent="1" source="eYS9vtnUgHbwTBRa3EZK-1" target="eYS9vtnUgHbwTBRa3EZK-4" edge="1">
          <mxGeometry relative="1" as="geometry">
            <mxPoint x="250" y="870" as="sourcePoint" />
            <mxPoint x="220" y="960" as="targetPoint" />
            <Array as="points">
              <mxPoint x="227" y="960" />
            </Array>
          </mxGeometry>
        </mxCell>
        <mxCell id="Hrluw8l6EDPf82-yZunN-2" value="" style="edgeStyle=orthogonalEdgeStyle;rounded=0;orthogonalLoop=1;jettySize=auto;html=1;" parent="1" source="eYS9vtnUgHbwTBRa3EZK-1" target="WK4bIE02k_Ar4dEU1LtV-8" edge="1">
          <mxGeometry relative="1" as="geometry" />
        </mxCell>
        <mxCell id="eYS9vtnUgHbwTBRa3EZK-1" value="" style="rhombus;whiteSpace=wrap;html=1;" parent="1" vertex="1">
          <mxGeometry x="216.87" y="857" width="20" height="20" as="geometry" />
        </mxCell>
        <mxCell id="Hrluw8l6EDPf82-yZunN-7" value="" style="edgeStyle=orthogonalEdgeStyle;rounded=0;orthogonalLoop=1;jettySize=auto;html=1;" parent="1" source="eYS9vtnUgHbwTBRa3EZK-2" target="Hrluw8l6EDPf82-yZunN-6" edge="1">
          <mxGeometry relative="1" as="geometry" />
        </mxCell>
        <mxCell id="Hrluw8l6EDPf82-yZunN-26" value="" style="edgeStyle=orthogonalEdgeStyle;rounded=0;orthogonalLoop=1;jettySize=auto;html=1;endArrow=none;endFill=0;exitX=0.586;exitY=1.014;exitDx=0;exitDy=0;exitPerimeter=0;jumpStyle=arc;" parent="1" source="eYS9vtnUgHbwTBRa3EZK-2" edge="1">
          <mxGeometry relative="1" as="geometry">
            <mxPoint x="320" y="780" as="sourcePoint" />
            <mxPoint x="387.77" y="965" as="targetPoint" />
            <Array as="points">
              <mxPoint x="320" y="786" />
              <mxPoint x="390" y="786" />
              <mxPoint x="390" y="965" />
            </Array>
          </mxGeometry>
        </mxCell>
        <mxCell id="eYS9vtnUgHbwTBRa3EZK-2" value="&lt;div&gt;Dropout&lt;/div&gt;&lt;div&gt;Move&lt;br&gt;&lt;/div&gt;" style="rounded=1;whiteSpace=wrap;html=1;" parent="1" vertex="1">
          <mxGeometry x="273" y="746" width="80" height="30" as="geometry" />
        </mxCell>
        <mxCell id="Hrluw8l6EDPf82-yZunN-24" value="" style="edgeStyle=orthogonalEdgeStyle;rounded=0;orthogonalLoop=1;jettySize=auto;html=1;" parent="1" source="eYS9vtnUgHbwTBRa3EZK-4" target="Hrluw8l6EDPf82-yZunN-22" edge="1">
          <mxGeometry relative="1" as="geometry" />
        </mxCell>
        <mxCell id="Hrluw8l6EDPf82-yZunN-36" value="" style="edgeStyle=orthogonalEdgeStyle;rounded=0;orthogonalLoop=1;jettySize=auto;html=1;" parent="1" source="eYS9vtnUgHbwTBRa3EZK-4" target="Hrluw8l6EDPf82-yZunN-35" edge="1">
          <mxGeometry relative="1" as="geometry" />
        </mxCell>
        <mxCell id="eYS9vtnUgHbwTBRa3EZK-4" value="BackHome" style="rounded=1;whiteSpace=wrap;html=1;" parent="1" vertex="1">
          <mxGeometry x="274.75" y="950" width="80" height="30" as="geometry" />
        </mxCell>
        <mxCell id="Hrluw8l6EDPf82-yZunN-3" value="&lt;div&gt;exit&lt;/div&gt;" style="edgeLabel;html=1;align=center;verticalAlign=middle;resizable=0;points=[];" parent="1" vertex="1" connectable="0">
          <mxGeometry x="159.99714285714288" y="837" as="geometry" />
        </mxCell>
        <mxCell id="Hrluw8l6EDPf82-yZunN-4" value="gotohome" style="edgeLabel;html=1;align=center;verticalAlign=middle;resizable=0;points=[];" parent="1" vertex="1" connectable="0">
          <mxGeometry x="226.86714285714288" y="927" as="geometry">
            <mxPoint x="3" y="3" as="offset" />
          </mxGeometry>
        </mxCell>
        <mxCell id="Hrluw8l6EDPf82-yZunN-5" value="pickup" style="edgeLabel;html=1;align=center;verticalAlign=middle;resizable=0;points=[];" parent="1" vertex="1" connectable="0">
          <mxGeometry x="259.9971428571429" y="865" as="geometry" />
        </mxCell>
        <mxCell id="Hrluw8l6EDPf82-yZunN-11" value="" style="edgeStyle=orthogonalEdgeStyle;rounded=0;orthogonalLoop=1;jettySize=auto;html=1;" parent="1" source="Hrluw8l6EDPf82-yZunN-6" target="Hrluw8l6EDPf82-yZunN-9" edge="1">
          <mxGeometry relative="1" as="geometry" />
        </mxCell>
        <mxCell id="Hrluw8l6EDPf82-yZunN-19" value="" style="edgeStyle=orthogonalEdgeStyle;rounded=0;orthogonalLoop=1;jettySize=auto;html=1;entryX=0;entryY=0.5;entryDx=0;entryDy=0;exitX=0.5;exitY=1;exitDx=0;exitDy=0;" parent="1" source="Hrluw8l6EDPf82-yZunN-6" target="Hrluw8l6EDPf82-yZunN-15" edge="1">
          <mxGeometry relative="1" as="geometry">
            <mxPoint x="460" y="780" as="sourcePoint" />
            <Array as="points">
              <mxPoint x="465" y="810" />
            </Array>
          </mxGeometry>
        </mxCell>
        <mxCell id="Hrluw8l6EDPf82-yZunN-6" value="&lt;div&gt;Dropout&lt;/div&gt;&lt;div&gt;Exec&lt;br&gt;&lt;/div&gt;" style="rounded=1;whiteSpace=wrap;html=1;" parent="1" vertex="1">
          <mxGeometry x="425.30999999999995" y="746" width="80" height="30" as="geometry" />
        </mxCell>
        <mxCell id="Hrluw8l6EDPf82-yZunN-8" value="moveok" style="edgeLabel;html=1;align=center;verticalAlign=middle;resizable=0;points=[];" parent="1" vertex="1" connectable="0">
          <mxGeometry x="388.76714285714286" y="759" as="geometry" />
        </mxCell>
        <mxCell id="Hrluw8l6EDPf82-yZunN-9" value="&lt;div&gt;Dropout&lt;/div&gt;&lt;div&gt;Res&lt;br&gt;&lt;/div&gt;" style="rounded=1;whiteSpace=wrap;html=1;" parent="1" vertex="1">
          <mxGeometry x="572.8699999999999" y="746" width="80" height="30" as="geometry" />
        </mxCell>
        <mxCell id="Hrluw8l6EDPf82-yZunN-10" value="execok" style="edgeLabel;html=1;align=center;verticalAlign=middle;resizable=0;points=[];" parent="1" vertex="1" connectable="0">
          <mxGeometry x="536.8671428571429" y="759" as="geometry" />
        </mxCell>
        <mxCell id="Hrluw8l6EDPf82-yZunN-12" value="moveok" style="edgeLabel;html=1;align=center;verticalAlign=middle;resizable=0;points=[];" parent="1" vertex="1" connectable="0">
          <mxGeometry x="413.8671428571428" y="866" as="geometry" />
        </mxCell>
        <mxCell id="Hrluw8l6EDPf82-yZunN-14" value="&lt;div&gt;Pickup&lt;/div&gt;&lt;div&gt;Res&lt;br&gt;&lt;/div&gt;" style="rounded=1;whiteSpace=wrap;html=1;" parent="1" vertex="1">
          <mxGeometry x="609.44" y="852" width="80" height="30" as="geometry" />
        </mxCell>
        <mxCell id="Hrluw8l6EDPf82-yZunN-15" value="Exec Err" style="rounded=1;whiteSpace=wrap;html=1;" parent="1" vertex="1">
          <mxGeometry x="555.0799999999999" y="795" width="80" height="30" as="geometry" />
        </mxCell>
        <mxCell id="Hrluw8l6EDPf82-yZunN-17" value="execok" style="edgeLabel;html=1;align=center;verticalAlign=middle;resizable=0;points=[];" parent="1" vertex="1" connectable="0">
          <mxGeometry x="572.8671428571429" y="866" as="geometry" />
        </mxCell>
        <mxCell id="Hrluw8l6EDPf82-yZunN-21" value="&lt;div&gt;execko&lt;/div&gt;" style="edgeLabel;html=1;align=center;verticalAlign=middle;resizable=0;points=[];" parent="1" vertex="1" connectable="0">
          <mxGeometry x="505.3071428571429" y="810" as="geometry">
            <mxPoint x="-8" y="-3" as="offset" />
          </mxGeometry>
        </mxCell>
        <mxCell id="Hrluw8l6EDPf82-yZunN-22" value="Move Err" style="rounded=1;whiteSpace=wrap;html=1;" parent="1" vertex="1">
          <mxGeometry x="445.42" y="950" width="80" height="30" as="geometry" />
        </mxCell>
        <mxCell id="Hrluw8l6EDPf82-yZunN-25" value="moveko" style="edgeLabel;html=1;align=center;verticalAlign=middle;resizable=0;points=[];" parent="1" vertex="1" connectable="0">
          <mxGeometry x="399.9971428571428" y="965" as="geometry" />
        </mxCell>
        <mxCell id="Hrluw8l6EDPf82-yZunN-29" value="" style="endArrow=none;html=1;rounded=0;" parent="1" edge="1">
          <mxGeometry width="50" height="50" relative="1" as="geometry">
            <mxPoint x="380" y="902" as="sourcePoint" />
            <mxPoint x="390" y="902" as="targetPoint" />
          </mxGeometry>
        </mxCell>
        <mxCell id="Hrluw8l6EDPf82-yZunN-30" value="moveko" style="edgeLabel;html=1;align=center;verticalAlign=middle;resizable=0;points=[];" parent="1" vertex="1" connectable="0">
          <mxGeometry x="366.8671428571428" y="900" as="geometry" />
        </mxCell>
        <mxCell id="Hrluw8l6EDPf82-yZunN-31" value="moveko" style="edgeLabel;html=1;align=center;verticalAlign=middle;resizable=0;points=[];" parent="1" vertex="1" connectable="0">
          <mxGeometry x="358.7471428571428" y="782" as="geometry" />
        </mxCell>
        <mxCell id="Hrluw8l6EDPf82-yZunN-33" value="" style="endArrow=none;html=1;rounded=0;" parent="1" edge="1">
          <mxGeometry width="50" height="50" relative="1" as="geometry">
            <mxPoint x="690" y="866" as="sourcePoint" />
            <mxPoint x="720" y="866" as="targetPoint" />
          </mxGeometry>
        </mxCell>
        <mxCell id="Hrluw8l6EDPf82-yZunN-34" value="" style="endArrow=none;html=1;rounded=0;exitX=1.013;exitY=0.435;exitDx=0;exitDy=0;exitPerimeter=0;" parent="1" source="Hrluw8l6EDPf82-yZunN-9" edge="1">
          <mxGeometry width="50" height="50" relative="1" as="geometry">
            <mxPoint x="700" y="841" as="sourcePoint" />
            <mxPoint x="720" y="760" as="targetPoint" />
          </mxGeometry>
        </mxCell>
        <mxCell id="Hrluw8l6EDPf82-yZunN-35" value="BackHome" style="rounded=1;whiteSpace=wrap;html=1;" parent="1" vertex="1">
          <mxGeometry x="274.75" y="1030" width="80" height="30" as="geometry" />
        </mxCell>
        <mxCell id="Hrluw8l6EDPf82-yZunN-37" value="moveok" style="edgeLabel;html=1;align=center;verticalAlign=middle;resizable=0;points=[];" parent="1" vertex="1" connectable="0">
          <mxGeometry x="314.7471428571428" y="1000" as="geometry" />
        </mxCell>
        <mxCell id="Hrluw8l6EDPf82-yZunN-38" value="" style="endArrow=none;html=1;rounded=0;" parent="1" edge="1">
          <mxGeometry width="50" height="50" relative="1" as="geometry">
            <mxPoint x="160" y="1047" as="sourcePoint" />
            <mxPoint x="270" y="1047" as="targetPoint" />
          </mxGeometry>
        </mxCell>
      </root>
    </mxGraphModel>
  </diagram>
  <diagram id="vGNK1H0eJHt4Sjd7kAEg" name="mover">
    <mxGraphModel dx="744" dy="1104" grid="1" gridSize="10" guides="1" tooltips="1" connect="1" arrows="1" fold="1" page="1" pageScale="1" pageWidth="827" pageHeight="1169" math="0" shadow="0">
      <root>
        <mxCell id="0" />
        <mxCell id="1" parent="0" />
        <mxCell id="znwbQN6Xvx2vc_Z4a2mS-1" style="edgeStyle=orthogonalEdgeStyle;rounded=0;orthogonalLoop=1;jettySize=auto;html=1;entryX=0;entryY=0.5;entryDx=0;entryDy=0;" edge="1" parent="1" source="znwbQN6Xvx2vc_Z4a2mS-2" target="znwbQN6Xvx2vc_Z4a2mS-4">
          <mxGeometry relative="1" as="geometry" />
        </mxCell>
        <mxCell id="znwbQN6Xvx2vc_Z4a2mS-2" value="" style="ellipse;whiteSpace=wrap;html=1;aspect=fixed;fillColor=#000000;" vertex="1" parent="1">
          <mxGeometry x="20" y="180" width="20" height="20" as="geometry" />
        </mxCell>
        <mxCell id="znwbQN6Xvx2vc_Z4a2mS-3" style="edgeStyle=orthogonalEdgeStyle;rounded=0;orthogonalLoop=1;jettySize=auto;html=1;" edge="1" parent="1" source="znwbQN6Xvx2vc_Z4a2mS-4">
          <mxGeometry relative="1" as="geometry">
            <mxPoint x="270" y="190" as="targetPoint" />
          </mxGeometry>
        </mxCell>
        <mxCell id="bKgXFgtErOWbTx_xvyyd-4" value="" style="edgeStyle=orthogonalEdgeStyle;rounded=0;orthogonalLoop=1;jettySize=auto;html=1;" edge="1" parent="1" source="znwbQN6Xvx2vc_Z4a2mS-4" target="bKgXFgtErOWbTx_xvyyd-3">
          <mxGeometry relative="1" as="geometry" />
        </mxCell>
        <mxCell id="znwbQN6Xvx2vc_Z4a2mS-4" value="IDLE" style="rounded=1;whiteSpace=wrap;html=1;" vertex="1" parent="1">
          <mxGeometry x="120" y="175" width="80" height="30" as="geometry" />
        </mxCell>
        <mxCell id="znwbQN6Xvx2vc_Z4a2mS-5" style="edgeStyle=orthogonalEdgeStyle;rounded=0;orthogonalLoop=1;jettySize=auto;html=1;" edge="1" parent="1" source="znwbQN6Xvx2vc_Z4a2mS-7">
          <mxGeometry relative="1" as="geometry">
            <mxPoint x="391" y="190" as="targetPoint" />
          </mxGeometry>
        </mxCell>
        <mxCell id="znwbQN6Xvx2vc_Z4a2mS-6" value="moveto" style="edgeLabel;html=1;align=center;verticalAlign=middle;resizable=0;points=[];" vertex="1" connectable="0" parent="znwbQN6Xvx2vc_Z4a2mS-5">
          <mxGeometry x="-0.4774" relative="1" as="geometry">
            <mxPoint x="-132" y="-3" as="offset" />
          </mxGeometry>
        </mxCell>
        <mxCell id="znwbQN6Xvx2vc_Z4a2mS-7" value="&lt;div&gt;Destination&lt;/div&gt;&lt;div&gt;Eval&lt;br&gt;&lt;/div&gt;" style="rounded=1;whiteSpace=wrap;html=1;" vertex="1" parent="1">
          <mxGeometry x="271" y="175" width="80" height="30" as="geometry" />
        </mxCell>
        <mxCell id="znwbQN6Xvx2vc_Z4a2mS-8" value="Plan" style="rounded=1;whiteSpace=wrap;html=1;" vertex="1" parent="1">
          <mxGeometry x="392" y="175" width="80" height="30" as="geometry" />
        </mxCell>
        <mxCell id="znwbQN6Xvx2vc_Z4a2mS-9" value="&lt;div&gt;Exec&lt;/div&gt;&lt;div&gt;Move&lt;br&gt;&lt;/div&gt;" style="rounded=1;whiteSpace=wrap;html=1;" vertex="1" parent="1">
          <mxGeometry x="557" y="175" width="80" height="30" as="geometry" />
        </mxCell>
        <mxCell id="znwbQN6Xvx2vc_Z4a2mS-10" style="edgeStyle=orthogonalEdgeStyle;rounded=0;orthogonalLoop=1;jettySize=auto;html=1;entryX=0;entryY=0.5;entryDx=0;entryDy=0;" edge="1" parent="1">
          <mxGeometry relative="1" as="geometry">
            <mxPoint x="472" y="189.5" as="sourcePoint" />
            <mxPoint x="557" y="189.5" as="targetPoint" />
          </mxGeometry>
        </mxCell>
        <mxCell id="znwbQN6Xvx2vc_Z4a2mS-11" value="" style="endArrow=classic;html=1;rounded=0;entryX=0.5;entryY=0;entryDx=0;entryDy=0;" edge="1" parent="1" target="znwbQN6Xvx2vc_Z4a2mS-12">
          <mxGeometry width="50" height="50" relative="1" as="geometry">
            <mxPoint x="596.5" y="205" as="sourcePoint" />
            <mxPoint x="596.5" y="275" as="targetPoint" />
          </mxGeometry>
        </mxCell>
        <mxCell id="znwbQN6Xvx2vc_Z4a2mS-12" value="MoveKo" style="rounded=1;whiteSpace=wrap;html=1;" vertex="1" parent="1">
          <mxGeometry x="557" y="280" width="80" height="30" as="geometry" />
        </mxCell>
        <mxCell id="znwbQN6Xvx2vc_Z4a2mS-13" value="dopathfail" style="edgeLabel;html=1;align=center;verticalAlign=middle;resizable=0;points=[];" vertex="1" connectable="0" parent="1">
          <mxGeometry x="557" y="180" as="geometry">
            <mxPoint x="39" y="60" as="offset" />
          </mxGeometry>
        </mxCell>
        <mxCell id="znwbQN6Xvx2vc_Z4a2mS-14" value="" style="curved=1;endArrow=classic;html=1;rounded=0;exitX=0.125;exitY=1.133;exitDx=0;exitDy=0;exitPerimeter=0;entryX=0.125;entryY=0;entryDx=0;entryDy=0;entryPerimeter=0;" edge="1" parent="1" source="znwbQN6Xvx2vc_Z4a2mS-12" target="znwbQN6Xvx2vc_Z4a2mS-12">
          <mxGeometry width="50" height="50" relative="1" as="geometry">
            <mxPoint x="367" y="460" as="sourcePoint" />
            <mxPoint x="557" y="270" as="targetPoint" />
            <Array as="points">
              <mxPoint x="537" y="320" />
              <mxPoint x="507" y="300" />
              <mxPoint x="507" y="280" />
              <mxPoint x="537" y="250" />
            </Array>
          </mxGeometry>
        </mxCell>
        <mxCell id="znwbQN6Xvx2vc_Z4a2mS-15" value="dopathfail" style="edgeLabel;html=1;align=center;verticalAlign=middle;resizable=0;points=[];" vertex="1" connectable="0" parent="1">
          <mxGeometry x="472" y="220" as="geometry">
            <mxPoint x="39" y="60" as="offset" />
          </mxGeometry>
        </mxCell>
        <mxCell id="znwbQN6Xvx2vc_Z4a2mS-16" style="edgeStyle=orthogonalEdgeStyle;rounded=0;orthogonalLoop=1;jettySize=auto;html=1;entryX=0;entryY=0.5;entryDx=0;entryDy=0;" edge="1" parent="1">
          <mxGeometry relative="1" as="geometry">
            <mxPoint x="637" y="189.5" as="sourcePoint" />
            <mxPoint x="722" y="189.5" as="targetPoint" />
          </mxGeometry>
        </mxCell>
        <mxCell id="znwbQN6Xvx2vc_Z4a2mS-17" style="edgeStyle=orthogonalEdgeStyle;rounded=0;orthogonalLoop=1;jettySize=auto;html=1;endArrow=none;endFill=0;" edge="1" parent="1">
          <mxGeometry relative="1" as="geometry">
            <mxPoint x="637" y="294.5" as="sourcePoint" />
            <mxPoint x="677" y="190" as="targetPoint" />
          </mxGeometry>
        </mxCell>
        <mxCell id="znwbQN6Xvx2vc_Z4a2mS-18" value="dopathdone" style="edgeLabel;html=1;align=center;verticalAlign=middle;resizable=0;points=[];" vertex="1" connectable="0" parent="1">
          <mxGeometry x="677" y="187" as="geometry" />
        </mxCell>
        <mxCell id="znwbQN6Xvx2vc_Z4a2mS-19" value="dopathdone" style="edgeLabel;html=1;align=center;verticalAlign=middle;resizable=0;points=[];" vertex="1" connectable="0" parent="1">
          <mxGeometry x="677" y="240" as="geometry" />
        </mxCell>
        <mxCell id="znwbQN6Xvx2vc_Z4a2mS-20" value="LookForFix" style="rounded=1;whiteSpace=wrap;html=1;" vertex="1" parent="1">
          <mxGeometry x="727" y="175" width="80" height="30" as="geometry" />
        </mxCell>
        <mxCell id="znwbQN6Xvx2vc_Z4a2mS-21" value="" style="endArrow=classic;html=1;rounded=0;" edge="1" parent="1">
          <mxGeometry width="50" height="50" relative="1" as="geometry">
            <mxPoint x="770" y="174" as="sourcePoint" />
            <mxPoint x="770" y="104" as="targetPoint" />
          </mxGeometry>
        </mxCell>
        <mxCell id="znwbQN6Xvx2vc_Z4a2mS-22" value="" style="endArrow=classic;html=1;rounded=0;entryX=0.538;entryY=0;entryDx=0;entryDy=0;entryPerimeter=0;" edge="1" parent="1" target="znwbQN6Xvx2vc_Z4a2mS-23">
          <mxGeometry width="50" height="50" relative="1" as="geometry">
            <mxPoint x="770" y="205" as="sourcePoint" />
            <mxPoint x="770" y="275" as="targetPoint" />
          </mxGeometry>
        </mxCell>
        <mxCell id="znwbQN6Xvx2vc_Z4a2mS-23" value="MoveOk" style="rounded=1;whiteSpace=wrap;html=1;" vertex="1" parent="1">
          <mxGeometry x="727" y="280" width="80" height="30" as="geometry" />
        </mxCell>
        <mxCell id="znwbQN6Xvx2vc_Z4a2mS-24" value="FixDir" style="rounded=1;whiteSpace=wrap;html=1;" vertex="1" parent="1">
          <mxGeometry x="727" y="73" width="80" height="30" as="geometry" />
        </mxCell>
        <mxCell id="znwbQN6Xvx2vc_Z4a2mS-25" value="" style="endArrow=classic;html=1;rounded=0;exitX=0.588;exitY=1.1;exitDx=0;exitDy=0;exitPerimeter=0;entryX=0.5;entryY=1;entryDx=0;entryDy=0;" edge="1" parent="1" source="znwbQN6Xvx2vc_Z4a2mS-23" target="znwbQN6Xvx2vc_Z4a2mS-4">
          <mxGeometry width="50" height="50" relative="1" as="geometry">
            <mxPoint x="620" y="460" as="sourcePoint" />
            <mxPoint x="160" y="290" as="targetPoint" />
            <Array as="points">
              <mxPoint x="774" y="330" />
              <mxPoint x="160" y="330" />
              <mxPoint x="160" y="280" />
              <mxPoint x="160" y="210" />
            </Array>
          </mxGeometry>
        </mxCell>
        <mxCell id="znwbQN6Xvx2vc_Z4a2mS-26" value="" style="endArrow=classic;html=1;rounded=0;" edge="1" parent="1">
          <mxGeometry width="50" height="50" relative="1" as="geometry">
            <mxPoint x="727" y="90" as="sourcePoint" />
            <mxPoint x="600" y="170" as="targetPoint" />
            <Array as="points">
              <mxPoint x="600" y="90" />
            </Array>
          </mxGeometry>
        </mxCell>
        <mxCell id="znwbQN6Xvx2vc_Z4a2mS-27" value="someToFix == true" style="edgeLabel;html=1;align=center;verticalAlign=middle;resizable=0;points=[];" vertex="1" connectable="0" parent="1">
          <mxGeometry x="760" y="140" as="geometry">
            <mxPoint x="10" as="offset" />
          </mxGeometry>
        </mxCell>
        <mxCell id="znwbQN6Xvx2vc_Z4a2mS-28" value="someToFix == false" style="edgeLabel;html=1;align=center;verticalAlign=middle;resizable=0;points=[];" vertex="1" connectable="0" parent="1">
          <mxGeometry x="767" y="250" as="geometry">
            <mxPoint x="-1" y="-16" as="offset" />
          </mxGeometry>
        </mxCell>
        <mxCell id="znwbQN6Xvx2vc_Z4a2mS-29" value="TransportTrolleyCore" style="rounded=0;whiteSpace=wrap;html=1;" vertex="1" parent="1">
          <mxGeometry x="80" y="480" width="120" height="40" as="geometry" />
        </mxCell>
        <mxCell id="znwbQN6Xvx2vc_Z4a2mS-30" value="TransportTrolleyMover" style="rounded=0;whiteSpace=wrap;html=1;" vertex="1" parent="1">
          <mxGeometry x="260" y="480" width="130" height="40" as="geometry" />
        </mxCell>
        <mxCell id="znwbQN6Xvx2vc_Z4a2mS-31" value="PathExecutor" style="rounded=0;whiteSpace=wrap;html=1;" vertex="1" parent="1">
          <mxGeometry x="437" y="480" width="123" height="40" as="geometry" />
        </mxCell>
        <mxCell id="znwbQN6Xvx2vc_Z4a2mS-32" value="BasicRobot" style="rounded=0;whiteSpace=wrap;html=1;" vertex="1" parent="1">
          <mxGeometry x="620" y="480" width="120" height="40" as="geometry" />
        </mxCell>
        <mxCell id="znwbQN6Xvx2vc_Z4a2mS-33" value="Attore" style="shape=parallelogram;perimeter=parallelogramPerimeter;whiteSpace=wrap;html=1;fixedSize=1;" vertex="1" parent="1">
          <mxGeometry x="80" y="440" width="120" height="20" as="geometry" />
        </mxCell>
        <mxCell id="znwbQN6Xvx2vc_Z4a2mS-34" value="Attore" style="shape=parallelogram;perimeter=parallelogramPerimeter;whiteSpace=wrap;html=1;fixedSize=1;" vertex="1" parent="1">
          <mxGeometry x="270" y="439" width="120" height="20" as="geometry" />
        </mxCell>
        <mxCell id="znwbQN6Xvx2vc_Z4a2mS-35" value="Attore" style="shape=parallelogram;perimeter=parallelogramPerimeter;whiteSpace=wrap;html=1;fixedSize=1;" vertex="1" parent="1">
          <mxGeometry x="440" y="439" width="120" height="20" as="geometry" />
        </mxCell>
        <mxCell id="znwbQN6Xvx2vc_Z4a2mS-36" value="Attore" style="shape=parallelogram;perimeter=parallelogramPerimeter;whiteSpace=wrap;html=1;fixedSize=1;" vertex="1" parent="1">
          <mxGeometry x="620" y="439" width="120" height="20" as="geometry" />
        </mxCell>
        <mxCell id="znwbQN6Xvx2vc_Z4a2mS-37" value="" style="endArrow=none;dashed=1;html=1;dashPattern=1 3;strokeWidth=2;rounded=0;" edge="1" parent="1" source="znwbQN6Xvx2vc_Z4a2mS-42">
          <mxGeometry width="50" height="50" relative="1" as="geometry">
            <mxPoint x="139.5" y="800" as="sourcePoint" />
            <mxPoint x="139.5" y="520" as="targetPoint" />
          </mxGeometry>
        </mxCell>
        <mxCell id="znwbQN6Xvx2vc_Z4a2mS-38" value="" style="endArrow=none;dashed=1;html=1;dashPattern=1 3;strokeWidth=2;rounded=0;" edge="1" parent="1" source="znwbQN6Xvx2vc_Z4a2mS-44">
          <mxGeometry width="50" height="50" relative="1" as="geometry">
            <mxPoint x="324.5" y="800" as="sourcePoint" />
            <mxPoint x="324.5" y="520" as="targetPoint" />
          </mxGeometry>
        </mxCell>
        <mxCell id="znwbQN6Xvx2vc_Z4a2mS-39" value="" style="endArrow=none;dashed=1;html=1;dashPattern=1 3;strokeWidth=2;rounded=0;" edge="1" parent="1" source="znwbQN6Xvx2vc_Z4a2mS-46">
          <mxGeometry width="50" height="50" relative="1" as="geometry">
            <mxPoint x="500" y="800" as="sourcePoint" />
            <mxPoint x="500" y="520" as="targetPoint" />
          </mxGeometry>
        </mxCell>
        <mxCell id="znwbQN6Xvx2vc_Z4a2mS-40" value="" style="endArrow=none;dashed=1;html=1;dashPattern=1 3;strokeWidth=2;rounded=0;" edge="1" parent="1" source="znwbQN6Xvx2vc_Z4a2mS-48">
          <mxGeometry width="50" height="50" relative="1" as="geometry">
            <mxPoint x="679.5" y="800" as="sourcePoint" />
            <mxPoint x="679.5" y="520" as="targetPoint" />
          </mxGeometry>
        </mxCell>
        <mxCell id="znwbQN6Xvx2vc_Z4a2mS-41" value="" style="endArrow=none;dashed=1;html=1;dashPattern=1 3;strokeWidth=2;rounded=0;" edge="1" parent="1" target="znwbQN6Xvx2vc_Z4a2mS-42">
          <mxGeometry width="50" height="50" relative="1" as="geometry">
            <mxPoint x="140" y="820" as="sourcePoint" />
            <mxPoint x="139.5" y="520" as="targetPoint" />
          </mxGeometry>
        </mxCell>
        <mxCell id="znwbQN6Xvx2vc_Z4a2mS-42" value="" style="rounded=0;whiteSpace=wrap;html=1;rotation=-90;" vertex="1" parent="1">
          <mxGeometry x="13.13" y="660" width="253.75" height="10" as="geometry" />
        </mxCell>
        <mxCell id="znwbQN6Xvx2vc_Z4a2mS-43" value="" style="endArrow=none;dashed=1;html=1;dashPattern=1 3;strokeWidth=2;rounded=0;" edge="1" parent="1" target="znwbQN6Xvx2vc_Z4a2mS-44">
          <mxGeometry width="50" height="50" relative="1" as="geometry">
            <mxPoint x="325" y="820" as="sourcePoint" />
            <mxPoint x="324.5" y="520" as="targetPoint" />
          </mxGeometry>
        </mxCell>
        <mxCell id="znwbQN6Xvx2vc_Z4a2mS-44" value="" style="rounded=0;whiteSpace=wrap;html=1;rotation=-90;" vertex="1" parent="1">
          <mxGeometry x="214.77" y="644.29" width="220.47" height="10" as="geometry" />
        </mxCell>
        <mxCell id="znwbQN6Xvx2vc_Z4a2mS-45" value="" style="endArrow=none;dashed=1;html=1;dashPattern=1 3;strokeWidth=2;rounded=0;" edge="1" parent="1" target="znwbQN6Xvx2vc_Z4a2mS-46">
          <mxGeometry width="50" height="50" relative="1" as="geometry">
            <mxPoint x="500" y="820" as="sourcePoint" />
            <mxPoint x="500" y="520" as="targetPoint" />
          </mxGeometry>
        </mxCell>
        <mxCell id="znwbQN6Xvx2vc_Z4a2mS-46" value="" style="rounded=0;whiteSpace=wrap;html=1;rotation=-90;" vertex="1" parent="1">
          <mxGeometry x="402.9" y="628.71" width="191.18" height="10" as="geometry" />
        </mxCell>
        <mxCell id="znwbQN6Xvx2vc_Z4a2mS-47" value="" style="endArrow=none;dashed=1;html=1;dashPattern=1 3;strokeWidth=2;rounded=0;" edge="1" parent="1" target="znwbQN6Xvx2vc_Z4a2mS-48">
          <mxGeometry width="50" height="50" relative="1" as="geometry">
            <mxPoint x="680" y="820" as="sourcePoint" />
            <mxPoint x="679.5" y="520" as="targetPoint" />
          </mxGeometry>
        </mxCell>
        <mxCell id="znwbQN6Xvx2vc_Z4a2mS-48" value="" style="rounded=0;whiteSpace=wrap;html=1;rotation=-90;" vertex="1" parent="1">
          <mxGeometry x="593.28" y="619.84" width="173.43" height="10" as="geometry" />
        </mxCell>
        <mxCell id="znwbQN6Xvx2vc_Z4a2mS-49" value="" style="endArrow=classic;html=1;rounded=0;entryX=0.75;entryY=0;entryDx=0;entryDy=0;fillColor=#e6d0de;gradientColor=#d5739d;strokeColor=#ff80ff;strokeWidth=3;exitX=0.867;exitY=0.899;exitDx=0;exitDy=0;exitPerimeter=0;" edge="1" parent="1" source="znwbQN6Xvx2vc_Z4a2mS-42">
          <mxGeometry width="50" height="50" relative="1" as="geometry">
            <mxPoint x="150" y="572" as="sourcePoint" />
            <mxPoint x="320" y="571.7950000000001" as="targetPoint" />
          </mxGeometry>
        </mxCell>
        <mxCell id="znwbQN6Xvx2vc_Z4a2mS-50" value="" style="endArrow=classic;html=1;rounded=0;fillColor=#e6d0de;gradientColor=#d5739d;strokeColor=#ff80ff;strokeWidth=3;exitX=0.867;exitY=0.899;exitDx=0;exitDy=0;exitPerimeter=0;" edge="1" parent="1">
          <mxGeometry width="50" height="50" relative="1" as="geometry">
            <mxPoint x="330" y="596.76" as="sourcePoint" />
            <mxPoint x="490" y="597" as="targetPoint" />
          </mxGeometry>
        </mxCell>
        <mxCell id="znwbQN6Xvx2vc_Z4a2mS-51" value="" style="endArrow=classic;html=1;rounded=0;entryX=0.555;entryY=-0.066;entryDx=0;entryDy=0;fillColor=#e6d0de;gradientColor=#d5739d;strokeColor=#ff80ff;strokeWidth=3;jumpSize=5;startSize=0;entryPerimeter=0;" edge="1" parent="1" target="znwbQN6Xvx2vc_Z4a2mS-48">
          <mxGeometry width="50" height="50" relative="1" as="geometry">
            <mxPoint x="502" y="616" as="sourcePoint" />
            <mxPoint x="679" y="615.8050000000001" as="targetPoint" />
          </mxGeometry>
        </mxCell>
        <mxCell id="znwbQN6Xvx2vc_Z4a2mS-52" value="moveto" style="edgeLabel;html=1;align=center;verticalAlign=middle;resizable=0;points=[];" vertex="1" connectable="0" parent="1">
          <mxGeometry x="230" y="570" as="geometry" />
        </mxCell>
        <mxCell id="znwbQN6Xvx2vc_Z4a2mS-53" value="dopath" style="edgeLabel;html=1;align=center;verticalAlign=middle;resizable=0;points=[];" vertex="1" connectable="0" parent="1">
          <mxGeometry x="411.9" y="596" as="geometry" />
        </mxCell>
        <mxCell id="znwbQN6Xvx2vc_Z4a2mS-54" value="step" style="edgeLabel;html=1;align=center;verticalAlign=middle;resizable=0;points=[];" vertex="1" connectable="0" parent="1">
          <mxGeometry x="593.28" y="615" as="geometry" />
        </mxCell>
        <mxCell id="znwbQN6Xvx2vc_Z4a2mS-55" value="" style="endArrow=classic;html=1;rounded=0;entryX=0.555;entryY=-0.066;entryDx=0;entryDy=0;fillColor=#e6d0de;gradientColor=#d5739d;strokeColor=#0080ff;strokeWidth=3;jumpSize=5;startSize=0;entryPerimeter=0;" edge="1" parent="1">
          <mxGeometry width="50" height="50" relative="1" as="geometry">
            <mxPoint x="505" y="691" as="sourcePoint" />
            <mxPoint x="677" y="690" as="targetPoint" />
          </mxGeometry>
        </mxCell>
        <mxCell id="znwbQN6Xvx2vc_Z4a2mS-56" value="cmd" style="edgeLabel;html=1;align=center;verticalAlign=middle;resizable=0;points=[];" vertex="1" connectable="0" parent="1">
          <mxGeometry x="593.28" y="690" as="geometry">
            <mxPoint x="-1" y="-2" as="offset" />
          </mxGeometry>
        </mxCell>
        <mxCell id="znwbQN6Xvx2vc_Z4a2mS-57" value="" style="endArrow=classic;html=1;rounded=0;entryX=0.555;entryY=-0.066;entryDx=0;entryDy=0;fillColor=#e6d0de;gradientColor=#d5739d;strokeColor=#008000;strokeWidth=3;jumpSize=5;startSize=0;entryPerimeter=0;dashed=1;" edge="1" parent="1">
          <mxGeometry width="50" height="50" relative="1" as="geometry">
            <mxPoint x="677" y="654.29" as="sourcePoint" />
            <mxPoint x="505" y="655.29" as="targetPoint" />
          </mxGeometry>
        </mxCell>
        <mxCell id="znwbQN6Xvx2vc_Z4a2mS-58" value="stepdone/fail" style="edgeLabel;html=1;align=center;verticalAlign=middle;resizable=0;points=[];" vertex="1" connectable="0" parent="1">
          <mxGeometry x="593.28" y="654.29" as="geometry" />
        </mxCell>
        <mxCell id="znwbQN6Xvx2vc_Z4a2mS-59" value="" style="endArrow=classic;html=1;rounded=0;entryX=0.555;entryY=-0.066;entryDx=0;entryDy=0;fillColor=#e6d0de;gradientColor=#d5739d;strokeColor=#008000;strokeWidth=3;jumpSize=5;startSize=0;entryPerimeter=0;dashed=1;" edge="1" parent="1">
          <mxGeometry width="50" height="50" relative="1" as="geometry">
            <mxPoint x="492" y="711" as="sourcePoint" />
            <mxPoint x="330" y="711" as="targetPoint" />
          </mxGeometry>
        </mxCell>
        <mxCell id="znwbQN6Xvx2vc_Z4a2mS-60" value="" style="endArrow=classic;html=1;rounded=0;entryX=0.555;entryY=-0.066;entryDx=0;entryDy=0;fillColor=#e6d0de;gradientColor=#d5739d;strokeColor=#008000;strokeWidth=3;jumpSize=5;startSize=0;entryPerimeter=0;dashed=1;" edge="1" parent="1">
          <mxGeometry width="50" height="50" relative="1" as="geometry">
            <mxPoint x="318" y="740" as="sourcePoint" />
            <mxPoint x="146" y="741" as="targetPoint" />
          </mxGeometry>
        </mxCell>
        <mxCell id="znwbQN6Xvx2vc_Z4a2mS-61" value="dopathdone/fail" style="edgeLabel;html=1;align=center;verticalAlign=middle;resizable=0;points=[];" vertex="1" connectable="0" parent="1">
          <mxGeometry x="414" y="710" as="geometry" />
        </mxCell>
        <mxCell id="znwbQN6Xvx2vc_Z4a2mS-62" value="moveok/ko" style="edgeLabel;html=1;align=center;verticalAlign=middle;resizable=0;points=[];" vertex="1" connectable="0" parent="1">
          <mxGeometry x="230" y="740" as="geometry" />
        </mxCell>
        <mxCell id="bKgXFgtErOWbTx_xvyyd-3" value="END" style="rounded=1;whiteSpace=wrap;html=1;" vertex="1" parent="1">
          <mxGeometry x="120" y="90" width="80" height="30" as="geometry" />
        </mxCell>
        <mxCell id="bKgXFgtErOWbTx_xvyyd-5" value="&lt;div&gt;exit&lt;/div&gt;" style="edgeLabel;html=1;align=center;verticalAlign=middle;resizable=0;points=[];" vertex="1" connectable="0" parent="1">
          <mxGeometry x="159.99714285714288" y="150" as="geometry" />
        </mxCell>
      </root>
    </mxGraphModel>
  </diagram>
  <diagram id="WekNFkJp9_RkJ0awz1Qg" name="executor">
    <mxGraphModel dx="1238" dy="645" grid="1" gridSize="10" guides="1" tooltips="1" connect="1" arrows="1" fold="1" page="1" pageScale="1" pageWidth="827" pageHeight="1169" math="0" shadow="0">
      <root>
        <mxCell id="0" />
        <mxCell id="1" parent="0" />
        <mxCell id="pgAP__sZy--7Cbska-6S-1" value="TransportTrolleyCore" style="rounded=0;whiteSpace=wrap;html=1;" vertex="1" parent="1">
          <mxGeometry x="80" y="81" width="120" height="40" as="geometry" />
        </mxCell>
        <mxCell id="pgAP__sZy--7Cbska-6S-2" value="TransportTrolleyExecutor" style="rounded=0;whiteSpace=wrap;html=1;" vertex="1" parent="1">
          <mxGeometry x="260" y="81" width="140" height="40" as="geometry" />
        </mxCell>
        <mxCell id="pgAP__sZy--7Cbska-6S-5" value="Attore" style="shape=parallelogram;perimeter=parallelogramPerimeter;whiteSpace=wrap;html=1;fixedSize=1;" vertex="1" parent="1">
          <mxGeometry x="80" y="41" width="120" height="20" as="geometry" />
        </mxCell>
        <mxCell id="pgAP__sZy--7Cbska-6S-6" value="Attore" style="shape=parallelogram;perimeter=parallelogramPerimeter;whiteSpace=wrap;html=1;fixedSize=1;" vertex="1" parent="1">
          <mxGeometry x="270" y="40" width="120" height="20" as="geometry" />
        </mxCell>
        <mxCell id="pgAP__sZy--7Cbska-6S-9" value="" style="endArrow=none;dashed=1;html=1;dashPattern=1 3;strokeWidth=2;rounded=0;" edge="1" parent="1" source="pgAP__sZy--7Cbska-6S-14">
          <mxGeometry width="50" height="50" relative="1" as="geometry">
            <mxPoint x="139.5" y="401" as="sourcePoint" />
            <mxPoint x="139.5" y="121" as="targetPoint" />
          </mxGeometry>
        </mxCell>
        <mxCell id="pgAP__sZy--7Cbska-6S-10" value="" style="endArrow=none;dashed=1;html=1;dashPattern=1 3;strokeWidth=2;rounded=0;" edge="1" parent="1" source="pgAP__sZy--7Cbska-6S-16">
          <mxGeometry width="50" height="50" relative="1" as="geometry">
            <mxPoint x="324.5" y="401" as="sourcePoint" />
            <mxPoint x="324.5" y="121" as="targetPoint" />
          </mxGeometry>
        </mxCell>
        <mxCell id="pgAP__sZy--7Cbska-6S-13" value="" style="endArrow=none;dashed=1;html=1;dashPattern=1 3;strokeWidth=2;rounded=0;" edge="1" parent="1" target="pgAP__sZy--7Cbska-6S-14">
          <mxGeometry width="50" height="50" relative="1" as="geometry">
            <mxPoint x="140" y="421" as="sourcePoint" />
            <mxPoint x="139.5" y="121" as="targetPoint" />
          </mxGeometry>
        </mxCell>
        <mxCell id="pgAP__sZy--7Cbska-6S-14" value="" style="rounded=0;whiteSpace=wrap;html=1;rotation=-90;" vertex="1" parent="1">
          <mxGeometry x="13.13" y="261" width="253.75" height="10" as="geometry" />
        </mxCell>
        <mxCell id="pgAP__sZy--7Cbska-6S-15" value="" style="endArrow=none;dashed=1;html=1;dashPattern=1 3;strokeWidth=2;rounded=0;" edge="1" parent="1" target="pgAP__sZy--7Cbska-6S-16">
          <mxGeometry width="50" height="50" relative="1" as="geometry">
            <mxPoint x="325" y="421" as="sourcePoint" />
            <mxPoint x="324.5" y="121" as="targetPoint" />
          </mxGeometry>
        </mxCell>
        <mxCell id="pgAP__sZy--7Cbska-6S-16" value="" style="rounded=0;whiteSpace=wrap;html=1;rotation=-90;" vertex="1" parent="1">
          <mxGeometry x="214.77" y="245.28999999999996" width="220.47" height="10" as="geometry" />
        </mxCell>
        <mxCell id="pgAP__sZy--7Cbska-6S-21" value="" style="endArrow=classic;html=1;rounded=0;entryX=0.75;entryY=0;entryDx=0;entryDy=0;fillColor=#e6d0de;gradientColor=#d5739d;strokeColor=#ff80ff;strokeWidth=3;exitX=0.867;exitY=0.899;exitDx=0;exitDy=0;exitPerimeter=0;" edge="1" parent="1" source="pgAP__sZy--7Cbska-6S-14">
          <mxGeometry width="50" height="50" relative="1" as="geometry">
            <mxPoint x="150" y="173" as="sourcePoint" />
            <mxPoint x="320" y="172.79500000000007" as="targetPoint" />
          </mxGeometry>
        </mxCell>
        <mxCell id="pgAP__sZy--7Cbska-6S-24" value="execaction" style="edgeLabel;html=1;align=center;verticalAlign=middle;resizable=0;points=[];" vertex="1" connectable="0" parent="1">
          <mxGeometry x="230" y="171" as="geometry" />
        </mxCell>
        <mxCell id="pgAP__sZy--7Cbska-6S-32" value="" style="endArrow=classic;html=1;rounded=0;entryX=0.555;entryY=-0.066;entryDx=0;entryDy=0;fillColor=#e6d0de;gradientColor=#d5739d;strokeColor=#008000;strokeWidth=3;jumpSize=5;startSize=0;entryPerimeter=0;dashed=1;" edge="1" parent="1">
          <mxGeometry width="50" height="50" relative="1" as="geometry">
            <mxPoint x="318" y="341" as="sourcePoint" />
            <mxPoint x="146" y="342" as="targetPoint" />
          </mxGeometry>
        </mxCell>
        <mxCell id="pgAP__sZy--7Cbska-6S-34" value="execok/ko" style="edgeLabel;html=1;align=center;verticalAlign=middle;resizable=0;points=[];" vertex="1" connectable="0" parent="1">
          <mxGeometry x="230" y="341" as="geometry" />
        </mxCell>
        <mxCell id="KG9zySjMA5Wth70n-8fg-1" style="edgeStyle=orthogonalEdgeStyle;rounded=0;orthogonalLoop=1;jettySize=auto;html=1;entryX=0;entryY=0.5;entryDx=0;entryDy=0;" edge="1" parent="1" source="KG9zySjMA5Wth70n-8fg-2" target="KG9zySjMA5Wth70n-8fg-5">
          <mxGeometry relative="1" as="geometry" />
        </mxCell>
        <mxCell id="KG9zySjMA5Wth70n-8fg-2" value="" style="ellipse;whiteSpace=wrap;html=1;aspect=fixed;fillColor=#000000;" vertex="1" parent="1">
          <mxGeometry x="20" y="607" width="20" height="20" as="geometry" />
        </mxCell>
        <mxCell id="KG9zySjMA5Wth70n-8fg-3" style="edgeStyle=orthogonalEdgeStyle;rounded=0;orthogonalLoop=1;jettySize=auto;html=1;entryX=0;entryY=0.5;entryDx=0;entryDy=0;" edge="1" parent="1" source="KG9zySjMA5Wth70n-8fg-5" target="KG9zySjMA5Wth70n-8fg-8">
          <mxGeometry relative="1" as="geometry">
            <mxPoint x="270" y="617" as="targetPoint" />
          </mxGeometry>
        </mxCell>
        <mxCell id="KG9zySjMA5Wth70n-8fg-4" value="" style="edgeStyle=orthogonalEdgeStyle;rounded=0;orthogonalLoop=1;jettySize=auto;html=1;" edge="1" parent="1" source="KG9zySjMA5Wth70n-8fg-5" target="KG9zySjMA5Wth70n-8fg-30">
          <mxGeometry relative="1" as="geometry" />
        </mxCell>
        <mxCell id="KG9zySjMA5Wth70n-8fg-5" value="IDLE" style="rounded=1;whiteSpace=wrap;html=1;" vertex="1" parent="1">
          <mxGeometry x="120" y="602" width="80" height="30" as="geometry" />
        </mxCell>
        <mxCell id="KG9zySjMA5Wth70n-8fg-6" style="edgeStyle=orthogonalEdgeStyle;rounded=0;orthogonalLoop=1;jettySize=auto;html=1;entryX=0;entryY=0.5;entryDx=0;entryDy=0;" edge="1" parent="1" source="KG9zySjMA5Wth70n-8fg-8" target="KG9zySjMA5Wth70n-8fg-9">
          <mxGeometry relative="1" as="geometry">
            <mxPoint x="390" y="560" as="targetPoint" />
            <Array as="points">
              <mxPoint x="380" y="617" />
              <mxPoint x="380" y="543" />
            </Array>
          </mxGeometry>
        </mxCell>
        <mxCell id="KG9zySjMA5Wth70n-8fg-7" value="execaction" style="edgeLabel;html=1;align=center;verticalAlign=middle;resizable=0;points=[];" vertex="1" connectable="0" parent="KG9zySjMA5Wth70n-8fg-6">
          <mxGeometry x="-0.4774" relative="1" as="geometry">
            <mxPoint x="-140" y="13" as="offset" />
          </mxGeometry>
        </mxCell>
        <mxCell id="KG9zySjMA5Wth70n-8fg-32" value="" style="edgeStyle=orthogonalEdgeStyle;rounded=0;orthogonalLoop=1;jettySize=auto;html=1;" edge="1" parent="1" source="KG9zySjMA5Wth70n-8fg-8" target="KG9zySjMA5Wth70n-8fg-10">
          <mxGeometry relative="1" as="geometry">
            <Array as="points">
              <mxPoint x="380" y="617" />
              <mxPoint x="380" y="684" />
            </Array>
          </mxGeometry>
        </mxCell>
        <mxCell id="KG9zySjMA5Wth70n-8fg-8" value="&lt;div&gt;Action&lt;/div&gt;&lt;div&gt;Eval&lt;br&gt;&lt;/div&gt;" style="rounded=1;whiteSpace=wrap;html=1;" vertex="1" parent="1">
          <mxGeometry x="285" y="602" width="80" height="30" as="geometry" />
        </mxCell>
        <mxCell id="KG9zySjMA5Wth70n-8fg-9" value="&lt;div&gt;Exec&lt;/div&gt;&lt;div&gt;Pickup&lt;br&gt;&lt;/div&gt;" style="rounded=1;whiteSpace=wrap;html=1;" vertex="1" parent="1">
          <mxGeometry x="400" y="528" width="80" height="30" as="geometry" />
        </mxCell>
        <mxCell id="KG9zySjMA5Wth70n-8fg-10" value="&lt;div&gt;Exec&lt;/div&gt;&lt;div&gt;Dropout&lt;br&gt;&lt;/div&gt;" style="rounded=1;whiteSpace=wrap;html=1;" vertex="1" parent="1">
          <mxGeometry x="400" y="669" width="80" height="30" as="geometry" />
        </mxCell>
        <mxCell id="KG9zySjMA5Wth70n-8fg-19" value="action=pickup" style="edgeLabel;html=1;align=center;verticalAlign=middle;resizable=0;points=[];" vertex="1" connectable="0" parent="1">
          <mxGeometry x="380" y="576" as="geometry" />
        </mxCell>
        <mxCell id="KG9zySjMA5Wth70n-8fg-26" value="" style="endArrow=classic;html=1;rounded=0;entryX=0.5;entryY=1;entryDx=0;entryDy=0;" edge="1" parent="1" target="KG9zySjMA5Wth70n-8fg-5">
          <mxGeometry width="50" height="50" relative="1" as="geometry">
            <mxPoint x="500" y="680" as="sourcePoint" />
            <mxPoint x="160" y="717" as="targetPoint" />
            <Array as="points">
              <mxPoint x="500" y="760" />
              <mxPoint x="160" y="760" />
              <mxPoint x="160" y="707" />
              <mxPoint x="160" y="637" />
            </Array>
          </mxGeometry>
        </mxCell>
        <mxCell id="KG9zySjMA5Wth70n-8fg-30" value="END" style="rounded=1;whiteSpace=wrap;html=1;" vertex="1" parent="1">
          <mxGeometry x="120" y="517" width="80" height="30" as="geometry" />
        </mxCell>
        <mxCell id="KG9zySjMA5Wth70n-8fg-31" value="&lt;div&gt;exit&lt;/div&gt;" style="edgeLabel;html=1;align=center;verticalAlign=middle;resizable=0;points=[];" vertex="1" connectable="0" parent="1">
          <mxGeometry x="159.99714285714288" y="577" as="geometry" />
        </mxCell>
        <mxCell id="KG9zySjMA5Wth70n-8fg-33" value="action=dropout" style="edgeLabel;html=1;align=center;verticalAlign=middle;resizable=0;points=[];" vertex="1" connectable="0" parent="1">
          <mxGeometry x="390" y="650" as="geometry" />
        </mxCell>
        <mxCell id="KG9zySjMA5Wth70n-8fg-34" value="" style="endArrow=none;html=1;rounded=0;exitX=1;exitY=0.5;exitDx=0;exitDy=0;" edge="1" parent="1" source="KG9zySjMA5Wth70n-8fg-9">
          <mxGeometry width="50" height="50" relative="1" as="geometry">
            <mxPoint x="580" y="550" as="sourcePoint" />
            <mxPoint x="500" y="680" as="targetPoint" />
            <Array as="points">
              <mxPoint x="500" y="543" />
            </Array>
          </mxGeometry>
        </mxCell>
        <mxCell id="KG9zySjMA5Wth70n-8fg-35" value="" style="endArrow=none;html=1;rounded=0;exitX=1;exitY=0.5;exitDx=0;exitDy=0;" edge="1" parent="1" source="KG9zySjMA5Wth70n-8fg-10">
          <mxGeometry width="50" height="50" relative="1" as="geometry">
            <mxPoint x="580" y="550" as="sourcePoint" />
            <mxPoint x="500" y="684" as="targetPoint" />
          </mxGeometry>
        </mxCell>
      </root>
    </mxGraphModel>
  </diagram>
  <diagram name="Pagina-1" id="Ej5srA3dobbQVu6CBg13">
    <mxGraphModel dx="1434" dy="774" grid="1" gridSize="10" guides="1" tooltips="1" connect="1" arrows="1" fold="1" page="1" pageScale="1" pageWidth="827" pageHeight="1169" math="0" shadow="0">
      <root>
        <mxCell id="0" />
        <mxCell id="1" parent="0" />
        <mxCell id="evXno2pd6YUgpvmUlYzn-1" style="edgeStyle=orthogonalEdgeStyle;rounded=0;orthogonalLoop=1;jettySize=auto;html=1;entryX=0;entryY=0.5;entryDx=0;entryDy=0;" parent="1" source="evXno2pd6YUgpvmUlYzn-2" target="evXno2pd6YUgpvmUlYzn-4" edge="1">
          <mxGeometry relative="1" as="geometry" />
        </mxCell>
        <mxCell id="evXno2pd6YUgpvmUlYzn-2" value="" style="ellipse;whiteSpace=wrap;html=1;aspect=fixed;fillColor=#000000;" parent="1" vertex="1">
          <mxGeometry x="20" y="180" width="20" height="20" as="geometry" />
        </mxCell>
        <mxCell id="evXno2pd6YUgpvmUlYzn-3" style="edgeStyle=orthogonalEdgeStyle;rounded=0;orthogonalLoop=1;jettySize=auto;html=1;" parent="1" source="evXno2pd6YUgpvmUlYzn-4" target="evXno2pd6YUgpvmUlYzn-8" edge="1">
          <mxGeometry relative="1" as="geometry" />
        </mxCell>
        <mxCell id="evXno2pd6YUgpvmUlYzn-4" value="IDLE" style="rounded=1;whiteSpace=wrap;html=1;" parent="1" vertex="1">
          <mxGeometry x="120" y="175" width="80" height="30" as="geometry" />
        </mxCell>
        <mxCell id="evXno2pd6YUgpvmUlYzn-5" style="edgeStyle=orthogonalEdgeStyle;rounded=0;orthogonalLoop=1;jettySize=auto;html=1;exitX=0.5;exitY=1;exitDx=0;exitDy=0;entryX=0.5;entryY=0;entryDx=0;entryDy=0;" parent="1" source="evXno2pd6YUgpvmUlYzn-8" target="evXno2pd6YUgpvmUlYzn-18" edge="1">
          <mxGeometry relative="1" as="geometry" />
        </mxCell>
        <mxCell id="evXno2pd6YUgpvmUlYzn-6" style="edgeStyle=orthogonalEdgeStyle;rounded=0;orthogonalLoop=1;jettySize=auto;html=1;" parent="1" source="evXno2pd6YUgpvmUlYzn-8" target="evXno2pd6YUgpvmUlYzn-36" edge="1">
          <mxGeometry relative="1" as="geometry" />
        </mxCell>
        <mxCell id="evXno2pd6YUgpvmUlYzn-7" value="&lt;font style=&quot;font-size: 7px;&quot;&gt;After 60 seconds if there was no answer&lt;/font&gt;" style="edgeLabel;html=1;align=center;verticalAlign=middle;resizable=0;points=[];" parent="evXno2pd6YUgpvmUlYzn-6" vertex="1" connectable="0">
          <mxGeometry x="-0.4774" relative="1" as="geometry">
            <mxPoint as="offset" />
          </mxGeometry>
        </mxCell>
        <mxCell id="evXno2pd6YUgpvmUlYzn-8" value="SendStore" style="rounded=1;whiteSpace=wrap;html=1;" parent="1" vertex="1">
          <mxGeometry x="280" y="175" width="80" height="30" as="geometry" />
        </mxCell>
        <mxCell id="evXno2pd6YUgpvmUlYzn-9" style="edgeStyle=orthogonalEdgeStyle;rounded=0;orthogonalLoop=1;jettySize=auto;html=1;entryX=0.5;entryY=1;entryDx=0;entryDy=0;" parent="1" source="evXno2pd6YUgpvmUlYzn-10" target="evXno2pd6YUgpvmUlYzn-4" edge="1">
          <mxGeometry relative="1" as="geometry">
            <Array as="points">
              <mxPoint x="160" y="270" />
            </Array>
          </mxGeometry>
        </mxCell>
        <mxCell id="evXno2pd6YUgpvmUlYzn-10" value="Rejected" style="rounded=1;whiteSpace=wrap;html=1;" parent="1" vertex="1">
          <mxGeometry x="200" y="260" width="80" height="30" as="geometry" />
        </mxCell>
        <mxCell id="evXno2pd6YUgpvmUlYzn-11" style="edgeStyle=orthogonalEdgeStyle;rounded=0;orthogonalLoop=1;jettySize=auto;html=1;entryX=0.5;entryY=0;entryDx=0;entryDy=0;" parent="1" source="evXno2pd6YUgpvmUlYzn-13" target="evXno2pd6YUgpvmUlYzn-22" edge="1">
          <mxGeometry relative="1" as="geometry" />
        </mxCell>
        <mxCell id="evXno2pd6YUgpvmUlYzn-12" value="&lt;font style=&quot;font-size: 8px;&quot;&gt;After &lt;b&gt;DT &lt;/b&gt;milliseconds&lt;/font&gt;" style="edgeLabel;html=1;align=center;verticalAlign=middle;resizable=0;points=[];" parent="evXno2pd6YUgpvmUlYzn-11" vertex="1" connectable="0">
          <mxGeometry x="-0.0643" relative="1" as="geometry">
            <mxPoint as="offset" />
          </mxGeometry>
        </mxCell>
        <mxCell id="evXno2pd6YUgpvmUlYzn-13" value="Accepted" style="rounded=1;whiteSpace=wrap;html=1;" parent="1" vertex="1">
          <mxGeometry x="360" y="260" width="80" height="30" as="geometry" />
        </mxCell>
        <mxCell id="evXno2pd6YUgpvmUlYzn-14" style="edgeStyle=orthogonalEdgeStyle;rounded=0;orthogonalLoop=1;jettySize=auto;html=1;exitX=1;exitY=0.5;exitDx=0;exitDy=0;entryX=0.5;entryY=0;entryDx=0;entryDy=0;" parent="1" source="evXno2pd6YUgpvmUlYzn-18" target="evXno2pd6YUgpvmUlYzn-13" edge="1">
          <mxGeometry relative="1" as="geometry" />
        </mxCell>
        <mxCell id="evXno2pd6YUgpvmUlYzn-15" value="&lt;font style=&quot;font-size: 8px;&quot;&gt;StoreAccepted&lt;/font&gt;" style="edgeLabel;html=1;align=center;verticalAlign=middle;resizable=0;points=[];" parent="evXno2pd6YUgpvmUlYzn-14" vertex="1" connectable="0">
          <mxGeometry x="-0.2984" y="2" relative="1" as="geometry">
            <mxPoint as="offset" />
          </mxGeometry>
        </mxCell>
        <mxCell id="evXno2pd6YUgpvmUlYzn-16" style="edgeStyle=orthogonalEdgeStyle;rounded=0;orthogonalLoop=1;jettySize=auto;html=1;entryX=0.5;entryY=0;entryDx=0;entryDy=0;" parent="1" source="evXno2pd6YUgpvmUlYzn-18" target="evXno2pd6YUgpvmUlYzn-10" edge="1">
          <mxGeometry relative="1" as="geometry" />
        </mxCell>
        <mxCell id="evXno2pd6YUgpvmUlYzn-17" value="&lt;font style=&quot;font-size: 8px;&quot;&gt;StoreRejected&lt;/font&gt;" style="edgeLabel;html=1;align=center;verticalAlign=middle;resizable=0;points=[];" parent="evXno2pd6YUgpvmUlYzn-16" vertex="1" connectable="0">
          <mxGeometry x="-0.3166" relative="1" as="geometry">
            <mxPoint as="offset" />
          </mxGeometry>
        </mxCell>
        <mxCell id="evXno2pd6YUgpvmUlYzn-18" value="" style="rhombus;whiteSpace=wrap;html=1;" parent="1" vertex="1">
          <mxGeometry x="310" y="230" width="20" height="20" as="geometry" />
        </mxCell>
        <mxCell id="evXno2pd6YUgpvmUlYzn-19" style="edgeStyle=orthogonalEdgeStyle;rounded=0;orthogonalLoop=1;jettySize=auto;html=1;entryX=0.5;entryY=0;entryDx=0;entryDy=0;" parent="1" source="evXno2pd6YUgpvmUlYzn-22" target="evXno2pd6YUgpvmUlYzn-27" edge="1">
          <mxGeometry relative="1" as="geometry" />
        </mxCell>
        <mxCell id="evXno2pd6YUgpvmUlYzn-20" style="edgeStyle=orthogonalEdgeStyle;rounded=0;orthogonalLoop=1;jettySize=auto;html=1;exitX=1;exitY=0.5;exitDx=0;exitDy=0;entryX=0.5;entryY=1;entryDx=0;entryDy=0;" parent="1" source="evXno2pd6YUgpvmUlYzn-22" target="evXno2pd6YUgpvmUlYzn-36" edge="1">
          <mxGeometry relative="1" as="geometry">
            <Array as="points">
              <mxPoint x="440" y="350" />
              <mxPoint x="610" y="350" />
            </Array>
          </mxGeometry>
        </mxCell>
        <mxCell id="evXno2pd6YUgpvmUlYzn-21" value="&lt;font style=&quot;font-size: 7px;&quot;&gt;After 60 seconds if there was no answer&lt;/font&gt;" style="edgeLabel;html=1;align=center;verticalAlign=middle;resizable=0;points=[];" parent="evXno2pd6YUgpvmUlYzn-20" vertex="1" connectable="0">
          <mxGeometry x="-0.2791" relative="1" as="geometry">
            <mxPoint as="offset" />
          </mxGeometry>
        </mxCell>
        <mxCell id="evXno2pd6YUgpvmUlYzn-22" value="SendTicket" style="rounded=1;whiteSpace=wrap;html=1;" parent="1" vertex="1">
          <mxGeometry x="360" y="330" width="80" height="30" as="geometry" />
        </mxCell>
        <mxCell id="evXno2pd6YUgpvmUlYzn-23" style="edgeStyle=orthogonalEdgeStyle;rounded=0;orthogonalLoop=1;jettySize=auto;html=1;exitX=1;exitY=0.5;exitDx=0;exitDy=0;entryX=0.5;entryY=0;entryDx=0;entryDy=0;" parent="1" source="evXno2pd6YUgpvmUlYzn-27" target="evXno2pd6YUgpvmUlYzn-34" edge="1">
          <mxGeometry relative="1" as="geometry" />
        </mxCell>
        <mxCell id="evXno2pd6YUgpvmUlYzn-24" value="&lt;font style=&quot;font-size: 8px;&quot;&gt;TicketValid&lt;/font&gt;" style="edgeLabel;html=1;align=center;verticalAlign=middle;resizable=0;points=[];" parent="evXno2pd6YUgpvmUlYzn-23" vertex="1" connectable="0">
          <mxGeometry x="-0.5091" relative="1" as="geometry">
            <mxPoint as="offset" />
          </mxGeometry>
        </mxCell>
        <mxCell id="evXno2pd6YUgpvmUlYzn-25" style="edgeStyle=orthogonalEdgeStyle;rounded=0;orthogonalLoop=1;jettySize=auto;html=1;exitX=0;exitY=0.5;exitDx=0;exitDy=0;" parent="1" source="evXno2pd6YUgpvmUlYzn-27" target="evXno2pd6YUgpvmUlYzn-29" edge="1">
          <mxGeometry relative="1" as="geometry" />
        </mxCell>
        <mxCell id="evXno2pd6YUgpvmUlYzn-26" value="&lt;font style=&quot;font-size: 8px;&quot;&gt;TicketExpired&lt;/font&gt;" style="edgeLabel;html=1;align=center;verticalAlign=middle;resizable=0;points=[];" parent="evXno2pd6YUgpvmUlYzn-25" vertex="1" connectable="0">
          <mxGeometry x="-0.0611" relative="1" as="geometry">
            <mxPoint as="offset" />
          </mxGeometry>
        </mxCell>
        <mxCell id="evXno2pd6YUgpvmUlYzn-27" value="" style="rhombus;whiteSpace=wrap;html=1;" parent="1" vertex="1">
          <mxGeometry x="390" y="390" width="20" height="20" as="geometry" />
        </mxCell>
        <mxCell id="evXno2pd6YUgpvmUlYzn-28" style="edgeStyle=orthogonalEdgeStyle;rounded=0;orthogonalLoop=1;jettySize=auto;html=1;entryX=0.25;entryY=1;entryDx=0;entryDy=0;" parent="1" source="evXno2pd6YUgpvmUlYzn-29" target="evXno2pd6YUgpvmUlYzn-4" edge="1">
          <mxGeometry relative="1" as="geometry" />
        </mxCell>
        <mxCell id="evXno2pd6YUgpvmUlYzn-29" value="&lt;div&gt;handleTicketExpired&lt;/div&gt;" style="rounded=1;whiteSpace=wrap;html=1;" parent="1" vertex="1">
          <mxGeometry x="240" y="440" width="120" height="30" as="geometry" />
        </mxCell>
        <mxCell id="evXno2pd6YUgpvmUlYzn-30" style="edgeStyle=orthogonalEdgeStyle;rounded=0;orthogonalLoop=1;jettySize=auto;html=1;entryX=0;entryY=1;entryDx=0;entryDy=0;" parent="1" source="evXno2pd6YUgpvmUlYzn-34" target="evXno2pd6YUgpvmUlYzn-4" edge="1">
          <mxGeometry relative="1" as="geometry">
            <Array as="points">
              <mxPoint x="480" y="500" />
              <mxPoint x="120" y="500" />
            </Array>
          </mxGeometry>
        </mxCell>
        <mxCell id="evXno2pd6YUgpvmUlYzn-31" value="&lt;font style=&quot;font-size: 8px;&quot;&gt;chargeTaken&lt;/font&gt;" style="edgeLabel;html=1;align=center;verticalAlign=middle;resizable=0;points=[];" parent="evXno2pd6YUgpvmUlYzn-30" vertex="1" connectable="0">
          <mxGeometry x="-0.7967" y="-3" relative="1" as="geometry">
            <mxPoint as="offset" />
          </mxGeometry>
        </mxCell>
        <mxCell id="evXno2pd6YUgpvmUlYzn-32" style="edgeStyle=orthogonalEdgeStyle;rounded=0;orthogonalLoop=1;jettySize=auto;html=1;entryX=0.5;entryY=1;entryDx=0;entryDy=0;" parent="1" source="evXno2pd6YUgpvmUlYzn-34" target="evXno2pd6YUgpvmUlYzn-36" edge="1">
          <mxGeometry relative="1" as="geometry">
            <mxPoint x="560" y="350" as="targetPoint" />
          </mxGeometry>
        </mxCell>
        <mxCell id="evXno2pd6YUgpvmUlYzn-33" value="&lt;font style=&quot;font-size: 7px;&quot;&gt;After 60 seconds if there was no answer&lt;/font&gt;" style="edgeLabel;html=1;align=center;verticalAlign=middle;resizable=0;points=[];" parent="evXno2pd6YUgpvmUlYzn-32" vertex="1" connectable="0">
          <mxGeometry x="-0.5124" y="-2" relative="1" as="geometry">
            <mxPoint x="37" y="-57" as="offset" />
          </mxGeometry>
        </mxCell>
        <mxCell id="evXno2pd6YUgpvmUlYzn-34" value="SendDeposit" style="rounded=1;whiteSpace=wrap;html=1;" parent="1" vertex="1">
          <mxGeometry x="440" y="440" width="80" height="30" as="geometry" />
        </mxCell>
        <mxCell id="evXno2pd6YUgpvmUlYzn-35" style="edgeStyle=orthogonalEdgeStyle;rounded=0;orthogonalLoop=1;jettySize=auto;html=1;entryX=0.5;entryY=0;entryDx=0;entryDy=0;" parent="1" source="evXno2pd6YUgpvmUlYzn-36" target="evXno2pd6YUgpvmUlYzn-4" edge="1">
          <mxGeometry relative="1" as="geometry">
            <Array as="points">
              <mxPoint x="680" y="315" />
              <mxPoint x="680" y="155" />
              <mxPoint x="160" y="155" />
            </Array>
          </mxGeometry>
        </mxCell>
        <mxCell id="evXno2pd6YUgpvmUlYzn-36" value="&lt;div&gt;HandleError&lt;/div&gt;" style="rounded=1;whiteSpace=wrap;html=1;" parent="1" vertex="1">
          <mxGeometry x="570" y="300" width="80" height="30" as="geometry" />
        </mxCell>
      </root>
    </mxGraphModel>
  </diagram>
  <diagram id="1yEmUg3n9kIWPnXrIUXS" name="transporttrolleyv2">
    <mxGraphModel dx="1434" dy="774" grid="1" gridSize="10" guides="1" tooltips="1" connect="1" arrows="1" fold="1" page="1" pageScale="1" pageWidth="827" pageHeight="1169" math="0" shadow="0">
      <root>
        <mxCell id="0" />
        <mxCell id="1" parent="0" />
        <mxCell id="5ZUA36wUZib30Vkdabr6-1" value="ColdStorageService" style="rounded=0;whiteSpace=wrap;html=1;" vertex="1" parent="1">
          <mxGeometry x="40.87" y="71" width="143.13" height="40" as="geometry" />
        </mxCell>
        <mxCell id="5ZUA36wUZib30Vkdabr6-2" value="TransportTrolley" style="rounded=0;whiteSpace=wrap;html=1;" vertex="1" parent="1">
          <mxGeometry x="236.87" y="71" width="130" height="40" as="geometry" />
        </mxCell>
        <mxCell id="5ZUA36wUZib30Vkdabr6-3" value="BasicRobot" style="rounded=0;whiteSpace=wrap;html=1;" vertex="1" parent="1">
          <mxGeometry x="413.87" y="71" width="123" height="40" as="geometry" />
        </mxCell>
        <mxCell id="5ZUA36wUZib30Vkdabr6-5" value="Attore" style="shape=parallelogram;perimeter=parallelogramPerimeter;whiteSpace=wrap;html=1;fixedSize=1;" vertex="1" parent="1">
          <mxGeometry x="56.870000000000005" y="31" width="120" height="20" as="geometry" />
        </mxCell>
        <mxCell id="5ZUA36wUZib30Vkdabr6-6" value="Attore" style="shape=parallelogram;perimeter=parallelogramPerimeter;whiteSpace=wrap;html=1;fixedSize=1;" vertex="1" parent="1">
          <mxGeometry x="246.87" y="30" width="120" height="20" as="geometry" />
        </mxCell>
        <mxCell id="5ZUA36wUZib30Vkdabr6-7" value="Attore" style="shape=parallelogram;perimeter=parallelogramPerimeter;whiteSpace=wrap;html=1;fixedSize=1;" vertex="1" parent="1">
          <mxGeometry x="416.87" y="30" width="120" height="20" as="geometry" />
        </mxCell>
        <mxCell id="5ZUA36wUZib30Vkdabr6-9" value="" style="endArrow=none;dashed=1;html=1;dashPattern=1 3;strokeWidth=2;rounded=0;" edge="1" parent="1" source="5ZUA36wUZib30Vkdabr6-14">
          <mxGeometry width="50" height="50" relative="1" as="geometry">
            <mxPoint x="116.37" y="391" as="sourcePoint" />
            <mxPoint x="116.37" y="111" as="targetPoint" />
          </mxGeometry>
        </mxCell>
        <mxCell id="5ZUA36wUZib30Vkdabr6-10" value="" style="endArrow=none;dashed=1;html=1;dashPattern=1 3;strokeWidth=2;rounded=0;" edge="1" parent="1" source="5ZUA36wUZib30Vkdabr6-16">
          <mxGeometry width="50" height="50" relative="1" as="geometry">
            <mxPoint x="301.37" y="391" as="sourcePoint" />
            <mxPoint x="301.37" y="111" as="targetPoint" />
          </mxGeometry>
        </mxCell>
        <mxCell id="5ZUA36wUZib30Vkdabr6-11" value="" style="endArrow=none;dashed=1;html=1;dashPattern=1 3;strokeWidth=2;rounded=0;" edge="1" parent="1" source="5ZUA36wUZib30Vkdabr6-18">
          <mxGeometry width="50" height="50" relative="1" as="geometry">
            <mxPoint x="476.87" y="391" as="sourcePoint" />
            <mxPoint x="476.87" y="111" as="targetPoint" />
          </mxGeometry>
        </mxCell>
        <mxCell id="5ZUA36wUZib30Vkdabr6-13" value="" style="endArrow=none;dashed=1;html=1;dashPattern=1 3;strokeWidth=2;rounded=0;" edge="1" parent="1" target="5ZUA36wUZib30Vkdabr6-14">
          <mxGeometry width="50" height="50" relative="1" as="geometry">
            <mxPoint x="117" y="500" as="sourcePoint" />
            <mxPoint x="116.37" y="111" as="targetPoint" />
          </mxGeometry>
        </mxCell>
        <mxCell id="5ZUA36wUZib30Vkdabr6-14" value="" style="rounded=0;whiteSpace=wrap;html=1;rotation=-90;" vertex="1" parent="1">
          <mxGeometry x="2.5" y="295" width="228.75" height="10" as="geometry" />
        </mxCell>
        <mxCell id="5ZUA36wUZib30Vkdabr6-15" value="" style="endArrow=none;dashed=1;html=1;dashPattern=1 3;strokeWidth=2;rounded=0;" edge="1" parent="1">
          <mxGeometry width="50" height="50" relative="1" as="geometry">
            <mxPoint x="300" y="496" as="sourcePoint" />
            <mxPoint x="300.15519258966833" y="473.9849999999999" as="targetPoint" />
          </mxGeometry>
        </mxCell>
        <mxCell id="5ZUA36wUZib30Vkdabr6-16" value="" style="rounded=0;whiteSpace=wrap;html=1;rotation=-90;" vertex="1" parent="1">
          <mxGeometry x="128.95" y="297.97" width="345.84" height="10" as="geometry" />
        </mxCell>
        <mxCell id="5ZUA36wUZib30Vkdabr6-17" value="" style="endArrow=none;dashed=1;html=1;dashPattern=1 3;strokeWidth=2;rounded=0;" edge="1" parent="1" target="5ZUA36wUZib30Vkdabr6-18" source="5ZUA36wUZib30Vkdabr6-39">
          <mxGeometry width="50" height="50" relative="1" as="geometry">
            <mxPoint x="475.36046270417194" y="543.9099999999999" as="sourcePoint" />
            <mxPoint x="476.87" y="111" as="targetPoint" />
          </mxGeometry>
        </mxCell>
        <mxCell id="5ZUA36wUZib30Vkdabr6-18" value="" style="rounded=0;whiteSpace=wrap;html=1;rotation=-90;" vertex="1" parent="1">
          <mxGeometry x="425.31" y="185.01" width="100.11" height="10" as="geometry" />
        </mxCell>
        <mxCell id="5ZUA36wUZib30Vkdabr6-21" value="" style="endArrow=classic;html=1;rounded=0;fillColor=#e6d0de;gradientColor=#d5739d;strokeColor=#ff80ff;strokeWidth=3;" edge="1" parent="1">
          <mxGeometry width="50" height="50" relative="1" as="geometry">
            <mxPoint x="126.87" y="219.84" as="sourcePoint" />
            <mxPoint x="286.87" y="219.84" as="targetPoint" />
          </mxGeometry>
        </mxCell>
        <mxCell id="5ZUA36wUZib30Vkdabr6-22" value="" style="endArrow=classic;html=1;rounded=0;fillColor=#e6d0de;gradientColor=#d5739d;strokeColor=#ff80ff;strokeWidth=3;exitX=0.867;exitY=0.899;exitDx=0;exitDy=0;exitPerimeter=0;" edge="1" parent="1">
          <mxGeometry width="50" height="50" relative="1" as="geometry">
            <mxPoint x="308.77" y="150" as="sourcePoint" />
            <mxPoint x="468.77" y="150.24" as="targetPoint" />
          </mxGeometry>
        </mxCell>
        <mxCell id="5ZUA36wUZib30Vkdabr6-24" value="pickup" style="edgeLabel;html=1;align=center;verticalAlign=middle;resizable=0;points=[];" vertex="1" connectable="0" parent="1">
          <mxGeometry x="206.87" y="174" as="geometry">
            <mxPoint x="1" y="42" as="offset" />
          </mxGeometry>
        </mxCell>
        <mxCell id="5ZUA36wUZib30Vkdabr6-25" value="engage" style="edgeLabel;html=1;align=center;verticalAlign=middle;resizable=0;points=[];" vertex="1" connectable="0" parent="1">
          <mxGeometry x="388.77" y="152" as="geometry">
            <mxPoint x="-3" y="-6" as="offset" />
          </mxGeometry>
        </mxCell>
        <mxCell id="5ZUA36wUZib30Vkdabr6-29" value="" style="endArrow=classic;html=1;rounded=0;entryX=0.555;entryY=-0.066;entryDx=0;entryDy=0;fillColor=#e6d0de;gradientColor=#d5739d;strokeColor=#008000;strokeWidth=3;jumpSize=5;startSize=0;entryPerimeter=0;dashed=1;" edge="1" parent="1">
          <mxGeometry width="50" height="50" relative="1" as="geometry">
            <mxPoint x="469.77" y="170.00000000000003" as="sourcePoint" />
            <mxPoint x="307.77" y="170.00000000000003" as="targetPoint" />
          </mxGeometry>
        </mxCell>
        <mxCell id="5ZUA36wUZib30Vkdabr6-30" value="" style="endArrow=classic;html=1;rounded=0;entryX=0.555;entryY=-0.066;entryDx=0;entryDy=0;fillColor=#e6d0de;gradientColor=#d5739d;strokeColor=#008000;strokeWidth=3;jumpSize=5;startSize=0;entryPerimeter=0;dashed=1;" edge="1" parent="1">
          <mxGeometry width="50" height="50" relative="1" as="geometry">
            <mxPoint x="294.87" y="384" as="sourcePoint" />
            <mxPoint x="122.87" y="385" as="targetPoint" />
          </mxGeometry>
        </mxCell>
        <mxCell id="5ZUA36wUZib30Vkdabr6-31" value="engagedone/refused" style="edgeLabel;html=1;align=center;verticalAlign=middle;resizable=0;points=[];" vertex="1" connectable="0" parent="1">
          <mxGeometry x="388.77" y="171" as="geometry" />
        </mxCell>
        <mxCell id="5ZUA36wUZib30Vkdabr6-32" value="pickupdone" style="edgeLabel;html=1;align=center;verticalAlign=middle;resizable=0;points=[];" vertex="1" connectable="0" parent="1">
          <mxGeometry x="206.87" y="382" as="geometry" />
        </mxCell>
        <mxCell id="5ZUA36wUZib30Vkdabr6-40" value="" style="endArrow=classic;html=1;rounded=0;fillColor=#e6d0de;gradientColor=#d5739d;strokeColor=#ff80ff;strokeWidth=3;exitX=0.867;exitY=0.899;exitDx=0;exitDy=0;exitPerimeter=0;" edge="1" parent="1">
          <mxGeometry width="50" height="50" relative="1" as="geometry">
            <mxPoint x="307.77" y="278.75" as="sourcePoint" />
            <mxPoint x="467.77" y="278.99" as="targetPoint" />
          </mxGeometry>
        </mxCell>
        <mxCell id="5ZUA36wUZib30Vkdabr6-41" value="" style="endArrow=classic;html=1;rounded=0;entryX=0.555;entryY=-0.066;entryDx=0;entryDy=0;fillColor=#e6d0de;gradientColor=#d5739d;strokeColor=#008000;strokeWidth=3;jumpSize=5;startSize=0;entryPerimeter=0;dashed=1;" edge="1" parent="1">
          <mxGeometry width="50" height="50" relative="1" as="geometry">
            <mxPoint x="469.77" y="315.28000000000003" as="sourcePoint" />
            <mxPoint x="307.77" y="315.28000000000003" as="targetPoint" />
          </mxGeometry>
        </mxCell>
        <mxCell id="5ZUA36wUZib30Vkdabr6-42" value="" style="endArrow=classic;html=1;rounded=0;fillColor=#e6d0de;gradientColor=#d5739d;strokeColor=#0000ff;strokeWidth=3;exitX=0.867;exitY=0.899;exitDx=0;exitDy=0;exitPerimeter=0;" edge="1" parent="1">
          <mxGeometry width="50" height="50" relative="1" as="geometry">
            <mxPoint x="307.77" y="422" as="sourcePoint" />
            <mxPoint x="467.77" y="422.24" as="targetPoint" />
          </mxGeometry>
        </mxCell>
        <mxCell id="5ZUA36wUZib30Vkdabr6-45" value="moverobot" style="edgeLabel;html=1;align=center;verticalAlign=middle;resizable=0;points=[];" vertex="1" connectable="0" parent="1">
          <mxGeometry x="388.77" y="278.15999999999997" as="geometry">
            <mxPoint x="-2" y="-1" as="offset" />
          </mxGeometry>
        </mxCell>
        <mxCell id="5ZUA36wUZib30Vkdabr6-46" value="moverobotdone/failed" style="edgeLabel;html=1;align=center;verticalAlign=middle;resizable=0;points=[];" vertex="1" connectable="0" parent="1">
          <mxGeometry x="388.77" y="312" as="geometry" />
        </mxCell>
        <mxCell id="5ZUA36wUZib30Vkdabr6-47" value="disengage" style="edgeLabel;html=1;align=center;verticalAlign=middle;resizable=0;points=[];" vertex="1" connectable="0" parent="1">
          <mxGeometry x="388.77" y="421" as="geometry" />
        </mxCell>
        <mxCell id="5ZUA36wUZib30Vkdabr6-56" style="edgeStyle=orthogonalEdgeStyle;rounded=0;orthogonalLoop=1;jettySize=auto;html=1;entryX=0;entryY=0.5;entryDx=0;entryDy=0;" edge="1" parent="1" source="5ZUA36wUZib30Vkdabr6-57" target="5ZUA36wUZib30Vkdabr6-105">
          <mxGeometry relative="1" as="geometry">
            <mxPoint x="80" y="867" as="targetPoint" />
          </mxGeometry>
        </mxCell>
        <mxCell id="5ZUA36wUZib30Vkdabr6-57" value="" style="ellipse;whiteSpace=wrap;html=1;aspect=fixed;fillColor=#000000;" vertex="1" parent="1">
          <mxGeometry x="20" y="857" width="20" height="20" as="geometry" />
        </mxCell>
        <mxCell id="5ZUA36wUZib30Vkdabr6-104" value="" style="endArrow=none;dashed=1;html=1;dashPattern=1 3;strokeWidth=2;rounded=0;" edge="1" parent="1" target="5ZUA36wUZib30Vkdabr6-39">
          <mxGeometry width="50" height="50" relative="1" as="geometry">
            <mxPoint x="475" y="490" as="sourcePoint" />
            <mxPoint x="475" y="240" as="targetPoint" />
          </mxGeometry>
        </mxCell>
        <mxCell id="5ZUA36wUZib30Vkdabr6-39" value="" style="rounded=0;whiteSpace=wrap;html=1;rotation=-90;" vertex="1" parent="1">
          <mxGeometry x="437.77000000000004" y="290" width="72.18" height="10" as="geometry" />
        </mxCell>
        <mxCell id="5ZUA36wUZib30Vkdabr6-51" value="" style="rounded=0;whiteSpace=wrap;html=1;rotation=-90;" vertex="1" parent="1">
          <mxGeometry x="439.27000000000004" y="431" width="72.18" height="10" as="geometry" />
        </mxCell>
        <mxCell id="FaPxzrT2UYxhmaGr6UfG-3" value="" style="edgeStyle=orthogonalEdgeStyle;rounded=0;orthogonalLoop=1;jettySize=auto;html=1;exitX=0.5;exitY=0;exitDx=0;exitDy=0;" edge="1" parent="1" source="5ZUA36wUZib30Vkdabr6-105" target="FaPxzrT2UYxhmaGr6UfG-1">
          <mxGeometry relative="1" as="geometry">
            <Array as="points">
              <mxPoint x="133" y="795" />
            </Array>
          </mxGeometry>
        </mxCell>
        <mxCell id="FaPxzrT2UYxhmaGr6UfG-4" value="" style="edgeStyle=orthogonalEdgeStyle;rounded=0;orthogonalLoop=1;jettySize=auto;html=1;exitX=0.5;exitY=1;exitDx=0;exitDy=0;" edge="1" parent="1" source="5ZUA36wUZib30Vkdabr6-105" target="FaPxzrT2UYxhmaGr6UfG-2">
          <mxGeometry relative="1" as="geometry">
            <Array as="points">
              <mxPoint x="133" y="945" />
            </Array>
          </mxGeometry>
        </mxCell>
        <mxCell id="5ZUA36wUZib30Vkdabr6-105" value="" style="rhombus;whiteSpace=wrap;html=1;" vertex="1" parent="1">
          <mxGeometry x="123" y="857" width="20" height="20" as="geometry" />
        </mxCell>
        <mxCell id="5ZUA36wUZib30Vkdabr6-106" value="engage" style="edgeLabel;html=1;align=center;verticalAlign=middle;resizable=0;points=[];" vertex="1" connectable="0" parent="1">
          <mxGeometry x="77" y="865" as="geometry" />
        </mxCell>
        <mxCell id="FaPxzrT2UYxhmaGr6UfG-8" value="" style="edgeStyle=orthogonalEdgeStyle;rounded=0;orthogonalLoop=1;jettySize=auto;html=1;" edge="1" parent="1" source="FaPxzrT2UYxhmaGr6UfG-1" target="FaPxzrT2UYxhmaGr6UfG-7">
          <mxGeometry relative="1" as="geometry" />
        </mxCell>
        <mxCell id="FaPxzrT2UYxhmaGr6UfG-1" value="Idle" style="rounded=1;whiteSpace=wrap;html=1;" vertex="1" parent="1">
          <mxGeometry x="156.87" y="780" width="80" height="30" as="geometry" />
        </mxCell>
        <mxCell id="FaPxzrT2UYxhmaGr6UfG-49" value="" style="edgeStyle=orthogonalEdgeStyle;rounded=0;orthogonalLoop=1;jettySize=auto;html=1;" edge="1" parent="1" source="FaPxzrT2UYxhmaGr6UfG-2" target="FaPxzrT2UYxhmaGr6UfG-48">
          <mxGeometry relative="1" as="geometry" />
        </mxCell>
        <mxCell id="FaPxzrT2UYxhmaGr6UfG-52" value="" style="edgeStyle=orthogonalEdgeStyle;rounded=0;orthogonalLoop=1;jettySize=auto;html=1;entryX=0.5;entryY=1;entryDx=0;entryDy=0;" edge="1" parent="1" source="FaPxzrT2UYxhmaGr6UfG-2" target="FaPxzrT2UYxhmaGr6UfG-1">
          <mxGeometry relative="1" as="geometry">
            <mxPoint x="196.8699999999999" y="835" as="targetPoint" />
          </mxGeometry>
        </mxCell>
        <mxCell id="FaPxzrT2UYxhmaGr6UfG-2" value="Waitforfree" style="rounded=1;whiteSpace=wrap;html=1;" vertex="1" parent="1">
          <mxGeometry x="156.87" y="930" width="80" height="30" as="geometry" />
        </mxCell>
        <mxCell id="FaPxzrT2UYxhmaGr6UfG-5" value="engagedone" style="edgeLabel;html=1;align=center;verticalAlign=middle;resizable=0;points=[];" vertex="1" connectable="0" parent="1">
          <mxGeometry x="128.95" y="830" as="geometry" />
        </mxCell>
        <mxCell id="FaPxzrT2UYxhmaGr6UfG-6" value="engagerefused" style="edgeLabel;html=1;align=center;verticalAlign=middle;resizable=0;points=[];" vertex="1" connectable="0" parent="1">
          <mxGeometry x="133" y="900" as="geometry" />
        </mxCell>
        <mxCell id="FaPxzrT2UYxhmaGr6UfG-11" value="" style="edgeStyle=orthogonalEdgeStyle;rounded=0;orthogonalLoop=1;jettySize=auto;html=1;" edge="1" parent="1" source="FaPxzrT2UYxhmaGr6UfG-7" target="FaPxzrT2UYxhmaGr6UfG-10">
          <mxGeometry relative="1" as="geometry" />
        </mxCell>
        <mxCell id="FaPxzrT2UYxhmaGr6UfG-28" value="" style="edgeStyle=orthogonalEdgeStyle;rounded=0;orthogonalLoop=1;jettySize=auto;html=1;" edge="1" parent="1">
          <mxGeometry relative="1" as="geometry">
            <mxPoint x="370" y="690" as="sourcePoint" />
            <mxPoint x="370" y="780" as="targetPoint" />
          </mxGeometry>
        </mxCell>
        <mxCell id="FaPxzrT2UYxhmaGr6UfG-39" value="" style="edgeStyle=orthogonalEdgeStyle;rounded=0;orthogonalLoop=1;jettySize=auto;html=1;entryX=0;entryY=0.5;entryDx=0;entryDy=0;" edge="1" parent="1" source="FaPxzrT2UYxhmaGr6UfG-7" target="FaPxzrT2UYxhmaGr6UfG-36">
          <mxGeometry relative="1" as="geometry">
            <mxPoint x="375" y="905" as="targetPoint" />
            <Array as="points">
              <mxPoint x="375" y="885" />
            </Array>
          </mxGeometry>
        </mxCell>
        <mxCell id="FaPxzrT2UYxhmaGr6UfG-7" value="moverobottoindoor" style="rounded=1;whiteSpace=wrap;html=1;" vertex="1" parent="1">
          <mxGeometry x="320" y="780" width="110" height="30" as="geometry" />
        </mxCell>
        <mxCell id="FaPxzrT2UYxhmaGr6UfG-9" value="pickup" style="edgeLabel;html=1;align=center;verticalAlign=middle;resizable=0;points=[];" vertex="1" connectable="0" parent="1">
          <mxGeometry x="274" y="793" as="geometry" />
        </mxCell>
        <mxCell id="FaPxzrT2UYxhmaGr6UfG-14" value="" style="edgeStyle=orthogonalEdgeStyle;rounded=0;orthogonalLoop=1;jettySize=auto;html=1;" edge="1" parent="1" source="FaPxzrT2UYxhmaGr6UfG-10" target="FaPxzrT2UYxhmaGr6UfG-13">
          <mxGeometry relative="1" as="geometry" />
        </mxCell>
        <mxCell id="FaPxzrT2UYxhmaGr6UfG-42" value="" style="edgeStyle=orthogonalEdgeStyle;rounded=0;orthogonalLoop=1;jettySize=auto;html=1;" edge="1" parent="1" source="FaPxzrT2UYxhmaGr6UfG-10" target="FaPxzrT2UYxhmaGr6UfG-36">
          <mxGeometry relative="1" as="geometry" />
        </mxCell>
        <mxCell id="FaPxzrT2UYxhmaGr6UfG-10" value="movetoport" style="rounded=1;whiteSpace=wrap;html=1;" vertex="1" parent="1">
          <mxGeometry x="529" y="780" width="110" height="30" as="geometry" />
        </mxCell>
        <mxCell id="FaPxzrT2UYxhmaGr6UfG-12" value="moverobotdone" style="edgeLabel;html=1;align=center;verticalAlign=middle;resizable=0;points=[];" vertex="1" connectable="0" parent="1">
          <mxGeometry x="476.87" y="793" as="geometry" />
        </mxCell>
        <mxCell id="FaPxzrT2UYxhmaGr6UfG-17" value="" style="edgeStyle=orthogonalEdgeStyle;rounded=0;orthogonalLoop=1;jettySize=auto;html=1;" edge="1" parent="1" source="FaPxzrT2UYxhmaGr6UfG-13" target="FaPxzrT2UYxhmaGr6UfG-16">
          <mxGeometry relative="1" as="geometry" />
        </mxCell>
        <mxCell id="FaPxzrT2UYxhmaGr6UfG-13" value="depositactionended" style="rounded=1;whiteSpace=wrap;html=1;" vertex="1" parent="1">
          <mxGeometry x="730" y="780" width="120" height="30" as="geometry" />
        </mxCell>
        <mxCell id="FaPxzrT2UYxhmaGr6UfG-44" value="" style="edgeStyle=orthogonalEdgeStyle;rounded=0;orthogonalLoop=1;jettySize=auto;html=1;entryX=1;entryY=0.75;entryDx=0;entryDy=0;" edge="1" parent="1" source="FaPxzrT2UYxhmaGr6UfG-15" target="FaPxzrT2UYxhmaGr6UfG-36">
          <mxGeometry relative="1" as="geometry">
            <mxPoint x="1025" y="905" as="targetPoint" />
            <Array as="points">
              <mxPoint x="1025" y="893" />
              <mxPoint x="817" y="893" />
            </Array>
          </mxGeometry>
        </mxCell>
        <mxCell id="FaPxzrT2UYxhmaGr6UfG-15" value="robottohome" style="rounded=1;whiteSpace=wrap;html=1;" vertex="1" parent="1">
          <mxGeometry x="970" y="780" width="110" height="30" as="geometry" />
        </mxCell>
        <mxCell id="FaPxzrT2UYxhmaGr6UfG-18" value="" style="edgeStyle=orthogonalEdgeStyle;rounded=0;orthogonalLoop=1;jettySize=auto;html=1;" edge="1" parent="1" source="FaPxzrT2UYxhmaGr6UfG-16" target="FaPxzrT2UYxhmaGr6UfG-15">
          <mxGeometry relative="1" as="geometry" />
        </mxCell>
        <mxCell id="FaPxzrT2UYxhmaGr6UfG-25" value="" style="rounded=0;orthogonalLoop=1;jettySize=auto;html=1;endArrow=none;endFill=0;" edge="1" parent="1" source="FaPxzrT2UYxhmaGr6UfG-16">
          <mxGeometry relative="1" as="geometry">
            <mxPoint x="910" y="690" as="targetPoint" />
          </mxGeometry>
        </mxCell>
        <mxCell id="FaPxzrT2UYxhmaGr6UfG-16" value="" style="rhombus;whiteSpace=wrap;html=1;" vertex="1" parent="1">
          <mxGeometry x="900" y="785" width="20" height="20" as="geometry" />
        </mxCell>
        <mxCell id="FaPxzrT2UYxhmaGr6UfG-19" value="moverobotdone" style="edgeLabel;html=1;align=center;verticalAlign=middle;resizable=0;points=[];" vertex="1" connectable="0" parent="1">
          <mxGeometry x="680" y="794" as="geometry" />
        </mxCell>
        <mxCell id="FaPxzrT2UYxhmaGr6UfG-26" value="" style="endArrow=none;html=1;rounded=0;" edge="1" parent="1">
          <mxGeometry width="50" height="50" relative="1" as="geometry">
            <mxPoint x="370" y="690" as="sourcePoint" />
            <mxPoint x="910" y="690" as="targetPoint" />
          </mxGeometry>
        </mxCell>
        <mxCell id="FaPxzrT2UYxhmaGr6UfG-29" value="pickup" style="edgeLabel;html=1;align=center;verticalAlign=middle;resizable=0;points=[];" vertex="1" connectable="0" parent="1">
          <mxGeometry x="664" y="689" as="geometry" />
        </mxCell>
        <mxCell id="FaPxzrT2UYxhmaGr6UfG-30" value="" style="edgeStyle=orthogonalEdgeStyle;rounded=0;orthogonalLoop=1;jettySize=auto;html=1;" edge="1" parent="1">
          <mxGeometry relative="1" as="geometry">
            <mxPoint x="199" y="650" as="sourcePoint" />
            <mxPoint x="198.76999999999998" y="780" as="targetPoint" />
          </mxGeometry>
        </mxCell>
        <mxCell id="FaPxzrT2UYxhmaGr6UfG-34" value="" style="endArrow=none;html=1;rounded=0;" edge="1" parent="1">
          <mxGeometry width="50" height="50" relative="1" as="geometry">
            <mxPoint x="200" y="650" as="sourcePoint" />
            <mxPoint x="1024.77" y="650" as="targetPoint" />
          </mxGeometry>
        </mxCell>
        <mxCell id="FaPxzrT2UYxhmaGr6UfG-33" value="" style="rounded=0;orthogonalLoop=1;jettySize=auto;html=1;endArrow=none;endFill=0;" edge="1" parent="1">
          <mxGeometry relative="1" as="geometry">
            <mxPoint x="1024.77" y="780" as="sourcePoint" />
            <mxPoint x="1025" y="650" as="targetPoint" />
          </mxGeometry>
        </mxCell>
        <mxCell id="FaPxzrT2UYxhmaGr6UfG-20" value="moverobotdone" style="edgeLabel;html=1;align=center;verticalAlign=middle;resizable=0;points=[];" vertex="1" connectable="0" parent="1">
          <mxGeometry x="620" y="644" as="geometry">
            <mxPoint x="-1" y="5" as="offset" />
          </mxGeometry>
        </mxCell>
        <mxCell id="FaPxzrT2UYxhmaGr6UfG-55" value="" style="edgeStyle=orthogonalEdgeStyle;rounded=0;orthogonalLoop=1;jettySize=auto;html=1;entryX=1;entryY=0.5;entryDx=0;entryDy=0;" edge="1" parent="1" source="FaPxzrT2UYxhmaGr6UfG-36" target="FaPxzrT2UYxhmaGr6UfG-48">
          <mxGeometry relative="1" as="geometry">
            <mxPoint x="608.9999999999998" y="995" as="targetPoint" />
            <Array as="points">
              <mxPoint x="609" y="945" />
            </Array>
          </mxGeometry>
        </mxCell>
        <mxCell id="FaPxzrT2UYxhmaGr6UfG-36" value="robotmovefailed" style="rounded=1;whiteSpace=wrap;html=1;" vertex="1" parent="1">
          <mxGeometry x="554" y="870" width="110" height="30" as="geometry" />
        </mxCell>
        <mxCell id="FaPxzrT2UYxhmaGr6UfG-45" value="moverobotfailed" style="edgeLabel;html=1;align=center;verticalAlign=middle;resizable=0;points=[];" vertex="1" connectable="0" parent="1">
          <mxGeometry x="460" y="881" as="geometry" />
        </mxCell>
        <mxCell id="FaPxzrT2UYxhmaGr6UfG-46" value="moverobotfailed" style="edgeLabel;html=1;align=center;verticalAlign=middle;resizable=0;points=[];" vertex="1" connectable="0" parent="1">
          <mxGeometry x="850" y="891" as="geometry" />
        </mxCell>
        <mxCell id="FaPxzrT2UYxhmaGr6UfG-47" value="moverobotfailed" style="edgeLabel;html=1;align=center;verticalAlign=middle;resizable=0;points=[];" vertex="1" connectable="0" parent="1">
          <mxGeometry x="600" y="840" as="geometry" />
        </mxCell>
        <mxCell id="FaPxzrT2UYxhmaGr6UfG-48" value="Exit" style="rounded=1;whiteSpace=wrap;html=1;" vertex="1" parent="1">
          <mxGeometry x="345.31" y="930" width="80" height="30" as="geometry" />
        </mxCell>
        <mxCell id="FaPxzrT2UYxhmaGr6UfG-50" value="engagedone" style="edgeLabel;html=1;align=center;verticalAlign=middle;resizable=0;points=[];" vertex="1" connectable="0" parent="1">
          <mxGeometry x="196.87" y="870" as="geometry" />
        </mxCell>
        <mxCell id="FaPxzrT2UYxhmaGr6UfG-53" value="engagerefused" style="edgeLabel;html=1;align=center;verticalAlign=middle;resizable=0;points=[];" vertex="1" connectable="0" parent="1">
          <mxGeometry x="290" y="945" as="geometry" />
        </mxCell>
        <mxCell id="FaPxzrT2UYxhmaGr6UfG-56" value="moverobotfailed" style="edgeLabel;html=1;align=center;verticalAlign=middle;resizable=0;points=[];" vertex="1" connectable="0" parent="1">
          <mxGeometry x="550" y="945" as="geometry" />
        </mxCell>
        <mxCell id="FaPxzrT2UYxhmaGr6UfG-57" value="" style="endArrow=classic;html=1;rounded=0;entryX=1;entryY=1;entryDx=0;entryDy=0;exitX=0;exitY=1;exitDx=0;exitDy=0;" edge="1" parent="1" source="FaPxzrT2UYxhmaGr6UfG-36" target="FaPxzrT2UYxhmaGr6UfG-1">
          <mxGeometry width="50" height="50" relative="1" as="geometry">
            <mxPoint x="370" y="920" as="sourcePoint" />
            <mxPoint x="680" y="700" as="targetPoint" />
            <Array as="points">
              <mxPoint x="280" y="900" />
            </Array>
          </mxGeometry>
        </mxCell>
        <mxCell id="FaPxzrT2UYxhmaGr6UfG-59" value="moverobotdone" style="edgeLabel;html=1;align=center;verticalAlign=middle;resizable=0;points=[];" vertex="1" connectable="0" parent="1">
          <mxGeometry x="416.87" y="900" as="geometry" />
        </mxCell>
      </root>
    </mxGraphModel>
  </diagram>
</mxfile>
